<ttFont>
    <TTGlyph name="A" xMin="20" yMin="0" xMax="1626" yMax="1473">
      <contour>
        <pt x="838" y="514" on="1"/>
        <pt x="522" y="514" on="1"/>
        <pt x="508" y="471" on="1"/>
        <pt x="492" y="428" on="0"/>
        <pt x="528" y="371" on="0"/>
        <pt x="586" y="371" on="1"/>
        <pt x="643" y="371" on="1"/>
        <pt x="643" y="0" on="1"/>
        <pt x="20" y="0" on="1"/>
        <pt x="20" y="371" on="1"/>
        <pt x="61" y="371" on="1"/>
        <pt x="133" y="371" on="0"/>
        <pt x="182" y="428" on="0"/>
        <pt x="205" y="483" on="1"/>
        <pt x="410" y="989" on="1"/>
        <pt x="432" y="1047" on="0"/>
        <pt x="403" y="1102" on="0"/>
        <pt x="330" y="1102" on="1"/>
        <pt x="309" y="1102" on="1"/>
        <pt x="309" y="1473" on="1"/>
        <pt x="1337" y="1473" on="1"/>
        <pt x="1337" y="1102" on="1"/>
        <pt x="1317" y="1102" on="1"/>
        <pt x="1243" y="1102" on="0"/>
        <pt x="1214" y="1044" on="0"/>
        <pt x="1237" y="989" on="1"/>
        <pt x="1442" y="483" on="1"/>
        <pt x="1454" y="455" on="0"/>
        <pt x="1473" y="414" on="0"/>
        <pt x="1501" y="385" on="0"/>
        <pt x="1548" y="371" on="0"/>
        <pt x="1585" y="371" on="1"/>
        <pt x="1626" y="371" on="1"/>
        <pt x="1626" y="0" on="1"/>
        <pt x="717" y="0" on="1"/>
        <pt x="717" y="371" on="1"/>
        <pt x="772" y="371" on="1"/>
        <pt x="829" y="371" on="0"/>
        <pt x="868" y="428" on="0"/>
        <pt x="852" y="471" on="1"/>
      </contour>
      <contour>
        <pt x="573" y="670" on="1"/>
        <pt x="786" y="670" on="1"/>
        <pt x="686" y="977" on="1"/>
        <pt x="678" y="977" on="1"/>
      </contour>
    </TTGlyph>
    <TTGlyph name="AE" xMin="20" yMin="0" xMax="2097" yMax="1473">
      <contour>
        <pt x="1606" y="371" on="1"/>
        <pt x="1647" y="371" on="0"/>
        <pt x="1702" y="385" on="0"/>
        <pt x="1735" y="424" on="0"/>
        <pt x="1747" y="492" on="0"/>
        <pt x="1747" y="545" on="1"/>
        <pt x="2097" y="545" on="1"/>
        <pt x="2097" y="0" on="1"/>
        <pt x="692" y="0" on="1"/>
        <pt x="692" y="371" on="1"/>
        <pt x="780" y="371" on="0"/>
        <pt x="856" y="418" on="0"/>
        <pt x="856" y="483" on="1"/>
        <pt x="856" y="545" on="1"/>
        <pt x="537" y="545" on="1"/>
        <pt x="500" y="471" on="1"/>
        <pt x="479" y="430" on="0"/>
        <pt x="520" y="371" on="0"/>
        <pt x="578" y="371" on="1"/>
        <pt x="635" y="371" on="1"/>
        <pt x="635" y="0" on="1"/>
        <pt x="20" y="0" on="1"/>
        <pt x="20" y="371" on="1"/>
        <pt x="41" y="371" on="1"/>
        <pt x="78" y="371" on="0"/>
        <pt x="127" y="385" on="0"/>
        <pt x="164" y="414" on="0"/>
        <pt x="190" y="457" on="0"/>
        <pt x="205" y="483" on="1"/>
        <pt x="463" y="989" on="1"/>
        <pt x="492" y="1044" on="0"/>
        <pt x="457" y="1102" on="0"/>
        <pt x="383" y="1102" on="1"/>
        <pt x="362" y="1102" on="1"/>
        <pt x="362" y="1473" on="1"/>
        <pt x="2097" y="1473" on="1"/>
        <pt x="2097" y="928" on="1"/>
        <pt x="1747" y="928" on="1"/>
        <pt x="1747" y="981" on="0"/>
        <pt x="1735" y="1049" on="0"/>
        <pt x="1702" y="1087" on="0"/>
        <pt x="1647" y="1102" on="0"/>
        <pt x="1606" y="1102" on="1"/>
        <pt x="1425" y="1102" on="1"/>
        <pt x="1425" y="836" on="1"/>
        <pt x="1745" y="836" on="1"/>
        <pt x="1745" y="659" on="1"/>
        <pt x="1425" y="659" on="1"/>
        <pt x="1425" y="371" on="1"/>
      </contour>
      <contour>
        <pt x="616" y="700" on="1"/>
        <pt x="856" y="700" on="1"/>
        <pt x="856" y="1102" on="1"/>
        <pt x="821" y="1102" on="1"/>
      </contour>
    </TTGlyph>
    <TTGlyph name="AEacute" xMin="20" yMin="0" xMax="2097" yMax="1863">
      <component glyphName="AE" x="0" y="0" flags="0x1204"/>
      <component glyphName="acute" x="836" y="315" flags="0x1004"/>
    </TTGlyph>
    <TTGlyph name="Aacute" xMin="20" yMin="0" xMax="1626" yMax="1863">
      <component glyphName="A" x="0" y="0" flags="0x1204"/>
      <component glyphName="acute" x="381" y="315" flags="0x1004"/>
    </TTGlyph>
    <TTGlyph name="Abreve" xMin="20" yMin="0" xMax="1626" yMax="1863">
      <component glyphName="A" x="0" y="0" flags="0x1204"/>
      <component glyphName="breve" x="295" y="315" flags="0x1004"/>
    </TTGlyph>
    <TTGlyph name="Acircumflex" xMin="20" yMin="0" xMax="1626" yMax="1863">
      <component glyphName="A" x="0" y="0" flags="0x1204"/>
      <component glyphName="circumflex" x="295" y="315" flags="0x1004"/>
    </TTGlyph>
    <TTGlyph name="Adieresis" xMin="20" yMin="0" xMax="1626" yMax="1861">
      <component glyphName="A" x="0" y="0" flags="0x1204"/>
      <component glyphName="dieresis" x="295" y="315" flags="0x1004"/>
    </TTGlyph>
    <TTGlyph name="Agrave" xMin="20" yMin="0" xMax="1626" yMax="1863">
      <component glyphName="A" x="0" y="0" flags="0x1204"/>
      <component glyphName="grave" x="287" y="315" flags="0x1004"/>
    </TTGlyph>
    <TTGlyph name="Amacron" xMin="20" yMin="0" xMax="1626" yMax="1822">
      <component glyphName="A" x="0" y="0" flags="0x1204"/>
      <component glyphName="macron" x="295" y="315" flags="0x1004"/>
    </TTGlyph>
    <TTGlyph name="Aogonek" xMin="20" yMin="-487" xMax="1667" yMax="1473">
      <contour>
        <pt x="838" y="514" on="1"/>
        <pt x="522" y="514" on="1"/>
        <pt x="508" y="471" on="1"/>
        <pt x="492" y="428" on="0"/>
        <pt x="528" y="371" on="0"/>
        <pt x="586" y="371" on="1"/>
        <pt x="643" y="371" on="1"/>
        <pt x="643" y="0" on="1"/>
        <pt x="20" y="0" on="1"/>
        <pt x="20" y="371" on="1"/>
        <pt x="61" y="371" on="1"/>
        <pt x="133" y="371" on="0"/>
        <pt x="182" y="428" on="0"/>
        <pt x="205" y="483" on="1"/>
        <pt x="410" y="989" on="1"/>
        <pt x="432" y="1047" on="0"/>
        <pt x="403" y="1102" on="0"/>
        <pt x="330" y="1102" on="1"/>
        <pt x="309" y="1102" on="1"/>
        <pt x="309" y="1473" on="1"/>
        <pt x="1337" y="1473" on="1"/>
        <pt x="1337" y="1102" on="1"/>
        <pt x="1317" y="1102" on="1"/>
        <pt x="1243" y="1102" on="0"/>
        <pt x="1214" y="1044" on="0"/>
        <pt x="1237" y="989" on="1"/>
        <pt x="1442" y="483" on="1"/>
        <pt x="1454" y="455" on="0"/>
        <pt x="1473" y="414" on="0"/>
        <pt x="1501" y="385" on="0"/>
        <pt x="1548" y="371" on="0"/>
        <pt x="1585" y="371" on="1"/>
        <pt x="1626" y="371" on="1"/>
        <pt x="1626" y="0" on="1"/>
        <pt x="1493" y="-59" on="0"/>
        <pt x="1391" y="-176" on="0"/>
        <pt x="1391" y="-236" on="1"/>
        <pt x="1391" y="-283" on="0"/>
        <pt x="1432" y="-315" on="0"/>
        <pt x="1460" y="-315" on="1"/>
        <pt x="1509" y="-315" on="0"/>
        <pt x="1563" y="-242" on="1"/>
        <pt x="1667" y="-326" on="1"/>
        <pt x="1595" y="-412" on="0"/>
        <pt x="1442" y="-487" on="0"/>
        <pt x="1364" y="-487" on="1"/>
        <pt x="1249" y="-487" on="0"/>
        <pt x="1151" y="-385" on="0"/>
        <pt x="1151" y="-315" on="1"/>
        <pt x="1151" y="-231" on="0"/>
        <pt x="1276" y="-72" on="0"/>
        <pt x="1423" y="0" on="1"/>
        <pt x="717" y="0" on="1"/>
        <pt x="717" y="371" on="1"/>
        <pt x="772" y="371" on="1"/>
        <pt x="829" y="371" on="0"/>
        <pt x="868" y="428" on="0"/>
        <pt x="852" y="471" on="1"/>
      </contour>
      <contour>
        <pt x="573" y="670" on="1"/>
        <pt x="786" y="670" on="1"/>
        <pt x="686" y="977" on="1"/>
        <pt x="678" y="977" on="1"/>
      </contour>
    </TTGlyph>
    <TTGlyph name="Aring" xMin="20" yMin="0" xMax="1626" yMax="2046">
      <component glyphName="A" x="0" y="0" flags="0x1204"/>
      <component glyphName="ring" x="295" y="295" flags="0x1004"/>
    </TTGlyph>
    <TTGlyph name="Atilde" xMin="20" yMin="0" xMax="1626" yMax="1861">
      <component glyphName="A" x="0" y="0" flags="0x1204"/>
      <component glyphName="tilde" x="295" y="315" flags="0x1004"/>
    </TTGlyph>
    <TTGlyph name="B" xMin="41" yMin="0" xMax="1681" yMax="1473">
      <contour>
        <pt x="1640" y="1106" on="1"/>
        <pt x="1640" y="786" on="0"/>
        <pt x="1307" y="756" on="1"/>
        <pt x="1307" y="745" on="1"/>
        <pt x="1481" y="741" on="0"/>
        <pt x="1681" y="559" on="0"/>
        <pt x="1681" y="387" on="1"/>
        <pt x="1681" y="315" on="0"/>
        <pt x="1647" y="176" on="0"/>
        <pt x="1534" y="68" on="0"/>
        <pt x="1321" y="0" on="0"/>
        <pt x="1141" y="0" on="1"/>
        <pt x="41" y="0" on="1"/>
        <pt x="41" y="371" on="1"/>
        <pt x="129" y="371" on="0"/>
        <pt x="205" y="418" on="0"/>
        <pt x="205" y="483" on="1"/>
        <pt x="205" y="989" on="1"/>
        <pt x="205" y="1055" on="0"/>
        <pt x="129" y="1102" on="0"/>
        <pt x="41" y="1102" on="1"/>
        <pt x="41" y="1473" on="1"/>
        <pt x="1210" y="1473" on="1"/>
        <pt x="1348" y="1473" on="0"/>
        <pt x="1518" y="1411" on="0"/>
        <pt x="1610" y="1309" on="0"/>
        <pt x="1640" y="1176" on="0"/>
      </contour>
      <contour>
        <pt x="944" y="371" on="1"/>
        <pt x="1028" y="371" on="0"/>
        <pt x="1092" y="436" on="0"/>
        <pt x="1092" y="512" on="1"/>
        <pt x="1092" y="588" on="0"/>
        <pt x="1028" y="657" on="0"/>
        <pt x="944" y="657" on="1"/>
        <pt x="795" y="657" on="1"/>
        <pt x="795" y="371" on="1"/>
      </contour>
      <contour>
        <pt x="795" y="834" on="1"/>
        <pt x="946" y="834" on="1"/>
        <pt x="1008" y="834" on="0"/>
        <pt x="1063" y="913" on="0"/>
        <pt x="1063" y="969" on="1"/>
        <pt x="1063" y="1022" on="0"/>
        <pt x="1008" y="1102" on="0"/>
        <pt x="946" y="1102" on="1"/>
        <pt x="795" y="1102" on="1"/>
      </contour>
    </TTGlyph>
    <TTGlyph name="C" xMin="51" yMin="-43" xMax="1534" yMax="1513">
      <contour>
        <pt x="799" y="1513" on="1"/>
        <pt x="866" y="1513" on="0"/>
        <pt x="983" y="1491" on="0"/>
        <pt x="1079" y="1456" on="0"/>
        <pt x="1149" y="1417" on="0"/>
        <pt x="1171" y="1401" on="1"/>
        <pt x="1171" y="1473" on="1"/>
        <pt x="1501" y="1473" on="1"/>
        <pt x="1501" y="928" on="1"/>
        <pt x="1151" y="928" on="1"/>
        <pt x="1151" y="995" on="0"/>
        <pt x="1118" y="1085" on="0"/>
        <pt x="1063" y="1141" on="0"/>
        <pt x="989" y="1165" on="0"/>
        <pt x="946" y="1165" on="1"/>
        <pt x="887" y="1165" on="0"/>
        <pt x="803" y="1120" on="0"/>
        <pt x="750" y="1020" on="0"/>
        <pt x="723" y="854" on="0"/>
        <pt x="723" y="735" on="1"/>
        <pt x="723" y="614" on="0"/>
        <pt x="752" y="451" on="0"/>
        <pt x="811" y="350" on="0"/>
        <pt x="903" y="305" on="0"/>
        <pt x="967" y="305" on="1"/>
        <pt x="1010" y="305" on="0"/>
        <pt x="1090" y="338" on="0"/>
        <pt x="1151" y="406" on="0"/>
        <pt x="1186" y="508" on="0"/>
        <pt x="1186" y="580" on="1"/>
        <pt x="1534" y="580" on="1"/>
        <pt x="1534" y="453" on="0"/>
        <pt x="1454" y="227" on="0"/>
        <pt x="1284" y="57" on="0"/>
        <pt x="1022" y="-43" on="0"/>
        <pt x="842" y="-43" on="1"/>
        <pt x="680" y="-43" on="0"/>
        <pt x="391" y="45" on="0"/>
        <pt x="176" y="233" on="0"/>
        <pt x="51" y="528" on="0"/>
        <pt x="51" y="735" on="1"/>
        <pt x="51" y="942" on="0"/>
        <pt x="178" y="1237" on="0"/>
        <pt x="387" y="1425" on="0"/>
        <pt x="655" y="1513" on="0"/>
      </contour>
    </TTGlyph>
    <TTGlyph name="Cacute" xMin="51" yMin="-43" xMax="1534" yMax="1904">
      <component glyphName="C" x="0" y="0" flags="0x1204"/>
      <component glyphName="acute" x="385" y="356" flags="0x1004"/>
    </TTGlyph>
    <TTGlyph name="Ccaron" xMin="51" yMin="-43" xMax="1534" yMax="1904">
      <component glyphName="C" x="0" y="0" flags="0x1204"/>
      <component glyphName="caron" x="299" y="356" flags="0x1004"/>
    </TTGlyph>
    <TTGlyph name="Ccedilla" xMin="51" yMin="-508" xMax="1534" yMax="1513">
      <component glyphName="C" x="0" y="0" flags="0x1204"/>
      <component glyphName="cedilla" x="317" y="-19" flags="0x1004"/>
    </TTGlyph>
    <TTGlyph name="Ccircumflex" xMin="51" yMin="-43" xMax="1534" yMax="1904">
      <component glyphName="C" x="0" y="0" flags="0x1204"/>
      <component glyphName="circumflex" x="299" y="356" flags="0x1004"/>
    </TTGlyph>
    <TTGlyph name="Cdotaccent" xMin="51" yMin="-43" xMax="1534" yMax="1929">
      <component glyphName="C" x="0" y="0" flags="0x1204"/>
      <component glyphName="dotaccent" x="299" y="356" flags="0x1004"/>
    </TTGlyph>
    <TTGlyph name="D" xMin="41" yMin="-2" xMax="1849" yMax="1473">
      <contour>
        <pt x="889" y="371" on="1"/>
        <pt x="944" y="371" on="0"/>
        <pt x="1049" y="395" on="0"/>
        <pt x="1128" y="471" on="0"/>
        <pt x="1178" y="614" on="0"/>
        <pt x="1178" y="735" on="1"/>
        <pt x="1178" y="854" on="0"/>
        <pt x="1130" y="999" on="0"/>
        <pt x="1053" y="1077" on="0"/>
        <pt x="946" y="1102" on="0"/>
        <pt x="889" y="1102" on="1"/>
        <pt x="795" y="1102" on="1"/>
        <pt x="795" y="371" on="1"/>
      </contour>
      <contour>
        <pt x="41" y="0" on="1"/>
        <pt x="41" y="371" on="1"/>
        <pt x="129" y="371" on="0"/>
        <pt x="205" y="418" on="0"/>
        <pt x="205" y="483" on="1"/>
        <pt x="205" y="989" on="1"/>
        <pt x="205" y="1055" on="0"/>
        <pt x="129" y="1102" on="0"/>
        <pt x="41" y="1102" on="1"/>
        <pt x="41" y="1473" on="1"/>
        <pt x="1102" y="1473" on="1"/>
        <pt x="1245" y="1473" on="0"/>
        <pt x="1513" y="1397" on="0"/>
        <pt x="1722" y="1225" on="0"/>
        <pt x="1849" y="942" on="0"/>
        <pt x="1849" y="735" on="1"/>
        <pt x="1849" y="528" on="0"/>
        <pt x="1724" y="246" on="0"/>
        <pt x="1509" y="74" on="0"/>
        <pt x="1221" y="-2" on="0"/>
        <pt x="1059" y="-2" on="1"/>
      </contour>
    </TTGlyph>
    <TTGlyph name="Dcaron" xMin="41" yMin="-2" xMax="1849" yMax="1863">
      <component glyphName="D" x="0" y="0" flags="0x1204"/>
      <component glyphName="caron" x="319" y="315" flags="0x1004"/>
    </TTGlyph>
    <TTGlyph name="Dcroat" xMin="41" yMin="-2" xMax="1849" yMax="1473">
      <contour>
        <pt x="41" y="836" on="1"/>
        <pt x="205" y="836" on="1"/>
        <pt x="205" y="989" on="1"/>
        <pt x="205" y="1055" on="0"/>
        <pt x="129" y="1102" on="0"/>
        <pt x="41" y="1102" on="1"/>
        <pt x="41" y="1473" on="1"/>
        <pt x="1102" y="1473" on="1"/>
        <pt x="1245" y="1473" on="0"/>
        <pt x="1513" y="1397" on="0"/>
        <pt x="1722" y="1225" on="0"/>
        <pt x="1849" y="942" on="0"/>
        <pt x="1849" y="735" on="1"/>
        <pt x="1849" y="528" on="0"/>
        <pt x="1724" y="246" on="0"/>
        <pt x="1509" y="74" on="0"/>
        <pt x="1221" y="-2" on="0"/>
        <pt x="1059" y="-2" on="1"/>
        <pt x="41" y="0" on="1"/>
        <pt x="41" y="371" on="1"/>
        <pt x="129" y="371" on="0"/>
        <pt x="205" y="418" on="0"/>
        <pt x="205" y="483" on="1"/>
        <pt x="205" y="659" on="1"/>
        <pt x="41" y="659" on="1"/>
      </contour>
      <contour>
        <pt x="889" y="371" on="1"/>
        <pt x="944" y="371" on="0"/>
        <pt x="1049" y="395" on="0"/>
        <pt x="1128" y="471" on="0"/>
        <pt x="1178" y="614" on="0"/>
        <pt x="1178" y="735" on="1"/>
        <pt x="1178" y="854" on="0"/>
        <pt x="1130" y="999" on="0"/>
        <pt x="1053" y="1077" on="0"/>
        <pt x="946" y="1102" on="0"/>
        <pt x="889" y="1102" on="1"/>
        <pt x="795" y="1102" on="1"/>
        <pt x="795" y="836" on="1"/>
        <pt x="1014" y="836" on="1"/>
        <pt x="1014" y="659" on="1"/>
        <pt x="795" y="659" on="1"/>
        <pt x="795" y="371" on="1"/>
      </contour>
    </TTGlyph>
    <TTGlyph name="E" xMin="41" yMin="0" xMax="1466" yMax="1473">
      <contour>
        <pt x="975" y="371" on="1"/>
        <pt x="1016" y="371" on="0"/>
        <pt x="1071" y="385" on="0"/>
        <pt x="1104" y="424" on="0"/>
        <pt x="1116" y="492" on="0"/>
        <pt x="1116" y="545" on="1"/>
        <pt x="1466" y="545" on="1"/>
        <pt x="1466" y="0" on="1"/>
        <pt x="41" y="0" on="1"/>
        <pt x="41" y="371" on="1"/>
        <pt x="129" y="371" on="0"/>
        <pt x="205" y="418" on="0"/>
        <pt x="205" y="483" on="1"/>
        <pt x="205" y="989" on="1"/>
        <pt x="205" y="1055" on="0"/>
        <pt x="129" y="1102" on="0"/>
        <pt x="41" y="1102" on="1"/>
        <pt x="41" y="1473" on="1"/>
        <pt x="1466" y="1473" on="1"/>
        <pt x="1466" y="928" on="1"/>
        <pt x="1116" y="928" on="1"/>
        <pt x="1116" y="981" on="0"/>
        <pt x="1104" y="1049" on="0"/>
        <pt x="1071" y="1087" on="0"/>
        <pt x="1016" y="1102" on="0"/>
        <pt x="975" y="1102" on="1"/>
        <pt x="795" y="1102" on="1"/>
        <pt x="795" y="836" on="1"/>
        <pt x="1114" y="836" on="1"/>
        <pt x="1114" y="659" on="1"/>
        <pt x="795" y="659" on="1"/>
        <pt x="795" y="371" on="1"/>
      </contour>
    </TTGlyph>
    <TTGlyph name="Eacute" xMin="41" yMin="0" xMax="1466" yMax="1863">
      <component glyphName="E" x="0" y="0" flags="0x1204"/>
      <component glyphName="acute" x="336" y="315" flags="0x1004"/>
    </TTGlyph>
    <TTGlyph name="Ebreve" xMin="41" yMin="0" xMax="1466" yMax="1863">
      <component glyphName="E" x="0" y="0" flags="0x1204"/>
      <component glyphName="breve" x="250" y="315" flags="0x1004"/>
    </TTGlyph>
    <TTGlyph name="Ecaron" xMin="41" yMin="0" xMax="1466" yMax="1863">
      <component glyphName="E" x="0" y="0" flags="0x1204"/>
      <component glyphName="caron" x="250" y="315" flags="0x1004"/>
    </TTGlyph>
    <TTGlyph name="Ecircumflex" xMin="41" yMin="0" xMax="1466" yMax="1863">
      <component glyphName="E" x="0" y="0" flags="0x1204"/>
      <component glyphName="circumflex" x="250" y="315" flags="0x1004"/>
    </TTGlyph>
    <TTGlyph name="Edieresis" xMin="41" yMin="0" xMax="1466" yMax="1861">
      <component glyphName="E" x="0" y="0" flags="0x1204"/>
      <component glyphName="dieresis" x="250" y="315" flags="0x1004"/>
    </TTGlyph>
    <TTGlyph name="Edotaccent" xMin="41" yMin="0" xMax="1466" yMax="1888">
      <component glyphName="E" x="0" y="0" flags="0x1204"/>
      <component glyphName="dotaccent" x="250" y="315" flags="0x1004"/>
    </TTGlyph>
    <TTGlyph name="Egrave" xMin="41" yMin="0" xMax="1466" yMax="1863">
      <component glyphName="E" x="0" y="0" flags="0x1204"/>
      <component glyphName="grave" x="242" y="315" flags="0x1004"/>
    </TTGlyph>
    <TTGlyph name="Emacron" xMin="41" yMin="0" xMax="1466" yMax="1822">
      <component glyphName="E" x="0" y="0" flags="0x1204"/>
      <component glyphName="macron" x="250" y="315" flags="0x1004"/>
    </TTGlyph>
    <TTGlyph name="Eng" xMin="41" yMin="-512" xMax="1831" yMax="1473">
      <contour>
        <pt x="565" y="817" on="1"/>
        <pt x="565" y="471" on="1"/>
        <pt x="565" y="406" on="0"/>
        <pt x="641" y="371" on="0"/>
        <pt x="729" y="371" on="1"/>
        <pt x="729" y="0" on="1"/>
        <pt x="41" y="0" on="1"/>
        <pt x="41" y="371" on="1"/>
        <pt x="129" y="371" on="0"/>
        <pt x="205" y="418" on="0"/>
        <pt x="205" y="483" on="1"/>
        <pt x="205" y="989" on="1"/>
        <pt x="205" y="1055" on="0"/>
        <pt x="129" y="1102" on="0"/>
        <pt x="41" y="1102" on="1"/>
        <pt x="41" y="1473" on="1"/>
        <pt x="827" y="1473" on="1"/>
        <pt x="1327" y="731" on="1"/>
        <pt x="1327" y="989" on="1"/>
        <pt x="1327" y="1055" on="0"/>
        <pt x="1272" y="1102" on="0"/>
        <pt x="1184" y="1102" on="1"/>
        <pt x="1184" y="1473" on="1"/>
        <pt x="1831" y="1473" on="1"/>
        <pt x="1831" y="1102" on="1"/>
        <pt x="1743" y="1102" on="0"/>
        <pt x="1688" y="1044" on="0"/>
        <pt x="1688" y="989" on="1"/>
        <pt x="1688" y="55" on="1"/>
        <pt x="1688" y="-63" on="0"/>
        <pt x="1636" y="-270" on="0"/>
        <pt x="1458" y="-424" on="0"/>
        <pt x="1116" y="-512" on="0"/>
        <pt x="827" y="-512" on="1"/>
        <pt x="827" y="-203" on="1"/>
        <pt x="907" y="-203" on="0"/>
        <pt x="1034" y="-199" on="0"/>
        <pt x="1126" y="-170" on="0"/>
        <pt x="1176" y="-113" on="0"/>
        <pt x="1176" y="-57" on="1"/>
      </contour>
    </TTGlyph>
    <TTGlyph name="Eogonek" xMin="41" yMin="-487" xMax="1507" yMax="1473">
      <contour>
        <pt x="975" y="371" on="1"/>
        <pt x="1016" y="371" on="0"/>
        <pt x="1071" y="385" on="0"/>
        <pt x="1104" y="424" on="0"/>
        <pt x="1116" y="492" on="0"/>
        <pt x="1116" y="545" on="1"/>
        <pt x="1466" y="545" on="1"/>
        <pt x="1466" y="0" on="1"/>
        <pt x="1231" y="-111" on="0"/>
        <pt x="1231" y="-236" on="1"/>
        <pt x="1231" y="-283" on="0"/>
        <pt x="1272" y="-315" on="0"/>
        <pt x="1300" y="-315" on="1"/>
        <pt x="1350" y="-315" on="0"/>
        <pt x="1403" y="-242" on="1"/>
        <pt x="1507" y="-326" on="1"/>
        <pt x="1436" y="-412" on="0"/>
        <pt x="1282" y="-487" on="0"/>
        <pt x="1204" y="-487" on="1"/>
        <pt x="1090" y="-487" on="0"/>
        <pt x="991" y="-385" on="0"/>
        <pt x="991" y="-315" on="1"/>
        <pt x="991" y="-231" on="0"/>
        <pt x="1122" y="-70" on="0"/>
        <pt x="1264" y="0" on="1"/>
        <pt x="41" y="0" on="1"/>
        <pt x="41" y="371" on="1"/>
        <pt x="129" y="371" on="0"/>
        <pt x="205" y="418" on="0"/>
        <pt x="205" y="483" on="1"/>
        <pt x="205" y="989" on="1"/>
        <pt x="205" y="1055" on="0"/>
        <pt x="129" y="1102" on="0"/>
        <pt x="41" y="1102" on="1"/>
        <pt x="41" y="1473" on="1"/>
        <pt x="1466" y="1473" on="1"/>
        <pt x="1466" y="928" on="1"/>
        <pt x="1116" y="928" on="1"/>
        <pt x="1116" y="981" on="0"/>
        <pt x="1104" y="1049" on="0"/>
        <pt x="1071" y="1087" on="0"/>
        <pt x="1016" y="1102" on="0"/>
        <pt x="975" y="1102" on="1"/>
        <pt x="795" y="1102" on="1"/>
        <pt x="795" y="836" on="1"/>
        <pt x="1114" y="836" on="1"/>
        <pt x="1114" y="659" on="1"/>
        <pt x="795" y="659" on="1"/>
        <pt x="795" y="371" on="1"/>
      </contour>
    </TTGlyph>
    <TTGlyph name="Eth" xMin="41" yMin="-2" xMax="1849" yMax="1473">
      <contour>
        <pt x="41" y="836" on="1"/>
        <pt x="205" y="836" on="1"/>
        <pt x="205" y="989" on="1"/>
        <pt x="205" y="1055" on="0"/>
        <pt x="129" y="1102" on="0"/>
        <pt x="41" y="1102" on="1"/>
        <pt x="41" y="1473" on="1"/>
        <pt x="1102" y="1473" on="1"/>
        <pt x="1245" y="1473" on="0"/>
        <pt x="1513" y="1397" on="0"/>
        <pt x="1722" y="1225" on="0"/>
        <pt x="1849" y="942" on="0"/>
        <pt x="1849" y="735" on="1"/>
        <pt x="1849" y="528" on="0"/>
        <pt x="1724" y="246" on="0"/>
        <pt x="1509" y="74" on="0"/>
        <pt x="1221" y="-2" on="0"/>
        <pt x="1059" y="-2" on="1"/>
        <pt x="41" y="0" on="1"/>
        <pt x="41" y="371" on="1"/>
        <pt x="129" y="371" on="0"/>
        <pt x="205" y="418" on="0"/>
        <pt x="205" y="483" on="1"/>
        <pt x="205" y="659" on="1"/>
        <pt x="41" y="659" on="1"/>
      </contour>
      <contour>
        <pt x="889" y="371" on="1"/>
        <pt x="944" y="371" on="0"/>
        <pt x="1049" y="395" on="0"/>
        <pt x="1128" y="471" on="0"/>
        <pt x="1178" y="614" on="0"/>
        <pt x="1178" y="735" on="1"/>
        <pt x="1178" y="854" on="0"/>
        <pt x="1130" y="999" on="0"/>
        <pt x="1053" y="1077" on="0"/>
        <pt x="946" y="1102" on="0"/>
        <pt x="889" y="1102" on="1"/>
        <pt x="795" y="1102" on="1"/>
        <pt x="795" y="836" on="1"/>
        <pt x="1014" y="836" on="1"/>
        <pt x="1014" y="659" on="1"/>
        <pt x="795" y="659" on="1"/>
        <pt x="795" y="371" on="1"/>
      </contour>
    </TTGlyph>
    <TTGlyph name="Euro" xMin="0" yMin="-23" xMax="1536" yMax="1497">
      <contour>
        <pt x="162" y="989" on="1"/>
        <pt x="195" y="1124" on="0"/>
        <pt x="336" y="1317" on="0"/>
        <pt x="524" y="1440" on="0"/>
        <pt x="754" y="1497" on="0"/>
        <pt x="877" y="1497" on="1"/>
        <pt x="989" y="1497" on="0"/>
        <pt x="1167" y="1436" on="0"/>
        <pt x="1221" y="1399" on="1"/>
        <pt x="1221" y="1473" on="1"/>
        <pt x="1518" y="1473" on="1"/>
        <pt x="1518" y="913" on="1"/>
        <pt x="1518" y="889" on="1"/>
        <pt x="1208" y="889" on="1"/>
        <pt x="1208" y="901" on="1"/>
        <pt x="1206" y="967" on="0"/>
        <pt x="1169" y="1063" on="0"/>
        <pt x="1108" y="1126" on="0"/>
        <pt x="1032" y="1157" on="0"/>
        <pt x="989" y="1157" on="1"/>
        <pt x="911" y="1157" on="0"/>
        <pt x="803" y="1081" on="0"/>
        <pt x="774" y="989" on="1"/>
        <pt x="1051" y="989" on="1"/>
        <pt x="1010" y="786" on="1"/>
        <pt x="743" y="786" on="1"/>
        <pt x="743" y="737" on="1"/>
        <pt x="743" y="702" on="1"/>
        <pt x="989" y="702" on="1"/>
        <pt x="948" y="500" on="1"/>
        <pt x="766" y="500" on="1"/>
        <pt x="791" y="401" on="0"/>
        <pt x="909" y="317" on="0"/>
        <pt x="999" y="317" on="1"/>
        <pt x="1042" y="317" on="0"/>
        <pt x="1126" y="348" on="0"/>
        <pt x="1190" y="414" on="0"/>
        <pt x="1229" y="516" on="0"/>
        <pt x="1229" y="586" on="1"/>
        <pt x="1536" y="586" on="1"/>
        <pt x="1536" y="463" on="0"/>
        <pt x="1468" y="242" on="0"/>
        <pt x="1315" y="76" on="0"/>
        <pt x="1065" y="-23" on="0"/>
        <pt x="885" y="-23" on="1"/>
        <pt x="748" y="-23" on="0"/>
        <pt x="510" y="37" on="0"/>
        <pt x="319" y="164" on="0"/>
        <pt x="186" y="360" on="0"/>
        <pt x="156" y="500" on="1"/>
        <pt x="0" y="500" on="1"/>
        <pt x="41" y="702" on="1"/>
        <pt x="133" y="702" on="1"/>
        <pt x="133" y="737" on="1"/>
        <pt x="133" y="786" on="1"/>
        <pt x="0" y="786" on="1"/>
        <pt x="41" y="989" on="1"/>
      </contour>
    </TTGlyph>
    <TTGlyph name="F" xMin="41" yMin="0" xMax="1425" yMax="1473">
      <contour>
        <pt x="41" y="0" on="1"/>
        <pt x="41" y="371" on="1"/>
        <pt x="129" y="371" on="0"/>
        <pt x="205" y="418" on="0"/>
        <pt x="205" y="483" on="1"/>
        <pt x="205" y="989" on="1"/>
        <pt x="205" y="1055" on="0"/>
        <pt x="129" y="1102" on="0"/>
        <pt x="41" y="1102" on="1"/>
        <pt x="41" y="1473" on="1"/>
        <pt x="1425" y="1473" on="1"/>
        <pt x="1425" y="907" on="1"/>
        <pt x="1075" y="907" on="1"/>
        <pt x="1075" y="969" on="0"/>
        <pt x="1063" y="1044" on="0"/>
        <pt x="1030" y="1087" on="0"/>
        <pt x="975" y="1102" on="0"/>
        <pt x="934" y="1102" on="1"/>
        <pt x="795" y="1102" on="1"/>
        <pt x="795" y="813" on="1"/>
        <pt x="1114" y="813" on="1"/>
        <pt x="1114" y="637" on="1"/>
        <pt x="795" y="637" on="1"/>
        <pt x="795" y="483" on="1"/>
        <pt x="795" y="430" on="0"/>
        <pt x="848" y="371" on="0"/>
        <pt x="918" y="371" on="1"/>
        <pt x="1020" y="371" on="1"/>
        <pt x="1020" y="0" on="1"/>
      </contour>
    </TTGlyph>
    <TTGlyph name="G" xMin="31" yMin="-43" xMax="1753" yMax="1513">
      <contour>
        <pt x="1282" y="0" on="1"/>
        <pt x="1249" y="100" on="1"/>
        <pt x="1186" y="43" on="0"/>
        <pt x="965" y="-43" on="0"/>
        <pt x="821" y="-43" on="1"/>
        <pt x="659" y="-43" on="0"/>
        <pt x="371" y="45" on="0"/>
        <pt x="156" y="233" on="0"/>
        <pt x="31" y="528" on="0"/>
        <pt x="31" y="735" on="1"/>
        <pt x="31" y="942" on="0"/>
        <pt x="164" y="1237" on="0"/>
        <pt x="381" y="1425" on="0"/>
        <pt x="655" y="1513" on="0"/>
        <pt x="799" y="1513" on="1"/>
        <pt x="883" y="1513" on="0"/>
        <pt x="1018" y="1487" on="0"/>
        <pt x="1120" y="1448" on="0"/>
        <pt x="1190" y="1405" on="0"/>
        <pt x="1212" y="1391" on="1"/>
        <pt x="1212" y="1473" on="1"/>
        <pt x="1542" y="1473" on="1"/>
        <pt x="1542" y="928" on="1"/>
        <pt x="1192" y="928" on="1"/>
        <pt x="1188" y="1034" on="0"/>
        <pt x="1069" y="1165" on="0"/>
        <pt x="963" y="1165" on="1"/>
        <pt x="909" y="1165" on="0"/>
        <pt x="815" y="1126" on="0"/>
        <pt x="743" y="1028" on="0"/>
        <pt x="702" y="862" on="0"/>
        <pt x="702" y="735" on="1"/>
        <pt x="702" y="614" on="0"/>
        <pt x="729" y="451" on="0"/>
        <pt x="786" y="350" on="0"/>
        <pt x="874" y="305" on="0"/>
        <pt x="936" y="305" on="1"/>
        <pt x="950" y="305" on="0"/>
        <pt x="993" y="311" on="0"/>
        <pt x="1032" y="326" on="0"/>
        <pt x="1061" y="350" on="0"/>
        <pt x="1061" y="371" on="1"/>
        <pt x="1061" y="426" on="1"/>
        <pt x="1061" y="473" on="0"/>
        <pt x="997" y="522" on="0"/>
        <pt x="909" y="522" on="1"/>
        <pt x="909" y="852" on="1"/>
        <pt x="1753" y="852" on="1"/>
        <pt x="1753" y="522" on="1"/>
        <pt x="1665" y="522" on="0"/>
        <pt x="1589" y="475" on="0"/>
        <pt x="1589" y="410" on="1"/>
        <pt x="1589" y="0" on="1"/>
      </contour>
    </TTGlyph>
    <TTGlyph name="Gbreve" xMin="31" yMin="-43" xMax="1753" yMax="1904">
      <component glyphName="G" x="0" y="0" flags="0x1204"/>
      <component glyphName="breve" x="305" y="356" flags="0x1004"/>
    </TTGlyph>
    <TTGlyph name="Gcircumflex" xMin="31" yMin="-43" xMax="1753" yMax="1904">
      <component glyphName="G" x="0" y="0" flags="0x1204"/>
      <component glyphName="circumflex" x="305" y="356" flags="0x1004"/>
    </TTGlyph>
    <TTGlyph name="Gcommaaccent" xMin="31" yMin="-512" xMax="1753" yMax="1513">
      <component glyphName="G" x="0" y="0" flags="0x1204"/>
      <component glyphName="commaaccent" x="385" y="0" flags="0x1004"/>
    </TTGlyph>
    <TTGlyph name="Gdotaccent" xMin="31" yMin="-43" xMax="1753" yMax="1929">
      <component glyphName="G" x="0" y="0" flags="0x1204"/>
      <component glyphName="dotaccent" x="305" y="356" flags="0x1004"/>
    </TTGlyph>
    <TTGlyph name="H" xMin="41" yMin="0" xMax="1892" yMax="1473">
      <contour>
        <pt x="1139" y="657" on="1"/>
        <pt x="795" y="657" on="1"/>
        <pt x="795" y="471" on="1"/>
        <pt x="795" y="418" on="0"/>
        <pt x="854" y="371" on="0"/>
        <pt x="930" y="371" on="1"/>
        <pt x="930" y="0" on="1"/>
        <pt x="41" y="0" on="1"/>
        <pt x="41" y="371" on="1"/>
        <pt x="129" y="371" on="0"/>
        <pt x="205" y="418" on="0"/>
        <pt x="205" y="483" on="1"/>
        <pt x="205" y="989" on="1"/>
        <pt x="205" y="1055" on="0"/>
        <pt x="129" y="1102" on="0"/>
        <pt x="41" y="1102" on="1"/>
        <pt x="41" y="1473" on="1"/>
        <pt x="930" y="1473" on="1"/>
        <pt x="930" y="1102" on="1"/>
        <pt x="854" y="1102" on="0"/>
        <pt x="795" y="1055" on="0"/>
        <pt x="795" y="1001" on="1"/>
        <pt x="795" y="840" on="1"/>
        <pt x="1139" y="840" on="1"/>
        <pt x="1139" y="1001" on="1"/>
        <pt x="1139" y="1055" on="0"/>
        <pt x="1079" y="1102" on="0"/>
        <pt x="1004" y="1102" on="1"/>
        <pt x="1004" y="1473" on="1"/>
        <pt x="1892" y="1473" on="1"/>
        <pt x="1892" y="1102" on="1"/>
        <pt x="1804" y="1102" on="0"/>
        <pt x="1729" y="1055" on="0"/>
        <pt x="1729" y="989" on="1"/>
        <pt x="1729" y="483" on="1"/>
        <pt x="1729" y="418" on="0"/>
        <pt x="1804" y="371" on="0"/>
        <pt x="1892" y="371" on="1"/>
        <pt x="1892" y="0" on="1"/>
        <pt x="1004" y="0" on="1"/>
        <pt x="1004" y="371" on="1"/>
        <pt x="1079" y="371" on="0"/>
        <pt x="1139" y="418" on="0"/>
        <pt x="1139" y="471" on="1"/>
      </contour>
    </TTGlyph>
    <TTGlyph name="Hbar" xMin="0" yMin="0" xMax="1933" yMax="1473">
      <contour>
        <pt x="0" y="1028" on="1"/>
        <pt x="201" y="1028" on="1"/>
        <pt x="190" y="1069" on="0"/>
        <pt x="113" y="1102" on="0"/>
        <pt x="41" y="1102" on="1"/>
        <pt x="41" y="1473" on="1"/>
        <pt x="930" y="1473" on="1"/>
        <pt x="930" y="1102" on="1"/>
        <pt x="864" y="1102" on="0"/>
        <pt x="803" y="1067" on="0"/>
        <pt x="797" y="1028" on="1"/>
        <pt x="1137" y="1028" on="1"/>
        <pt x="1128" y="1067" on="0"/>
        <pt x="1069" y="1102" on="0"/>
        <pt x="1004" y="1102" on="1"/>
        <pt x="1004" y="1473" on="1"/>
        <pt x="1892" y="1473" on="1"/>
        <pt x="1892" y="1102" on="1"/>
        <pt x="1819" y="1102" on="0"/>
        <pt x="1743" y="1069" on="0"/>
        <pt x="1733" y="1028" on="1"/>
        <pt x="1933" y="1028" on="1"/>
        <pt x="1933" y="852" on="1"/>
        <pt x="1729" y="852" on="1"/>
        <pt x="1729" y="483" on="1"/>
        <pt x="1729" y="418" on="0"/>
        <pt x="1804" y="371" on="0"/>
        <pt x="1892" y="371" on="1"/>
        <pt x="1892" y="0" on="1"/>
        <pt x="1004" y="0" on="1"/>
        <pt x="1004" y="371" on="1"/>
        <pt x="1079" y="371" on="0"/>
        <pt x="1139" y="418" on="0"/>
        <pt x="1139" y="471" on="1"/>
        <pt x="1139" y="596" on="1"/>
        <pt x="795" y="596" on="1"/>
        <pt x="795" y="471" on="1"/>
        <pt x="795" y="418" on="0"/>
        <pt x="854" y="371" on="0"/>
        <pt x="930" y="371" on="1"/>
        <pt x="930" y="0" on="1"/>
        <pt x="41" y="0" on="1"/>
        <pt x="41" y="371" on="1"/>
        <pt x="129" y="371" on="0"/>
        <pt x="205" y="418" on="0"/>
        <pt x="205" y="483" on="1"/>
        <pt x="205" y="852" on="1"/>
        <pt x="0" y="852" on="1"/>
      </contour>
      <contour>
        <pt x="1139" y="778" on="1"/>
        <pt x="1139" y="852" on="1"/>
        <pt x="795" y="852" on="1"/>
        <pt x="795" y="778" on="1"/>
      </contour>
    </TTGlyph>
    <TTGlyph name="Hcircumflex" xMin="41" yMin="0" xMax="1892" yMax="1863">
      <component glyphName="H" x="0" y="0" flags="0x1204"/>
      <component glyphName="circumflex" x="455" y="315" flags="0x1004"/>
    </TTGlyph>
    <TTGlyph name="I" xMin="41" yMin="0" xMax="958" yMax="1473">
      <contour>
        <pt x="41" y="0" on="1"/>
        <pt x="41" y="371" on="1"/>
        <pt x="129" y="371" on="0"/>
        <pt x="205" y="418" on="0"/>
        <pt x="205" y="483" on="1"/>
        <pt x="205" y="989" on="1"/>
        <pt x="205" y="1055" on="0"/>
        <pt x="129" y="1102" on="0"/>
        <pt x="41" y="1102" on="1"/>
        <pt x="41" y="1473" on="1"/>
        <pt x="958" y="1473" on="1"/>
        <pt x="958" y="1102" on="1"/>
        <pt x="870" y="1102" on="0"/>
        <pt x="795" y="1055" on="0"/>
        <pt x="795" y="989" on="1"/>
        <pt x="795" y="483" on="1"/>
        <pt x="795" y="418" on="0"/>
        <pt x="870" y="371" on="0"/>
        <pt x="958" y="371" on="1"/>
        <pt x="958" y="0" on="1"/>
      </contour>
    </TTGlyph>
    <TTGlyph name="IJ" xMin="41" yMin="-41" xMax="2467" yMax="1473">
      <component glyphName="I" x="0" y="0" flags="0x1004"/>
      <component glyphName="J" x="999" y="0" flags="0x1004"/>
    </TTGlyph>
    <TTGlyph name="Iacute" xMin="41" yMin="0" xMax="985" yMax="1863">
      <component glyphName="I" x="0" y="0" flags="0x1204"/>
      <component glyphName="acute" x="78" y="315" flags="0x1004"/>
    </TTGlyph>
    <TTGlyph name="Ibreve" xMin="41" yMin="0" xMax="958" yMax="1863">
      <component glyphName="I" x="0" y="0" flags="0x1204"/>
      <component glyphName="breve" x="-7" y="315" flags="0x1004"/>
    </TTGlyph>
    <TTGlyph name="Icircumflex" xMin="41" yMin="0" xMax="958" yMax="1863">
      <component glyphName="I" x="0" y="0" flags="0x1204"/>
      <component glyphName="circumflex" x="-7" y="315" flags="0x1004"/>
    </TTGlyph>
    <TTGlyph name="Idieresis" xMin="41" yMin="0" xMax="958" yMax="1861">
      <component glyphName="I" x="0" y="0" flags="0x1204"/>
      <component glyphName="dieresis" x="-7" y="315" flags="0x1004"/>
    </TTGlyph>
    <TTGlyph name="Idotaccent" xMin="41" yMin="0" xMax="958" yMax="1888">
      <component glyphName="I" x="0" y="0" flags="0x1204"/>
      <component glyphName="dotaccent" x="-7" y="315" flags="0x1004"/>
    </TTGlyph>
    <TTGlyph name="Igrave" xMin="20" yMin="0" xMax="958" yMax="1863">
      <component glyphName="I" x="0" y="0" flags="0x1204"/>
      <component glyphName="grave" x="-15" y="315" flags="0x1004"/>
    </TTGlyph>
    <TTGlyph name="Imacron" xMin="41" yMin="0" xMax="958" yMax="1822">
      <component glyphName="I" x="0" y="0" flags="0x1204"/>
      <component glyphName="macron" x="-7" y="315" flags="0x1004"/>
    </TTGlyph>
    <TTGlyph name="Iogonek" xMin="41" yMin="-487" xMax="958" yMax="1473">
      <component glyphName="I" x="0" y="0" flags="0x1204"/>
      <component glyphName="ogonek" x="-54" y="0" flags="0x1004"/>
    </TTGlyph>
    <TTGlyph name="Itilde" xMin="41" yMin="0" xMax="958" yMax="1861">
      <component glyphName="I" x="0" y="0" flags="0x1204"/>
      <component glyphName="tilde" x="-7" y="315" flags="0x1004"/>
    </TTGlyph>
    <TTGlyph name="J" xMin="61" yMin="-41" xMax="1468" yMax="1473">
      <contour>
        <pt x="199" y="481" on="1"/>
        <pt x="201" y="440" on="0"/>
        <pt x="227" y="362" on="0"/>
        <pt x="283" y="303" on="0"/>
        <pt x="375" y="268" on="0"/>
        <pt x="444" y="268" on="1"/>
        <pt x="524" y="268" on="0"/>
        <pt x="629" y="311" on="0"/>
        <pt x="690" y="383" on="0"/>
        <pt x="715" y="475" on="0"/>
        <pt x="715" y="524" on="1"/>
        <pt x="715" y="1001" on="1"/>
        <pt x="715" y="1055" on="0"/>
        <pt x="645" y="1102" on="0"/>
        <pt x="539" y="1102" on="1"/>
        <pt x="539" y="1473" on="1"/>
        <pt x="1468" y="1473" on="1"/>
        <pt x="1468" y="1102" on="1"/>
        <pt x="1380" y="1102" on="0"/>
        <pt x="1305" y="1055" on="0"/>
        <pt x="1305" y="989" on="1"/>
        <pt x="1305" y="526" on="1"/>
        <pt x="1305" y="440" on="0"/>
        <pt x="1251" y="240" on="0"/>
        <pt x="1108" y="72" on="0"/>
        <pt x="858" y="-41" on="0"/>
        <pt x="662" y="-41" on="1"/>
        <pt x="477" y="-41" on="0"/>
        <pt x="242" y="61" on="0"/>
        <pt x="111" y="211" on="0"/>
        <pt x="61" y="377" on="0"/>
        <pt x="61" y="438" on="1"/>
        <pt x="61" y="526" on="0"/>
        <pt x="113" y="662" on="0"/>
        <pt x="195" y="752" on="0"/>
        <pt x="303" y="797" on="0"/>
        <pt x="362" y="797" on="1"/>
        <pt x="432" y="797" on="0"/>
        <pt x="530" y="756" on="0"/>
        <pt x="594" y="688" on="0"/>
        <pt x="623" y="602" on="0"/>
        <pt x="623" y="557" on="1"/>
        <pt x="623" y="508" on="0"/>
        <pt x="590" y="426" on="0"/>
        <pt x="535" y="367" on="0"/>
        <pt x="457" y="332" on="0"/>
        <pt x="414" y="332" on="1"/>
        <pt x="362" y="332" on="0"/>
        <pt x="291" y="358" on="0"/>
        <pt x="242" y="401" on="0"/>
        <pt x="209" y="455" on="0"/>
      </contour>
    </TTGlyph>
    <TTGlyph name="Jcircumflex" xMin="61" yMin="-41" xMax="1468" yMax="1863">
      <component glyphName="J" x="0" y="0" flags="0x1204"/>
      <component glyphName="circumflex" x="494" y="315" flags="0x1004"/>
    </TTGlyph>
    <TTGlyph name="K" xMin="41" yMin="0" xMax="1882" yMax="1473">
      <contour>
        <pt x="795" y="858" on="1"/>
        <pt x="993" y="981" on="1"/>
        <pt x="1030" y="1001" on="0"/>
        <pt x="1053" y="1044" on="0"/>
        <pt x="1042" y="1079" on="0"/>
        <pt x="1001" y="1102" on="0"/>
        <pt x="975" y="1102" on="1"/>
        <pt x="975" y="1473" on="1"/>
        <pt x="1782" y="1473" on="1"/>
        <pt x="1782" y="1102" on="1"/>
        <pt x="1718" y="1102" on="0"/>
        <pt x="1622" y="1075" on="0"/>
        <pt x="1563" y="1040" on="1"/>
        <pt x="1356" y="918" on="1"/>
        <pt x="1692" y="483" on="1"/>
        <pt x="1710" y="457" on="0"/>
        <pt x="1745" y="416" on="0"/>
        <pt x="1786" y="387" on="0"/>
        <pt x="1841" y="371" on="0"/>
        <pt x="1882" y="371" on="1"/>
        <pt x="1882" y="0" on="1"/>
        <pt x="975" y="0" on="1"/>
        <pt x="975" y="371" on="1"/>
        <pt x="1018" y="371" on="0"/>
        <pt x="1057" y="395" on="0"/>
        <pt x="1067" y="430" on="0"/>
        <pt x="1055" y="463" on="0"/>
        <pt x="1049" y="471" on="1"/>
        <pt x="905" y="651" on="1"/>
        <pt x="795" y="584" on="1"/>
        <pt x="795" y="471" on="1"/>
        <pt x="795" y="444" on="0"/>
        <pt x="799" y="408" on="0"/>
        <pt x="821" y="383" on="0"/>
        <pt x="864" y="371" on="0"/>
        <pt x="901" y="371" on="1"/>
        <pt x="901" y="0" on="1"/>
        <pt x="41" y="0" on="1"/>
        <pt x="41" y="371" on="1"/>
        <pt x="129" y="371" on="0"/>
        <pt x="205" y="418" on="0"/>
        <pt x="205" y="483" on="1"/>
        <pt x="205" y="989" on="1"/>
        <pt x="205" y="1055" on="0"/>
        <pt x="129" y="1102" on="0"/>
        <pt x="41" y="1102" on="1"/>
        <pt x="41" y="1473" on="1"/>
        <pt x="901" y="1473" on="1"/>
        <pt x="901" y="1102" on="1"/>
        <pt x="864" y="1102" on="0"/>
        <pt x="821" y="1090" on="0"/>
        <pt x="799" y="1065" on="0"/>
        <pt x="795" y="1028" on="0"/>
        <pt x="795" y="1001" on="1"/>
      </contour>
    </TTGlyph>
    <TTGlyph name="Kcommaaccent" xMin="41" yMin="-512" xMax="1882" yMax="1473">
      <component glyphName="K" x="0" y="0" flags="0x1204"/>
      <component glyphName="commaaccent" x="434" y="0" flags="0x1004"/>
    </TTGlyph>
    <TTGlyph name="L" xMin="41" yMin="0" xMax="1487" yMax="1473">
      <contour>
        <pt x="958" y="1102" on="1"/>
        <pt x="870" y="1102" on="0"/>
        <pt x="795" y="1055" on="0"/>
        <pt x="795" y="989" on="1"/>
        <pt x="795" y="371" on="1"/>
        <pt x="995" y="371" on="1"/>
        <pt x="1036" y="371" on="0"/>
        <pt x="1092" y="387" on="0"/>
        <pt x="1124" y="438" on="0"/>
        <pt x="1137" y="530" on="0"/>
        <pt x="1137" y="606" on="1"/>
        <pt x="1487" y="606" on="1"/>
        <pt x="1487" y="0" on="1"/>
        <pt x="41" y="0" on="1"/>
        <pt x="41" y="371" on="1"/>
        <pt x="129" y="371" on="0"/>
        <pt x="205" y="418" on="0"/>
        <pt x="205" y="483" on="1"/>
        <pt x="205" y="989" on="1"/>
        <pt x="205" y="1055" on="0"/>
        <pt x="129" y="1102" on="0"/>
        <pt x="41" y="1102" on="1"/>
        <pt x="41" y="1473" on="1"/>
        <pt x="958" y="1473" on="1"/>
      </contour>
    </TTGlyph>
    <TTGlyph name="Lacute" xMin="41" yMin="0" xMax="1487" yMax="1863">
      <component glyphName="L" x="0" y="0" flags="0x1204"/>
      <component glyphName="acute" x="68" y="315" flags="0x1004"/>
    </TTGlyph>
    <TTGlyph name="Lcaron" xMin="41" yMin="0" xMax="1487" yMax="1513">
      <component glyphName="L" x="0" y="0" flags="0x1204"/>
      <component glyphName="uni0315" x="1079" y="0" flags="0x1004"/>
    </TTGlyph>
    <TTGlyph name="Lcommaaccent" xMin="41" yMin="-512" xMax="1487" yMax="1473">
      <component glyphName="L" x="0" y="0" flags="0x1204"/>
      <component glyphName="commaaccent" x="252" y="0" flags="0x1004"/>
    </TTGlyph>
    <TTGlyph name="Ldot" xMin="41" yMin="0" xMax="1487" yMax="1473">
      <contour>
        <pt x="958" y="1102" on="1"/>
        <pt x="870" y="1102" on="0"/>
        <pt x="795" y="1055" on="0"/>
        <pt x="795" y="989" on="1"/>
        <pt x="795" y="371" on="1"/>
        <pt x="995" y="371" on="1"/>
        <pt x="1079" y="371" on="0"/>
        <pt x="1137" y="453" on="0"/>
        <pt x="1137" y="514" on="1"/>
        <pt x="1487" y="514" on="1"/>
        <pt x="1487" y="0" on="1"/>
        <pt x="41" y="0" on="1"/>
        <pt x="41" y="371" on="1"/>
        <pt x="129" y="371" on="0"/>
        <pt x="205" y="418" on="0"/>
        <pt x="205" y="483" on="1"/>
        <pt x="205" y="989" on="1"/>
        <pt x="205" y="1055" on="0"/>
        <pt x="129" y="1102" on="0"/>
        <pt x="41" y="1102" on="1"/>
        <pt x="41" y="1473" on="1"/>
        <pt x="958" y="1473" on="1"/>
      </contour>
      <contour>
        <pt x="1040" y="803" on="1"/>
        <pt x="1040" y="848" on="0"/>
        <pt x="1075" y="926" on="0"/>
        <pt x="1135" y="985" on="0"/>
        <pt x="1212" y="1020" on="0"/>
        <pt x="1257" y="1020" on="1"/>
        <pt x="1303" y="1020" on="0"/>
        <pt x="1382" y="985" on="0"/>
        <pt x="1442" y="926" on="0"/>
        <pt x="1477" y="848" on="0"/>
        <pt x="1477" y="803" on="1"/>
        <pt x="1477" y="758" on="0"/>
        <pt x="1442" y="678" on="0"/>
        <pt x="1382" y="618" on="0"/>
        <pt x="1303" y="584" on="0"/>
        <pt x="1257" y="584" on="1"/>
        <pt x="1212" y="584" on="0"/>
        <pt x="1135" y="618" on="0"/>
        <pt x="1075" y="678" on="0"/>
        <pt x="1040" y="758" on="0"/>
      </contour>
    </TTGlyph>
    <TTGlyph name="Lslash" xMin="-12" yMin="0" xMax="1487" yMax="1473">
      <contour>
        <pt x="958" y="1102" on="1"/>
        <pt x="870" y="1102" on="0"/>
        <pt x="795" y="1055" on="0"/>
        <pt x="795" y="989" on="1"/>
        <pt x="795" y="913" on="1"/>
        <pt x="1090" y="993" on="1"/>
        <pt x="1143" y="803" on="1"/>
        <pt x="795" y="709" on="1"/>
        <pt x="795" y="371" on="1"/>
        <pt x="995" y="371" on="1"/>
        <pt x="1036" y="371" on="0"/>
        <pt x="1092" y="387" on="0"/>
        <pt x="1124" y="438" on="0"/>
        <pt x="1137" y="530" on="0"/>
        <pt x="1137" y="606" on="1"/>
        <pt x="1487" y="606" on="1"/>
        <pt x="1487" y="0" on="1"/>
        <pt x="41" y="0" on="1"/>
        <pt x="41" y="371" on="1"/>
        <pt x="129" y="371" on="0"/>
        <pt x="205" y="418" on="0"/>
        <pt x="205" y="483" on="1"/>
        <pt x="205" y="551" on="1"/>
        <pt x="41" y="508" on="1"/>
        <pt x="-12" y="698" on="1"/>
        <pt x="205" y="756" on="1"/>
        <pt x="205" y="989" on="1"/>
        <pt x="205" y="1055" on="0"/>
        <pt x="129" y="1102" on="0"/>
        <pt x="41" y="1102" on="1"/>
        <pt x="41" y="1473" on="1"/>
        <pt x="958" y="1473" on="1"/>
      </contour>
    </TTGlyph>
    <TTGlyph name="M" xMin="41" yMin="0" xMax="2363" yMax="1473">
      <contour>
        <pt x="1477" y="0" on="1"/>
        <pt x="1477" y="371" on="1"/>
        <pt x="1565" y="371" on="0"/>
        <pt x="1620" y="418" on="0"/>
        <pt x="1620" y="483" on="1"/>
        <pt x="1620" y="1057" on="1"/>
        <pt x="1278" y="0" on="1"/>
        <pt x="893" y="0" on="1"/>
        <pt x="545" y="1001" on="1"/>
        <pt x="545" y="471" on="1"/>
        <pt x="545" y="438" on="0"/>
        <pt x="557" y="399" on="0"/>
        <pt x="588" y="377" on="0"/>
        <pt x="645" y="371" on="0"/>
        <pt x="688" y="371" on="1"/>
        <pt x="688" y="0" on="1"/>
        <pt x="41" y="0" on="1"/>
        <pt x="41" y="371" on="1"/>
        <pt x="129" y="371" on="0"/>
        <pt x="205" y="418" on="0"/>
        <pt x="205" y="483" on="1"/>
        <pt x="205" y="989" on="1"/>
        <pt x="205" y="1055" on="0"/>
        <pt x="129" y="1102" on="0"/>
        <pt x="41" y="1102" on="1"/>
        <pt x="41" y="1473" on="1"/>
        <pt x="993" y="1473" on="1"/>
        <pt x="1223" y="782" on="1"/>
        <pt x="1423" y="1473" on="1"/>
        <pt x="2363" y="1473" on="1"/>
        <pt x="2363" y="1102" on="1"/>
        <pt x="2275" y="1102" on="0"/>
        <pt x="2200" y="1055" on="0"/>
        <pt x="2200" y="989" on="1"/>
        <pt x="2200" y="483" on="1"/>
        <pt x="2200" y="418" on="0"/>
        <pt x="2275" y="371" on="0"/>
        <pt x="2363" y="371" on="1"/>
        <pt x="2363" y="0" on="1"/>
      </contour>
    </TTGlyph>
    <TTGlyph name="N" xMin="41" yMin="0" xMax="1831" yMax="1473">
      <contour>
        <pt x="1831" y="1473" on="1"/>
        <pt x="1831" y="1102" on="1"/>
        <pt x="1743" y="1102" on="0"/>
        <pt x="1688" y="1044" on="0"/>
        <pt x="1688" y="989" on="1"/>
        <pt x="1688" y="0" on="1"/>
        <pt x="1087" y="0" on="1"/>
        <pt x="565" y="817" on="1"/>
        <pt x="565" y="471" on="1"/>
        <pt x="565" y="406" on="0"/>
        <pt x="641" y="371" on="0"/>
        <pt x="729" y="371" on="1"/>
        <pt x="729" y="0" on="1"/>
        <pt x="41" y="0" on="1"/>
        <pt x="41" y="371" on="1"/>
        <pt x="129" y="371" on="0"/>
        <pt x="205" y="418" on="0"/>
        <pt x="205" y="483" on="1"/>
        <pt x="205" y="989" on="1"/>
        <pt x="205" y="1055" on="0"/>
        <pt x="129" y="1102" on="0"/>
        <pt x="41" y="1102" on="1"/>
        <pt x="41" y="1473" on="1"/>
        <pt x="827" y="1473" on="1"/>
        <pt x="1327" y="690" on="1"/>
        <pt x="1327" y="989" on="1"/>
        <pt x="1327" y="1055" on="0"/>
        <pt x="1272" y="1102" on="0"/>
        <pt x="1184" y="1102" on="1"/>
        <pt x="1184" y="1473" on="1"/>
      </contour>
    </TTGlyph>
    <TTGlyph name="Nacute" xMin="41" yMin="0" xMax="1831" yMax="1863">
      <component glyphName="N" x="0" y="0" flags="0x1204"/>
      <component glyphName="acute" x="528" y="315" flags="0x1004"/>
    </TTGlyph>
    <TTGlyph name="Ncaron" xMin="41" yMin="0" xMax="1831" yMax="1863">
      <component glyphName="N" x="0" y="0" flags="0x1204"/>
      <component glyphName="caron" x="442" y="315" flags="0x1004"/>
    </TTGlyph>
    <TTGlyph name="Ncommaaccent" xMin="41" yMin="-512" xMax="1831" yMax="1473">
      <component glyphName="N" x="0" y="0" flags="0x1204"/>
      <component glyphName="commaaccent" x="434" y="0" flags="0x1004"/>
    </TTGlyph>
    <TTGlyph name="Ntilde" xMin="41" yMin="0" xMax="1831" yMax="1861">
      <component glyphName="N" x="0" y="0" flags="0x1204"/>
      <component glyphName="tilde" x="442" y="315" flags="0x1004"/>
    </TTGlyph>
    <TTGlyph name="O" xMin="51" yMin="-43" xMax="1792" yMax="1513">
      <contour>
        <pt x="51" y="735" on="1"/>
        <pt x="51" y="928" on="0"/>
        <pt x="178" y="1219" on="0"/>
        <pt x="410" y="1415" on="0"/>
        <pt x="729" y="1513" on="0"/>
        <pt x="922" y="1513" on="1"/>
        <pt x="1114" y="1513" on="0"/>
        <pt x="1434" y="1415" on="0"/>
        <pt x="1665" y="1219" on="0"/>
        <pt x="1792" y="928" on="0"/>
        <pt x="1792" y="735" on="1"/>
        <pt x="1792" y="543" on="0"/>
        <pt x="1665" y="252" on="0"/>
        <pt x="1434" y="55" on="0"/>
        <pt x="1114" y="-43" on="0"/>
        <pt x="922" y="-43" on="1"/>
        <pt x="729" y="-43" on="0"/>
        <pt x="410" y="55" on="0"/>
        <pt x="178" y="252" on="0"/>
        <pt x="51" y="543" on="0"/>
      </contour>
      <contour>
        <pt x="723" y="735" on="1"/>
        <pt x="723" y="614" on="0"/>
        <pt x="741" y="451" on="0"/>
        <pt x="786" y="350" on="0"/>
        <pt x="862" y="305" on="0"/>
        <pt x="922" y="305" on="1"/>
        <pt x="979" y="305" on="0"/>
        <pt x="1057" y="350" on="0"/>
        <pt x="1102" y="451" on="0"/>
        <pt x="1120" y="614" on="0"/>
        <pt x="1120" y="735" on="1"/>
        <pt x="1120" y="854" on="0"/>
        <pt x="1102" y="1020" on="0"/>
        <pt x="1057" y="1120" on="0"/>
        <pt x="979" y="1165" on="0"/>
        <pt x="922" y="1165" on="1"/>
        <pt x="862" y="1165" on="0"/>
        <pt x="786" y="1120" on="0"/>
        <pt x="741" y="1020" on="0"/>
        <pt x="723" y="854" on="0"/>
      </contour>
    </TTGlyph>
    <TTGlyph name="OE" xMin="51" yMin="0" xMax="2359" yMax="1473">
      <contour>
        <pt x="1868" y="371" on="1"/>
        <pt x="1909" y="371" on="0"/>
        <pt x="1964" y="385" on="0"/>
        <pt x="1997" y="424" on="0"/>
        <pt x="2009" y="492" on="0"/>
        <pt x="2009" y="545" on="1"/>
        <pt x="2359" y="545" on="1"/>
        <pt x="2359" y="0" on="1"/>
        <pt x="922" y="0" on="1"/>
        <pt x="729" y="0" on="0"/>
        <pt x="410" y="86" on="0"/>
        <pt x="178" y="266" on="0"/>
        <pt x="51" y="543" on="0"/>
        <pt x="51" y="735" on="1"/>
        <pt x="51" y="928" on="0"/>
        <pt x="178" y="1206" on="0"/>
        <pt x="410" y="1386" on="0"/>
        <pt x="729" y="1473" on="0"/>
        <pt x="922" y="1473" on="1"/>
        <pt x="2359" y="1473" on="1"/>
        <pt x="2359" y="928" on="1"/>
        <pt x="2009" y="928" on="1"/>
        <pt x="2009" y="981" on="0"/>
        <pt x="1997" y="1049" on="0"/>
        <pt x="1964" y="1087" on="0"/>
        <pt x="1909" y="1102" on="0"/>
        <pt x="1868" y="1102" on="1"/>
        <pt x="1688" y="1102" on="1"/>
        <pt x="1688" y="836" on="1"/>
        <pt x="2007" y="836" on="1"/>
        <pt x="2007" y="659" on="1"/>
        <pt x="1688" y="659" on="1"/>
        <pt x="1688" y="371" on="1"/>
      </contour>
      <contour>
        <pt x="723" y="735" on="1"/>
        <pt x="723" y="623" on="0"/>
        <pt x="752" y="467" on="0"/>
        <pt x="813" y="371" on="0"/>
        <pt x="911" y="328" on="0"/>
        <pt x="981" y="328" on="1"/>
        <pt x="1038" y="328" on="0"/>
        <pt x="1081" y="334" on="0"/>
        <pt x="1100" y="338" on="1"/>
        <pt x="1100" y="1135" on="1"/>
        <pt x="1075" y="1139" on="0"/>
        <pt x="1032" y="1145" on="0"/>
        <pt x="979" y="1145" on="1"/>
        <pt x="899" y="1145" on="0"/>
        <pt x="799" y="1102" on="0"/>
        <pt x="743" y="1004" on="0"/>
        <pt x="723" y="848" on="0"/>
      </contour>
    </TTGlyph>
    <TTGlyph name="Oacute" xMin="51" yMin="-43" xMax="1792" yMax="1904">
      <component glyphName="O" x="0" y="0" flags="0x1204"/>
      <component glyphName="acute" x="496" y="356" flags="0x1004"/>
    </TTGlyph>
    <TTGlyph name="Obreve" xMin="51" yMin="-43" xMax="1792" yMax="1904">
      <component glyphName="O" x="0" y="0" flags="0x1204"/>
      <component glyphName="breve" x="410" y="356" flags="0x1004"/>
    </TTGlyph>
    <TTGlyph name="Ocircumflex" xMin="51" yMin="-43" xMax="1792" yMax="1904">
      <component glyphName="O" x="0" y="0" flags="0x1204"/>
      <component glyphName="circumflex" x="410" y="356" flags="0x1004"/>
    </TTGlyph>
    <TTGlyph name="Odieresis" xMin="51" yMin="-43" xMax="1792" yMax="1902">
      <component glyphName="O" x="0" y="0" flags="0x1204"/>
      <component glyphName="dieresis" x="410" y="356" flags="0x1004"/>
    </TTGlyph>
    <TTGlyph name="Ograve" xMin="51" yMin="-43" xMax="1792" yMax="1904">
      <component glyphName="O" x="0" y="0" flags="0x1204"/>
      <component glyphName="grave" x="401" y="356" flags="0x1004"/>
    </TTGlyph>
    <TTGlyph name="Ohungarumlaut" xMin="51" yMin="-43" xMax="1792" yMax="1904">
      <component glyphName="O" x="0" y="0" flags="0x1204"/>
      <component glyphName="hungarumlaut" x="410" y="356" flags="0x1004"/>
    </TTGlyph>
    <TTGlyph name="Omacron" xMin="51" yMin="-43" xMax="1792" yMax="1863">
      <component glyphName="O" x="0" y="0" flags="0x1204"/>
      <component glyphName="macron" x="410" y="356" flags="0x1004"/>
    </TTGlyph>
    <TTGlyph name="Oslash" xMin="51" yMin="-125" xMax="1792" yMax="1595">
      <contour>
        <pt x="340" y="117" on="1"/>
        <pt x="203" y="215" on="0"/>
        <pt x="51" y="524" on="0"/>
        <pt x="51" y="735" on="1"/>
        <pt x="51" y="928" on="0"/>
        <pt x="178" y="1219" on="0"/>
        <pt x="410" y="1415" on="0"/>
        <pt x="729" y="1513" on="0"/>
        <pt x="922" y="1513" on="1"/>
        <pt x="1020" y="1513" on="0"/>
        <pt x="1200" y="1487" on="0"/>
        <pt x="1280" y="1462" on="1"/>
        <pt x="1374" y="1595" on="1"/>
        <pt x="1663" y="1595" on="1"/>
        <pt x="1495" y="1356" on="1"/>
        <pt x="1636" y="1257" on="0"/>
        <pt x="1792" y="948" on="0"/>
        <pt x="1792" y="735" on="1"/>
        <pt x="1792" y="543" on="0"/>
        <pt x="1665" y="252" on="0"/>
        <pt x="1434" y="55" on="0"/>
        <pt x="1114" y="-43" on="0"/>
        <pt x="922" y="-43" on="1"/>
        <pt x="721" y="-43" on="0"/>
        <pt x="555" y="10" on="1"/>
        <pt x="461" y="-125" on="1"/>
        <pt x="172" y="-125" on="1"/>
      </contour>
      <contour>
        <pt x="1120" y="735" on="1"/>
        <pt x="1120" y="758" on="0"/>
        <pt x="1120" y="797" on="0"/>
        <pt x="1118" y="817" on="1"/>
        <pt x="795" y="352" on="1"/>
        <pt x="836" y="305" on="0"/>
        <pt x="922" y="305" on="1"/>
        <pt x="979" y="305" on="0"/>
        <pt x="1057" y="350" on="0"/>
        <pt x="1102" y="451" on="0"/>
        <pt x="1120" y="614" on="0"/>
      </contour>
      <contour>
        <pt x="723" y="664" on="1"/>
        <pt x="1044" y="1122" on="1"/>
        <pt x="997" y="1165" on="0"/>
        <pt x="922" y="1165" on="1"/>
        <pt x="862" y="1165" on="0"/>
        <pt x="786" y="1120" on="0"/>
        <pt x="741" y="1020" on="0"/>
        <pt x="723" y="854" on="0"/>
        <pt x="723" y="735" on="1"/>
      </contour>
    </TTGlyph>
    <TTGlyph name="Oslashacute" xMin="51" yMin="-125" xMax="1792" yMax="1902">
      <component glyphName="Oslash" x="0" y="0" flags="0x1204"/>
      <component glyphName="acute" x="496" y="354" flags="0x1004"/>
    </TTGlyph>
    <TTGlyph name="Otilde" xMin="51" yMin="-43" xMax="1792" yMax="1902">
      <component glyphName="O" x="0" y="0" flags="0x1204"/>
      <component glyphName="tilde" x="410" y="356" flags="0x1004"/>
    </TTGlyph>
    <TTGlyph name="P" xMin="41" yMin="0" xMax="1640" yMax="1473">
      <contour>
        <pt x="795" y="543" on="1"/>
        <pt x="795" y="483" on="1"/>
        <pt x="795" y="430" on="0"/>
        <pt x="848" y="371" on="0"/>
        <pt x="918" y="371" on="1"/>
        <pt x="1020" y="371" on="1"/>
        <pt x="1020" y="0" on="1"/>
        <pt x="41" y="0" on="1"/>
        <pt x="41" y="371" on="1"/>
        <pt x="129" y="371" on="0"/>
        <pt x="205" y="418" on="0"/>
        <pt x="205" y="483" on="1"/>
        <pt x="205" y="989" on="1"/>
        <pt x="205" y="1055" on="0"/>
        <pt x="129" y="1102" on="0"/>
        <pt x="41" y="1102" on="1"/>
        <pt x="41" y="1473" on="1"/>
        <pt x="1120" y="1473" on="1"/>
        <pt x="1268" y="1473" on="0"/>
        <pt x="1468" y="1403" on="0"/>
        <pt x="1589" y="1278" on="0"/>
        <pt x="1640" y="1100" on="0"/>
        <pt x="1640" y="993" on="1"/>
        <pt x="1640" y="885" on="0"/>
        <pt x="1589" y="719" on="0"/>
        <pt x="1468" y="602" on="0"/>
        <pt x="1268" y="543" on="0"/>
        <pt x="1120" y="543" on="1"/>
      </contour>
      <contour>
        <pt x="795" y="780" on="1"/>
        <pt x="903" y="780" on="1"/>
        <pt x="987" y="780" on="0"/>
        <pt x="1051" y="868" on="0"/>
        <pt x="1051" y="940" on="1"/>
        <pt x="1051" y="1008" on="0"/>
        <pt x="987" y="1102" on="0"/>
        <pt x="903" y="1102" on="1"/>
        <pt x="795" y="1102" on="1"/>
      </contour>
    </TTGlyph>
    <TTGlyph name="Q" xMin="51" yMin="-217" xMax="1872" yMax="1513">
      <contour>
        <pt x="51" y="735" on="1"/>
        <pt x="51" y="928" on="0"/>
        <pt x="178" y="1219" on="0"/>
        <pt x="410" y="1415" on="0"/>
        <pt x="729" y="1513" on="0"/>
        <pt x="922" y="1513" on="1"/>
        <pt x="1114" y="1513" on="0"/>
        <pt x="1434" y="1415" on="0"/>
        <pt x="1665" y="1219" on="0"/>
        <pt x="1792" y="928" on="0"/>
        <pt x="1792" y="735" on="1"/>
        <pt x="1792" y="549" on="0"/>
        <pt x="1663" y="246" on="0"/>
        <pt x="1528" y="135" on="1"/>
        <pt x="1544" y="115" on="0"/>
        <pt x="1602" y="84" on="0"/>
        <pt x="1636" y="84" on="1"/>
        <pt x="1688" y="84" on="0"/>
        <pt x="1743" y="129" on="0"/>
        <pt x="1769" y="195" on="0"/>
        <pt x="1776" y="270" on="0"/>
        <pt x="1778" y="299" on="1"/>
        <pt x="1872" y="299" on="1"/>
        <pt x="1872" y="37" on="0"/>
        <pt x="1716" y="-217" on="0"/>
        <pt x="1550" y="-217" on="1"/>
        <pt x="1436" y="-217" on="0"/>
        <pt x="1286" y="-106" on="0"/>
        <pt x="1233" y="-4" on="1"/>
        <pt x="1153" y="-23" on="0"/>
        <pt x="1020" y="-43" on="0"/>
        <pt x="922" y="-43" on="1"/>
        <pt x="729" y="-43" on="0"/>
        <pt x="410" y="55" on="0"/>
        <pt x="178" y="252" on="0"/>
        <pt x="51" y="543" on="0"/>
      </contour>
      <contour>
        <pt x="723" y="735" on="1"/>
        <pt x="723" y="668" on="0"/>
        <pt x="727" y="559" on="0"/>
        <pt x="733" y="514" on="1"/>
        <pt x="764" y="543" on="0"/>
        <pt x="860" y="590" on="0"/>
        <pt x="928" y="590" on="1"/>
        <pt x="979" y="590" on="0"/>
        <pt x="1071" y="565" on="0"/>
        <pt x="1112" y="545" on="1"/>
        <pt x="1116" y="586" on="0"/>
        <pt x="1120" y="680" on="0"/>
        <pt x="1120" y="735" on="1"/>
        <pt x="1120" y="854" on="0"/>
        <pt x="1102" y="1020" on="0"/>
        <pt x="1057" y="1120" on="0"/>
        <pt x="979" y="1165" on="0"/>
        <pt x="922" y="1165" on="1"/>
        <pt x="862" y="1165" on="0"/>
        <pt x="786" y="1120" on="0"/>
        <pt x="741" y="1020" on="0"/>
        <pt x="723" y="854" on="0"/>
      </contour>
      <contour>
        <pt x="922" y="305" on="1"/>
        <pt x="1024" y="305" on="0"/>
        <pt x="1067" y="375" on="1"/>
        <pt x="1036" y="422" on="0"/>
        <pt x="940" y="479" on="0"/>
        <pt x="891" y="479" on="1"/>
        <pt x="831" y="479" on="0"/>
        <pt x="784" y="424" on="0"/>
        <pt x="784" y="397" on="1"/>
        <pt x="784" y="350" on="0"/>
        <pt x="868" y="305" on="0"/>
      </contour>
    </TTGlyph>
    <TTGlyph name="R" xMin="41" yMin="-41" xMax="1792" yMax="1473">
      <contour>
        <pt x="41" y="0" on="1"/>
        <pt x="41" y="371" on="1"/>
        <pt x="129" y="371" on="0"/>
        <pt x="205" y="418" on="0"/>
        <pt x="205" y="483" on="1"/>
        <pt x="205" y="989" on="1"/>
        <pt x="205" y="1055" on="0"/>
        <pt x="129" y="1102" on="0"/>
        <pt x="41" y="1102" on="1"/>
        <pt x="41" y="1473" on="1"/>
        <pt x="1100" y="1473" on="1"/>
        <pt x="1247" y="1473" on="0"/>
        <pt x="1448" y="1415" on="0"/>
        <pt x="1569" y="1307" on="0"/>
        <pt x="1620" y="1157" on="0"/>
        <pt x="1620" y="1065" on="1"/>
        <pt x="1620" y="897" on="0"/>
        <pt x="1458" y="696" on="0"/>
        <pt x="1280" y="688" on="1"/>
        <pt x="1280" y="676" on="1"/>
        <pt x="1366" y="670" on="0"/>
        <pt x="1479" y="618" on="0"/>
        <pt x="1544" y="535" on="0"/>
        <pt x="1571" y="418" on="0"/>
        <pt x="1571" y="344" on="1"/>
        <pt x="1571" y="291" on="1"/>
        <pt x="1571" y="266" on="0"/>
        <pt x="1597" y="229" on="0"/>
        <pt x="1624" y="229" on="1"/>
        <pt x="1653" y="229" on="0"/>
        <pt x="1677" y="266" on="0"/>
        <pt x="1677" y="291" on="1"/>
        <pt x="1677" y="545" on="1"/>
        <pt x="1792" y="545" on="1"/>
        <pt x="1792" y="291" on="1"/>
        <pt x="1792" y="219" on="0"/>
        <pt x="1749" y="98" on="0"/>
        <pt x="1651" y="8" on="0"/>
        <pt x="1491" y="-41" on="0"/>
        <pt x="1374" y="-41" on="1"/>
        <pt x="1257" y="-41" on="0"/>
        <pt x="1108" y="10" on="0"/>
        <pt x="1024" y="100" on="0"/>
        <pt x="991" y="219" on="0"/>
        <pt x="991" y="285" on="1"/>
        <pt x="991" y="362" on="1"/>
        <pt x="991" y="442" on="0"/>
        <pt x="973" y="541" on="0"/>
        <pt x="932" y="596" on="0"/>
        <pt x="866" y="614" on="0"/>
        <pt x="819" y="614" on="1"/>
        <pt x="795" y="614" on="1"/>
        <pt x="795" y="471" on="1"/>
        <pt x="795" y="418" on="0"/>
        <pt x="854" y="371" on="0"/>
        <pt x="930" y="371" on="1"/>
        <pt x="930" y="0" on="1"/>
      </contour>
      <contour>
        <pt x="795" y="791" on="1"/>
        <pt x="883" y="791" on="1"/>
        <pt x="967" y="791" on="0"/>
        <pt x="1030" y="872" on="0"/>
        <pt x="1030" y="944" on="1"/>
        <pt x="1030" y="1028" on="0"/>
        <pt x="967" y="1102" on="0"/>
        <pt x="883" y="1102" on="1"/>
        <pt x="795" y="1102" on="1"/>
      </contour>
    </TTGlyph>
    <TTGlyph name="Racute" xMin="41" yMin="-41" xMax="1792" yMax="1863">
      <component glyphName="R" x="0" y="0" flags="0x1204"/>
      <component glyphName="acute" x="365" y="315" flags="0x1004"/>
    </TTGlyph>
    <TTGlyph name="Rcaron" xMin="41" yMin="-41" xMax="1792" yMax="1863">
      <component glyphName="R" x="0" y="0" flags="0x1204"/>
      <component glyphName="caron" x="279" y="315" flags="0x1004"/>
    </TTGlyph>
    <TTGlyph name="Rcommaaccent" xMin="41" yMin="-512" xMax="1792" yMax="1473">
      <component glyphName="R" x="0" y="0" flags="0x1204"/>
      <component glyphName="commaaccent" x="406" y="0" flags="0x1004"/>
    </TTGlyph>
    <TTGlyph name="S" xMin="51" yMin="-27" xMax="1452" yMax="1495">
      <contour>
        <pt x="1405" y="938" on="1"/>
        <pt x="1075" y="938" on="1"/>
        <pt x="1067" y="989" on="0"/>
        <pt x="1012" y="1077" on="0"/>
        <pt x="932" y="1141" on="0"/>
        <pt x="834" y="1176" on="0"/>
        <pt x="782" y="1176" on="1"/>
        <pt x="719" y="1176" on="0"/>
        <pt x="641" y="1128" on="0"/>
        <pt x="641" y="1085" on="1"/>
        <pt x="641" y="1044" on="0"/>
        <pt x="711" y="993" on="0"/>
        <pt x="825" y="956" on="0"/>
        <pt x="971" y="922" on="0"/>
        <pt x="1122" y="872" on="0"/>
        <pt x="1268" y="801" on="0"/>
        <pt x="1382" y="690" on="0"/>
        <pt x="1452" y="530" on="0"/>
        <pt x="1452" y="418" on="1"/>
        <pt x="1452" y="299" on="0"/>
        <pt x="1350" y="131" on="0"/>
        <pt x="1178" y="23" on="0"/>
        <pt x="954" y="-27" on="0"/>
        <pt x="834" y="-27" on="1"/>
        <pt x="717" y="-27" on="0"/>
        <pt x="504" y="27" on="0"/>
        <pt x="393" y="88" on="1"/>
        <pt x="393" y="0" on="1"/>
        <pt x="63" y="0" on="1"/>
        <pt x="63" y="545" on="1"/>
        <pt x="393" y="545" on="1"/>
        <pt x="422" y="428" on="0"/>
        <pt x="596" y="293" on="0"/>
        <pt x="705" y="293" on="1"/>
        <pt x="778" y="293" on="0"/>
        <pt x="850" y="348" on="0"/>
        <pt x="850" y="383" on="1"/>
        <pt x="850" y="438" on="0"/>
        <pt x="731" y="498" on="0"/>
        <pt x="555" y="545" on="0"/>
        <pt x="346" y="604" on="0"/>
        <pt x="170" y="715" on="0"/>
        <pt x="51" y="897" on="0"/>
        <pt x="51" y="1044" on="1"/>
        <pt x="51" y="1153" on="0"/>
        <pt x="145" y="1321" on="0"/>
        <pt x="303" y="1436" on="0"/>
        <pt x="510" y="1495" on="0"/>
        <pt x="625" y="1495" on="1"/>
        <pt x="784" y="1495" on="0"/>
        <pt x="1012" y="1421" on="0"/>
        <pt x="1075" y="1380" on="1"/>
        <pt x="1075" y="1473" on="1"/>
        <pt x="1405" y="1473" on="1"/>
      </contour>
    </TTGlyph>
    <TTGlyph name="Sacute" xMin="51" yMin="-27" xMax="1452" yMax="1886">
      <component glyphName="S" x="0" y="0" flags="0x1204"/>
      <component glyphName="acute" x="266" y="338" flags="0x1004"/>
    </TTGlyph>
    <TTGlyph name="Scaron" xMin="51" yMin="-27" xMax="1452" yMax="1886">
      <component glyphName="S" x="0" y="0" flags="0x1204"/>
      <component glyphName="caron" x="180" y="338" flags="0x1004"/>
    </TTGlyph>
    <TTGlyph name="Scedilla" xMin="51" yMin="-508" xMax="1452" yMax="1495">
      <component glyphName="S" x="0" y="0" flags="0x1204"/>
      <component glyphName="cedilla" x="260" y="-19" flags="0x1004"/>
    </TTGlyph>
    <TTGlyph name="Scircumflex" xMin="51" yMin="-27" xMax="1452" yMax="1886">
      <component glyphName="S" x="0" y="0" flags="0x1204"/>
      <component glyphName="circumflex" x="180" y="338" flags="0x1004"/>
    </TTGlyph>
    <TTGlyph name="T" xMin="20" yMin="0" xMax="1634" yMax="1473">
      <contour>
        <pt x="1634" y="1473" on="1"/>
        <pt x="1634" y="887" on="1"/>
        <pt x="1305" y="887" on="1"/>
        <pt x="1305" y="954" on="0"/>
        <pt x="1298" y="1053" on="0"/>
        <pt x="1274" y="1114" on="0"/>
        <pt x="1225" y="1143" on="0"/>
        <pt x="1184" y="1143" on="1"/>
        <pt x="1122" y="1143" on="1"/>
        <pt x="1122" y="483" on="1"/>
        <pt x="1122" y="418" on="0"/>
        <pt x="1198" y="371" on="0"/>
        <pt x="1286" y="371" on="1"/>
        <pt x="1286" y="0" on="1"/>
        <pt x="369" y="0" on="1"/>
        <pt x="369" y="371" on="1"/>
        <pt x="457" y="371" on="0"/>
        <pt x="532" y="418" on="0"/>
        <pt x="532" y="483" on="1"/>
        <pt x="532" y="1143" on="1"/>
        <pt x="471" y="1143" on="1"/>
        <pt x="430" y="1143" on="0"/>
        <pt x="381" y="1114" on="0"/>
        <pt x="356" y="1053" on="0"/>
        <pt x="350" y="954" on="0"/>
        <pt x="350" y="887" on="1"/>
        <pt x="20" y="887" on="1"/>
        <pt x="20" y="1473" on="1"/>
      </contour>
    </TTGlyph>
    <TTGlyph name="Tbar" xMin="20" yMin="0" xMax="1634" yMax="1473">
      <contour>
        <pt x="1634" y="1473" on="1"/>
        <pt x="1634" y="887" on="1"/>
        <pt x="1305" y="887" on="1"/>
        <pt x="1305" y="954" on="0"/>
        <pt x="1298" y="1053" on="0"/>
        <pt x="1274" y="1114" on="0"/>
        <pt x="1225" y="1143" on="0"/>
        <pt x="1184" y="1143" on="1"/>
        <pt x="1122" y="1143" on="1"/>
        <pt x="1122" y="795" on="1"/>
        <pt x="1430" y="795" on="1"/>
        <pt x="1430" y="618" on="1"/>
        <pt x="1122" y="618" on="1"/>
        <pt x="1122" y="483" on="1"/>
        <pt x="1122" y="418" on="0"/>
        <pt x="1198" y="371" on="0"/>
        <pt x="1286" y="371" on="1"/>
        <pt x="1286" y="0" on="1"/>
        <pt x="369" y="0" on="1"/>
        <pt x="369" y="371" on="1"/>
        <pt x="457" y="371" on="0"/>
        <pt x="532" y="418" on="0"/>
        <pt x="532" y="483" on="1"/>
        <pt x="532" y="618" on="1"/>
        <pt x="225" y="618" on="1"/>
        <pt x="225" y="795" on="1"/>
        <pt x="532" y="795" on="1"/>
        <pt x="532" y="1143" on="1"/>
        <pt x="471" y="1143" on="1"/>
        <pt x="430" y="1143" on="0"/>
        <pt x="381" y="1114" on="0"/>
        <pt x="356" y="1053" on="0"/>
        <pt x="350" y="954" on="0"/>
        <pt x="350" y="887" on="1"/>
        <pt x="20" y="887" on="1"/>
        <pt x="20" y="1473" on="1"/>
      </contour>
    </TTGlyph>
    <TTGlyph name="Tcaron" xMin="20" yMin="0" xMax="1634" yMax="1863">
      <component glyphName="T" x="0" y="0" flags="0x1204"/>
      <component glyphName="caron" x="315" y="315" flags="0x1004"/>
    </TTGlyph>
    <TTGlyph name="Tcommaaccent" xMin="20" yMin="-512" xMax="1634" yMax="1473">
      <component glyphName="T" x="0" y="0" flags="0x1204"/>
      <component glyphName="commaaccent" x="326" y="0" flags="0x1004"/>
    </TTGlyph>
    <TTGlyph name="Thorn" xMin="41" yMin="0" xMax="1640" yMax="1473">
      <contour>
        <pt x="795" y="1262" on="1"/>
        <pt x="1120" y="1262" on="1"/>
        <pt x="1268" y="1262" on="0"/>
        <pt x="1468" y="1214" on="0"/>
        <pt x="1589" y="1118" on="0"/>
        <pt x="1640" y="973" on="0"/>
        <pt x="1640" y="872" on="1"/>
        <pt x="1640" y="772" on="0"/>
        <pt x="1589" y="627" on="0"/>
        <pt x="1468" y="530" on="0"/>
        <pt x="1268" y="483" on="0"/>
        <pt x="1120" y="483" on="1"/>
        <pt x="795" y="483" on="1"/>
        <pt x="795" y="430" on="0"/>
        <pt x="848" y="371" on="0"/>
        <pt x="918" y="371" on="1"/>
        <pt x="1020" y="371" on="1"/>
        <pt x="1020" y="0" on="1"/>
        <pt x="41" y="0" on="1"/>
        <pt x="41" y="371" on="1"/>
        <pt x="129" y="371" on="0"/>
        <pt x="205" y="418" on="0"/>
        <pt x="205" y="483" on="1"/>
        <pt x="205" y="989" on="1"/>
        <pt x="205" y="1055" on="0"/>
        <pt x="129" y="1102" on="0"/>
        <pt x="41" y="1102" on="1"/>
        <pt x="41" y="1473" on="1"/>
        <pt x="795" y="1473" on="1"/>
      </contour>
      <contour>
        <pt x="1051" y="872" on="1"/>
        <pt x="1051" y="944" on="0"/>
        <pt x="987" y="1024" on="0"/>
        <pt x="903" y="1024" on="1"/>
        <pt x="795" y="1024" on="1"/>
        <pt x="795" y="721" on="1"/>
        <pt x="903" y="721" on="1"/>
        <pt x="987" y="721" on="0"/>
        <pt x="1051" y="801" on="0"/>
      </contour>
    </TTGlyph>
    <TTGlyph name="U" xMin="41" yMin="-41" xMax="1669" yMax="1473">
      <contour>
        <pt x="930" y="1473" on="1"/>
        <pt x="930" y="1102" on="1"/>
        <pt x="854" y="1102" on="0"/>
        <pt x="795" y="1055" on="0"/>
        <pt x="795" y="1001" on="1"/>
        <pt x="795" y="539" on="1"/>
        <pt x="795" y="502" on="0"/>
        <pt x="811" y="434" on="0"/>
        <pt x="850" y="381" on="0"/>
        <pt x="915" y="350" on="0"/>
        <pt x="965" y="350" on="1"/>
        <pt x="1061" y="350" on="0"/>
        <pt x="1149" y="451" on="0"/>
        <pt x="1149" y="537" on="1"/>
        <pt x="1149" y="997" on="1"/>
        <pt x="1149" y="1059" on="0"/>
        <pt x="1075" y="1102" on="0"/>
        <pt x="1010" y="1102" on="1"/>
        <pt x="1010" y="1473" on="1"/>
        <pt x="1669" y="1473" on="1"/>
        <pt x="1669" y="1102" on="1"/>
        <pt x="1602" y="1102" on="0"/>
        <pt x="1530" y="1063" on="0"/>
        <pt x="1530" y="1001" on="1"/>
        <pt x="1530" y="524" on="1"/>
        <pt x="1530" y="432" on="0"/>
        <pt x="1483" y="233" on="0"/>
        <pt x="1346" y="68" on="0"/>
        <pt x="1092" y="-41" on="0"/>
        <pt x="883" y="-41" on="1"/>
        <pt x="731" y="-41" on="0"/>
        <pt x="512" y="14" on="0"/>
        <pt x="360" y="104" on="0"/>
        <pt x="270" y="219" on="0"/>
        <pt x="221" y="342" on="0"/>
        <pt x="205" y="459" on="0"/>
        <pt x="205" y="508" on="1"/>
        <pt x="205" y="989" on="1"/>
        <pt x="205" y="1055" on="0"/>
        <pt x="129" y="1102" on="0"/>
        <pt x="41" y="1102" on="1"/>
        <pt x="41" y="1473" on="1"/>
      </contour>
    </TTGlyph>
    <TTGlyph name="Uacute" xMin="41" yMin="-41" xMax="1669" yMax="1863">
      <component glyphName="U" x="0" y="0" flags="0x1204"/>
      <component glyphName="acute" x="545" y="315" flags="0x1004"/>
    </TTGlyph>
    <TTGlyph name="Ubreve" xMin="41" yMin="-41" xMax="1669" yMax="1863">
      <component glyphName="U" x="0" y="0" flags="0x1204"/>
      <component glyphName="breve" x="428" y="315" flags="0x1004"/>
    </TTGlyph>
    <TTGlyph name="Ucircumflex" xMin="41" yMin="-41" xMax="1669" yMax="1863">
      <component glyphName="U" x="0" y="0" flags="0x1204"/>
      <component glyphName="circumflex" x="418" y="315" flags="0x1004"/>
    </TTGlyph>
    <TTGlyph name="Udieresis" xMin="41" yMin="-41" xMax="1669" yMax="1861">
      <component glyphName="U" x="0" y="0" flags="0x1204"/>
      <component glyphName="dieresis" x="428" y="315" flags="0x1004"/>
    </TTGlyph>
    <TTGlyph name="Ugrave" xMin="41" yMin="-41" xMax="1669" yMax="1863">
      <component glyphName="U" x="0" y="0" flags="0x1204"/>
      <component glyphName="grave" x="451" y="315" flags="0x1004"/>
    </TTGlyph>
    <TTGlyph name="Uhungarumlaut" xMin="41" yMin="-41" xMax="1669" yMax="1863">
      <component glyphName="U" x="0" y="0" flags="0x1204"/>
      <component glyphName="hungarumlaut" x="459" y="315" flags="0x1004"/>
    </TTGlyph>
    <TTGlyph name="Umacron" xMin="41" yMin="-41" xMax="1669" yMax="1822">
      <component glyphName="U" x="0" y="0" flags="0x1204"/>
      <component glyphName="macron" x="428" y="315" flags="0x1004"/>
    </TTGlyph>
    <TTGlyph name="Uogonek" xMin="41" yMin="-487" xMax="1669" yMax="1473">
      <contour>
        <pt x="930" y="1473" on="1"/>
        <pt x="930" y="1102" on="1"/>
        <pt x="854" y="1102" on="0"/>
        <pt x="795" y="1055" on="0"/>
        <pt x="795" y="1001" on="1"/>
        <pt x="795" y="539" on="1"/>
        <pt x="795" y="502" on="0"/>
        <pt x="811" y="434" on="0"/>
        <pt x="850" y="381" on="0"/>
        <pt x="915" y="350" on="0"/>
        <pt x="965" y="350" on="1"/>
        <pt x="1061" y="350" on="0"/>
        <pt x="1149" y="451" on="0"/>
        <pt x="1149" y="537" on="1"/>
        <pt x="1149" y="997" on="1"/>
        <pt x="1149" y="1059" on="0"/>
        <pt x="1075" y="1102" on="0"/>
        <pt x="1010" y="1102" on="1"/>
        <pt x="1010" y="1473" on="1"/>
        <pt x="1669" y="1473" on="1"/>
        <pt x="1669" y="1102" on="1"/>
        <pt x="1602" y="1102" on="0"/>
        <pt x="1530" y="1063" on="0"/>
        <pt x="1530" y="1001" on="1"/>
        <pt x="1530" y="524" on="1"/>
        <pt x="1530" y="440" on="0"/>
        <pt x="1491" y="258" on="0"/>
        <pt x="1380" y="100" on="0"/>
        <pt x="1178" y="-16" on="0"/>
        <pt x="1014" y="-33" on="1"/>
        <pt x="961" y="-82" on="0"/>
        <pt x="901" y="-180" on="0"/>
        <pt x="901" y="-236" on="1"/>
        <pt x="901" y="-283" on="0"/>
        <pt x="942" y="-315" on="0"/>
        <pt x="971" y="-315" on="1"/>
        <pt x="1020" y="-315" on="0"/>
        <pt x="1073" y="-242" on="1"/>
        <pt x="1178" y="-326" on="1"/>
        <pt x="1106" y="-412" on="0"/>
        <pt x="952" y="-487" on="0"/>
        <pt x="874" y="-487" on="1"/>
        <pt x="760" y="-487" on="0"/>
        <pt x="662" y="-385" on="0"/>
        <pt x="662" y="-315" on="1"/>
        <pt x="662" y="-244" on="0"/>
        <pt x="741" y="-106" on="0"/>
        <pt x="834" y="-39" on="1"/>
        <pt x="692" y="-35" on="0"/>
        <pt x="489" y="25" on="0"/>
        <pt x="350" y="115" on="0"/>
        <pt x="264" y="227" on="0"/>
        <pt x="219" y="346" on="0"/>
        <pt x="205" y="461" on="0"/>
        <pt x="205" y="508" on="1"/>
        <pt x="205" y="989" on="1"/>
        <pt x="205" y="1055" on="0"/>
        <pt x="129" y="1102" on="0"/>
        <pt x="41" y="1102" on="1"/>
        <pt x="41" y="1473" on="1"/>
      </contour>
    </TTGlyph>
    <TTGlyph name="Uring" xMin="41" yMin="-41" xMax="1669" yMax="2066">
      <component glyphName="U" x="0" y="0" flags="0x1204"/>
      <component glyphName="ring" x="428" y="315" flags="0x1004"/>
    </TTGlyph>
    <TTGlyph name="Utilde" xMin="41" yMin="-41" xMax="1669" yMax="1861">
      <component glyphName="U" x="0" y="0" flags="0x1204"/>
      <component glyphName="tilde" x="428" y="315" flags="0x1004"/>
    </TTGlyph>
    <TTGlyph name="V" xMin="0" yMin="0" xMax="1544" yMax="1473">
      <contour>
        <pt x="164" y="989" on="1"/>
        <pt x="152" y="1020" on="0"/>
        <pt x="131" y="1061" on="0"/>
        <pt x="96" y="1090" on="0"/>
        <pt x="43" y="1102" on="0"/>
        <pt x="0" y="1102" on="1"/>
        <pt x="0" y="1473" on="1"/>
        <pt x="868" y="1473" on="1"/>
        <pt x="868" y="1102" on="1"/>
        <pt x="719" y="1102" on="0"/>
        <pt x="754" y="1001" on="1"/>
        <pt x="909" y="516" on="1"/>
        <pt x="918" y="516" on="1"/>
        <pt x="1077" y="1001" on="1"/>
        <pt x="1112" y="1102" on="0"/>
        <pt x="963" y="1102" on="1"/>
        <pt x="963" y="1473" on="1"/>
        <pt x="1544" y="1473" on="1"/>
        <pt x="1544" y="1102" on="1"/>
        <pt x="1501" y="1102" on="0"/>
        <pt x="1448" y="1090" on="0"/>
        <pt x="1413" y="1061" on="0"/>
        <pt x="1393" y="1020" on="0"/>
        <pt x="1380" y="989" on="1"/>
        <pt x="993" y="0" on="1"/>
        <pt x="549" y="0" on="1"/>
      </contour>
    </TTGlyph>
    <TTGlyph name="W" xMin="20" yMin="0" xMax="2378" yMax="1473">
      <contour>
        <pt x="1204" y="535" on="1"/>
        <pt x="1014" y="0" on="1"/>
        <pt x="569" y="0" on="1"/>
        <pt x="184" y="989" on="1"/>
        <pt x="172" y="1020" on="0"/>
        <pt x="152" y="1061" on="0"/>
        <pt x="117" y="1090" on="0"/>
        <pt x="63" y="1102" on="0"/>
        <pt x="20" y="1102" on="1"/>
        <pt x="20" y="1473" on="1"/>
        <pt x="856" y="1473" on="1"/>
        <pt x="856" y="1102" on="1"/>
        <pt x="803" y="1102" on="0"/>
        <pt x="758" y="1051" on="0"/>
        <pt x="774" y="1001" on="1"/>
        <pt x="920" y="516" on="1"/>
        <pt x="928" y="516" on="1"/>
        <pt x="1059" y="930" on="1"/>
        <pt x="1038" y="989" on="1"/>
        <pt x="1016" y="1049" on="0"/>
        <pt x="977" y="1102" on="0"/>
        <pt x="930" y="1102" on="1"/>
        <pt x="930" y="1473" on="1"/>
        <pt x="1722" y="1473" on="1"/>
        <pt x="1722" y="1102" on="1"/>
        <pt x="1647" y="1102" on="0"/>
        <pt x="1612" y="1051" on="0"/>
        <pt x="1628" y="1001" on="1"/>
        <pt x="1753" y="516" on="1"/>
        <pt x="1761" y="516" on="1"/>
        <pt x="1911" y="1001" on="1"/>
        <pt x="1942" y="1102" on="0"/>
        <pt x="1796" y="1102" on="1"/>
        <pt x="1796" y="1473" on="1"/>
        <pt x="2378" y="1473" on="1"/>
        <pt x="2378" y="1102" on="1"/>
        <pt x="2335" y="1102" on="0"/>
        <pt x="2279" y="1090" on="0"/>
        <pt x="2247" y="1063" on="0"/>
        <pt x="2226" y="1020" on="0"/>
        <pt x="2214" y="989" on="1"/>
        <pt x="1847" y="0" on="1"/>
        <pt x="1403" y="0" on="1"/>
      </contour>
    </TTGlyph>
    <TTGlyph name="Wacute" xMin="20" yMin="0" xMax="2378" yMax="1863">
      <component glyphName="W" x="0" y="0" flags="0x1204"/>
      <component glyphName="acute" x="860" y="315" flags="0x1004"/>
    </TTGlyph>
    <TTGlyph name="Wcircumflex" xMin="20" yMin="0" xMax="2378" yMax="1863">
      <component glyphName="W" x="0" y="0" flags="0x1204"/>
      <component glyphName="circumflex" x="754" y="315" flags="0x1004"/>
    </TTGlyph>
    <TTGlyph name="Wdieresis" xMin="20" yMin="0" xMax="2378" yMax="1861">
      <component glyphName="W" x="0" y="0" flags="0x1204"/>
      <component glyphName="dieresis" x="774" y="315" flags="0x1004"/>
    </TTGlyph>
    <TTGlyph name="Wgrave" xMin="20" yMin="0" xMax="2378" yMax="1863">
      <component glyphName="W" x="0" y="0" flags="0x1204"/>
      <component glyphName="grave" x="807" y="315" flags="0x1004"/>
    </TTGlyph>
    <TTGlyph name="X" xMin="31" yMin="0" xMax="1538" yMax="1473">
      <contour>
        <pt x="901" y="913" on="1"/>
        <pt x="991" y="1001" on="1"/>
        <pt x="1010" y="1020" on="0"/>
        <pt x="1034" y="1057" on="0"/>
        <pt x="1028" y="1083" on="0"/>
        <pt x="985" y="1102" on="0"/>
        <pt x="938" y="1102" on="1"/>
        <pt x="938" y="1473" on="1"/>
        <pt x="1520" y="1473" on="1"/>
        <pt x="1520" y="1102" on="1"/>
        <pt x="1456" y="1102" on="0"/>
        <pt x="1354" y="1051" on="0"/>
        <pt x="1294" y="989" on="1"/>
        <pt x="1061" y="754" on="1"/>
        <pt x="1333" y="483" on="1"/>
        <pt x="1380" y="438" on="0"/>
        <pt x="1485" y="371" on="0"/>
        <pt x="1538" y="371" on="1"/>
        <pt x="1538" y="0" on="1"/>
        <pt x="700" y="0" on="1"/>
        <pt x="700" y="371" on="1"/>
        <pt x="743" y="371" on="0"/>
        <pt x="786" y="389" on="0"/>
        <pt x="793" y="416" on="0"/>
        <pt x="772" y="453" on="0"/>
        <pt x="754" y="471" on="1"/>
        <pt x="657" y="565" on="1"/>
        <pt x="559" y="471" on="1"/>
        <pt x="541" y="453" on="0"/>
        <pt x="516" y="416" on="0"/>
        <pt x="522" y="389" on="0"/>
        <pt x="565" y="371" on="0"/>
        <pt x="612" y="371" on="1"/>
        <pt x="612" y="0" on="1"/>
        <pt x="31" y="0" on="1"/>
        <pt x="31" y="371" on="1"/>
        <pt x="94" y="371" on="0"/>
        <pt x="197" y="422" on="0"/>
        <pt x="256" y="483" on="1"/>
        <pt x="496" y="727" on="1"/>
        <pt x="233" y="989" on="1"/>
        <pt x="186" y="1034" on="0"/>
        <pt x="92" y="1102" on="0"/>
        <pt x="39" y="1102" on="1"/>
        <pt x="39" y="1473" on="1"/>
        <pt x="856" y="1473" on="1"/>
        <pt x="856" y="1102" on="1"/>
        <pt x="813" y="1102" on="0"/>
        <pt x="774" y="1083" on="0"/>
        <pt x="770" y="1057" on="0"/>
        <pt x="795" y="1020" on="0"/>
        <pt x="813" y="1001" on="1"/>
      </contour>
    </TTGlyph>
    <TTGlyph name="Y" xMin="20" yMin="0" xMax="1554" yMax="1473">
      <contour>
        <pt x="205" y="989" on="1"/>
        <pt x="182" y="1012" on="0"/>
        <pt x="150" y="1053" on="0"/>
        <pt x="113" y="1083" on="0"/>
        <pt x="61" y="1102" on="0"/>
        <pt x="20" y="1102" on="1"/>
        <pt x="20" y="1473" on="1"/>
        <pt x="899" y="1473" on="1"/>
        <pt x="899" y="1102" on="1"/>
        <pt x="811" y="1102" on="0"/>
        <pt x="754" y="1044" on="0"/>
        <pt x="784" y="1001" on="1"/>
        <pt x="922" y="809" on="1"/>
        <pt x="930" y="809" on="1"/>
        <pt x="1067" y="1001" on="1"/>
        <pt x="1102" y="1040" on="0"/>
        <pt x="1047" y="1102" on="0"/>
        <pt x="952" y="1102" on="1"/>
        <pt x="952" y="1473" on="1"/>
        <pt x="1554" y="1473" on="1"/>
        <pt x="1554" y="1102" on="1"/>
        <pt x="1524" y="1102" on="0"/>
        <pt x="1479" y="1090" on="0"/>
        <pt x="1440" y="1063" on="0"/>
        <pt x="1399" y="1020" on="0"/>
        <pt x="1370" y="989" on="1"/>
        <pt x="1083" y="637" on="1"/>
        <pt x="1083" y="483" on="1"/>
        <pt x="1083" y="418" on="0"/>
        <pt x="1159" y="371" on="0"/>
        <pt x="1247" y="371" on="1"/>
        <pt x="1247" y="0" on="1"/>
        <pt x="330" y="0" on="1"/>
        <pt x="330" y="371" on="1"/>
        <pt x="418" y="371" on="0"/>
        <pt x="494" y="418" on="0"/>
        <pt x="494" y="483" on="1"/>
        <pt x="494" y="637" on="1"/>
      </contour>
    </TTGlyph>
    <TTGlyph name="Yacute" xMin="20" yMin="0" xMax="1554" yMax="1863">
      <component glyphName="Y" x="0" y="0" flags="0x1204"/>
      <component glyphName="acute" x="422" y="315" flags="0x1004"/>
    </TTGlyph>
    <TTGlyph name="Ycircumflex" xMin="20" yMin="0" xMax="1554" yMax="1863">
      <component glyphName="Y" x="0" y="0" flags="0x1204"/>
      <component glyphName="circumflex" x="336" y="315" flags="0x1004"/>
    </TTGlyph>
    <TTGlyph name="Ydieresis" xMin="20" yMin="0" xMax="1554" yMax="1861">
      <component glyphName="Y" x="0" y="0" flags="0x1204"/>
      <component glyphName="dieresis" x="336" y="315" flags="0x1004"/>
    </TTGlyph>
    <TTGlyph name="Ygrave" xMin="20" yMin="0" xMax="1554" yMax="1863">
      <component glyphName="Y" x="0" y="0" flags="0x1204"/>
      <component glyphName="grave" x="328" y="315" flags="0x1004"/>
    </TTGlyph>
    <TTGlyph name="Z" xMin="41" yMin="0" xMax="1450" yMax="1473">
      <contour>
        <pt x="979" y="330" on="1"/>
        <pt x="1020" y="330" on="0"/>
        <pt x="1069" y="358" on="0"/>
        <pt x="1094" y="420" on="0"/>
        <pt x="1100" y="518" on="0"/>
        <pt x="1100" y="586" on="1"/>
        <pt x="1450" y="586" on="1"/>
        <pt x="1450" y="0" on="1"/>
        <pt x="41" y="0" on="1"/>
        <pt x="41" y="330" on="1"/>
        <pt x="737" y="1143" on="1"/>
        <pt x="537" y="1143" on="1"/>
        <pt x="496" y="1143" on="0"/>
        <pt x="446" y="1114" on="0"/>
        <pt x="422" y="1053" on="0"/>
        <pt x="416" y="954" on="0"/>
        <pt x="416" y="887" on="1"/>
        <pt x="66" y="887" on="1"/>
        <pt x="66" y="1473" on="1"/>
        <pt x="1450" y="1473" on="1"/>
        <pt x="1450" y="1143" on="1"/>
        <pt x="754" y="330" on="1"/>
      </contour>
    </TTGlyph>
    <TTGlyph name="Zacute" xMin="41" yMin="0" xMax="1450" yMax="1863">
      <component glyphName="Z" x="0" y="0" flags="0x1204"/>
      <component glyphName="acute" x="348" y="315" flags="0x1004"/>
    </TTGlyph>
    <TTGlyph name="Zcaron" xMin="41" yMin="0" xMax="1450" yMax="1863">
      <component glyphName="Z" x="0" y="0" flags="0x1204"/>
      <component glyphName="caron" x="262" y="315" flags="0x1004"/>
    </TTGlyph>
    <TTGlyph name="Zdotaccent" xMin="41" yMin="0" xMax="1450" yMax="1888">
      <component glyphName="Z" x="0" y="0" flags="0x1204"/>
      <component glyphName="dotaccent" x="262" y="315" flags="0x1004"/>
    </TTGlyph>
    <TTGlyph name="a" xMin="39" yMin="-45" xMax="1546" yMax="1147">
      <contour>
        <pt x="575" y="963" on="1"/>
        <pt x="524" y="963" on="0"/>
        <pt x="451" y="948" on="0"/>
        <pt x="399" y="928" on="0"/>
        <pt x="365" y="903" on="0"/>
        <pt x="352" y="893" on="1"/>
        <pt x="362" y="883" on="1"/>
        <pt x="381" y="893" on="0"/>
        <pt x="426" y="913" on="0"/>
        <pt x="461" y="913" on="1"/>
        <pt x="520" y="913" on="0"/>
        <pt x="606" y="836" on="0"/>
        <pt x="606" y="752" on="1"/>
        <pt x="606" y="672" on="0"/>
        <pt x="475" y="575" on="0"/>
        <pt x="365" y="575" on="1"/>
        <pt x="260" y="575" on="0"/>
        <pt x="135" y="696" on="0"/>
        <pt x="135" y="807" on="1"/>
        <pt x="135" y="868" on="0"/>
        <pt x="203" y="989" on="0"/>
        <pt x="346" y="1085" on="0"/>
        <pt x="567" y="1147" on="0"/>
        <pt x="723" y="1147" on="1"/>
        <pt x="909" y="1147" on="0"/>
        <pt x="1145" y="1077" on="0"/>
        <pt x="1276" y="967" on="0"/>
        <pt x="1325" y="827" on="0"/>
        <pt x="1325" y="756" on="1"/>
        <pt x="1325" y="365" on="1"/>
        <pt x="1325" y="274" on="0"/>
        <pt x="1337" y="209" on="0"/>
        <pt x="1376" y="209" on="1"/>
        <pt x="1407" y="209" on="0"/>
        <pt x="1432" y="268" on="0"/>
        <pt x="1432" y="340" on="1"/>
        <pt x="1432" y="465" on="1"/>
        <pt x="1546" y="465" on="1"/>
        <pt x="1546" y="338" on="1"/>
        <pt x="1546" y="248" on="0"/>
        <pt x="1516" y="109" on="0"/>
        <pt x="1432" y="10" on="0"/>
        <pt x="1288" y="-41" on="0"/>
        <pt x="1176" y="-41" on="1"/>
        <pt x="1075" y="-41" on="0"/>
        <pt x="942" y="2" on="0"/>
        <pt x="864" y="66" on="0"/>
        <pt x="831" y="135" on="0"/>
        <pt x="831" y="162" on="1"/>
        <pt x="815" y="162" on="1"/>
        <pt x="809" y="121" on="0"/>
        <pt x="752" y="47" on="0"/>
        <pt x="651" y="-10" on="0"/>
        <pt x="510" y="-45" on="0"/>
        <pt x="420" y="-45" on="1"/>
        <pt x="334" y="-45" on="0"/>
        <pt x="193" y="-12" on="0"/>
        <pt x="94" y="59" on="0"/>
        <pt x="39" y="172" on="0"/>
        <pt x="39" y="250" on="1"/>
        <pt x="39" y="346" on="0"/>
        <pt x="147" y="457" on="0"/>
        <pt x="311" y="522" on="0"/>
        <pt x="504" y="563" on="0"/>
        <pt x="668" y="621" on="0"/>
        <pt x="776" y="713" on="0"/>
        <pt x="776" y="797" on="1"/>
        <pt x="776" y="872" on="0"/>
        <pt x="682" y="963" on="0"/>
      </contour>
      <contour>
        <pt x="776" y="530" on="1"/>
        <pt x="754" y="498" on="0"/>
        <pt x="688" y="459" on="0"/>
        <pt x="627" y="422" on="0"/>
        <pt x="582" y="371" on="0"/>
        <pt x="582" y="328" on="1"/>
        <pt x="582" y="295" on="0"/>
        <pt x="618" y="242" on="0"/>
        <pt x="670" y="242" on="1"/>
        <pt x="717" y="242" on="0"/>
        <pt x="776" y="315" on="0"/>
        <pt x="776" y="381" on="1"/>
      </contour>
    </TTGlyph>
    <TTGlyph name="aacute" xMin="39" yMin="-45" xMax="1546" yMax="1548">
      <component glyphName="a" x="0" y="0" flags="0x1204"/>
      <component glyphName="acute" x="334" y="0" flags="0x1004"/>
    </TTGlyph>
    <TTGlyph name="abreve" xMin="39" yMin="-45" xMax="1546" yMax="1548">
      <component glyphName="a" x="0" y="0" flags="0x1204"/>
      <component glyphName="breve" x="248" y="0" flags="0x1004"/>
    </TTGlyph>
    <TTGlyph name="acircumflex" xMin="39" yMin="-45" xMax="1546" yMax="1548">
      <component glyphName="a" x="0" y="0" flags="0x1204"/>
      <component glyphName="circumflex" x="248" y="0" flags="0x1004"/>
    </TTGlyph>
    <TTGlyph name="acute" xMin="295" yMin="1239" xMax="907" yMax="1548">
      <contour>
        <pt x="907" y="1548" on="1"/>
        <pt x="541" y="1239" on="1"/>
        <pt x="295" y="1239" on="1"/>
        <pt x="504" y="1548" on="1"/>
      </contour>
    </TTGlyph>
    <TTGlyph name="adieresis" xMin="39" yMin="-45" xMax="1546" yMax="1546">
      <component glyphName="a" x="0" y="0" flags="0x1204"/>
      <component glyphName="dieresis" x="248" y="0" flags="0x1004"/>
    </TTGlyph>
    <TTGlyph name="ae" xMin="39" yMin="-43" xMax="2097" yMax="1147">
      <contour>
        <pt x="1327" y="489" on="1"/>
        <pt x="1331" y="340" on="0"/>
        <pt x="1425" y="227" on="0"/>
        <pt x="1524" y="227" on="1"/>
        <pt x="1556" y="227" on="0"/>
        <pt x="1616" y="246" on="0"/>
        <pt x="1665" y="289" on="0"/>
        <pt x="1702" y="360" on="0"/>
        <pt x="1708" y="414" on="1"/>
        <pt x="2073" y="414" on="1"/>
        <pt x="2052" y="285" on="0"/>
        <pt x="1948" y="111" on="0"/>
        <pt x="1788" y="4" on="0"/>
        <pt x="1577" y="-43" on="0"/>
        <pt x="1452" y="-43" on="1"/>
        <pt x="1286" y="-43" on="0"/>
        <pt x="999" y="59" on="0"/>
        <pt x="913" y="166" on="1"/>
        <pt x="885" y="127" on="0"/>
        <pt x="795" y="55" on="0"/>
        <pt x="670" y="0" on="0"/>
        <pt x="514" y="-33" on="0"/>
        <pt x="420" y="-33" on="1"/>
        <pt x="334" y="-33" on="0"/>
        <pt x="193" y="-2" on="0"/>
        <pt x="94" y="68" on="0"/>
        <pt x="39" y="178" on="0"/>
        <pt x="39" y="256" on="1"/>
        <pt x="39" y="352" on="0"/>
        <pt x="147" y="461" on="0"/>
        <pt x="311" y="526" on="0"/>
        <pt x="504" y="565" on="0"/>
        <pt x="668" y="621" on="0"/>
        <pt x="776" y="713" on="0"/>
        <pt x="776" y="797" on="1"/>
        <pt x="776" y="872" on="0"/>
        <pt x="682" y="963" on="0"/>
        <pt x="575" y="963" on="1"/>
        <pt x="524" y="963" on="0"/>
        <pt x="451" y="948" on="0"/>
        <pt x="399" y="928" on="0"/>
        <pt x="365" y="903" on="0"/>
        <pt x="352" y="893" on="1"/>
        <pt x="362" y="883" on="1"/>
        <pt x="381" y="893" on="0"/>
        <pt x="426" y="913" on="0"/>
        <pt x="461" y="913" on="1"/>
        <pt x="520" y="913" on="0"/>
        <pt x="606" y="836" on="0"/>
        <pt x="606" y="752" on="1"/>
        <pt x="606" y="672" on="0"/>
        <pt x="475" y="575" on="0"/>
        <pt x="365" y="575" on="1"/>
        <pt x="260" y="575" on="0"/>
        <pt x="135" y="696" on="0"/>
        <pt x="135" y="807" on="1"/>
        <pt x="135" y="868" on="0"/>
        <pt x="203" y="989" on="0"/>
        <pt x="346" y="1085" on="0"/>
        <pt x="567" y="1147" on="0"/>
        <pt x="723" y="1147" on="1"/>
        <pt x="987" y="1147" on="0"/>
        <pt x="1102" y="1051" on="1"/>
        <pt x="1163" y="1090" on="0"/>
        <pt x="1348" y="1147" on="0"/>
        <pt x="1464" y="1147" on="1"/>
        <pt x="1622" y="1147" on="0"/>
        <pt x="1862" y="1051" on="0"/>
        <pt x="2019" y="879" on="0"/>
        <pt x="2099" y="637" on="0"/>
        <pt x="2097" y="489" on="1"/>
      </contour>
      <contour>
        <pt x="1466" y="877" on="1"/>
        <pt x="1397" y="877" on="0"/>
        <pt x="1337" y="778" on="0"/>
        <pt x="1327" y="664" on="1"/>
        <pt x="1599" y="664" on="1"/>
        <pt x="1593" y="762" on="0"/>
        <pt x="1534" y="877" on="0"/>
      </contour>
      <contour>
        <pt x="797" y="565" on="1"/>
        <pt x="774" y="528" on="0"/>
        <pt x="702" y="473" on="0"/>
        <pt x="633" y="418" on="0"/>
        <pt x="582" y="356" on="0"/>
        <pt x="582" y="313" on="1"/>
        <pt x="582" y="281" on="0"/>
        <pt x="618" y="227" on="0"/>
        <pt x="670" y="227" on="1"/>
        <pt x="698" y="227" on="0"/>
        <pt x="748" y="256" on="0"/>
        <pt x="786" y="299" on="0"/>
        <pt x="811" y="352" on="0"/>
        <pt x="815" y="379" on="1"/>
        <pt x="807" y="397" on="0"/>
        <pt x="801" y="461" on="0"/>
        <pt x="799" y="492" on="1"/>
        <pt x="797" y="528" on="0"/>
      </contour>
    </TTGlyph>
    <TTGlyph name="aeacute" xMin="39" yMin="-43" xMax="2097" yMax="1548">
      <component glyphName="ae" x="0" y="0" flags="0x1204"/>
      <component glyphName="acute" x="692" y="0" flags="0x1004"/>
    </TTGlyph>
    <TTGlyph name="agrave" xMin="39" yMin="-45" xMax="1546" yMax="1548">
      <component glyphName="a" x="0" y="0" flags="0x1204"/>
      <component glyphName="grave" x="240" y="0" flags="0x1004"/>
    </TTGlyph>
    <TTGlyph name="amacron" xMin="39" yMin="-45" xMax="1546" yMax="1507">
      <component glyphName="a" x="0" y="0" flags="0x1204"/>
      <component glyphName="macron" x="248" y="0" flags="0x1004"/>
    </TTGlyph>
    <TTGlyph name="ampersand" xMin="51" yMin="-43" xMax="1954" yMax="1513">
      <contour>
        <pt x="1706" y="309" on="1"/>
        <pt x="1761" y="309" on="0"/>
        <pt x="1845" y="385" on="0"/>
        <pt x="1845" y="494" on="1"/>
        <pt x="1954" y="494" on="1"/>
        <pt x="1954" y="340" on="0"/>
        <pt x="1909" y="133" on="0"/>
        <pt x="1815" y="8" on="0"/>
        <pt x="1669" y="-43" on="0"/>
        <pt x="1567" y="-43" on="1"/>
        <pt x="1464" y="-43" on="0"/>
        <pt x="1278" y="20" on="0"/>
        <pt x="1200" y="72" on="1"/>
        <pt x="1157" y="53" on="0"/>
        <pt x="1061" y="12" on="0"/>
        <pt x="940" y="-23" on="0"/>
        <pt x="782" y="-43" on="0"/>
        <pt x="676" y="-43" on="1"/>
        <pt x="549" y="-43" on="0"/>
        <pt x="322" y="10" on="0"/>
        <pt x="152" y="119" on="0"/>
        <pt x="51" y="287" on="0"/>
        <pt x="51" y="403" on="1"/>
        <pt x="51" y="492" on="0"/>
        <pt x="113" y="633" on="0"/>
        <pt x="219" y="739" on="0"/>
        <pt x="367" y="815" on="0"/>
        <pt x="453" y="838" on="1"/>
        <pt x="403" y="915" on="0"/>
        <pt x="348" y="1063" on="0"/>
        <pt x="348" y="1122" on="1"/>
        <pt x="348" y="1243" on="0"/>
        <pt x="455" y="1395" on="0"/>
        <pt x="625" y="1481" on="0"/>
        <pt x="836" y="1513" on="0"/>
        <pt x="940" y="1513" on="1"/>
        <pt x="1030" y="1513" on="0"/>
        <pt x="1204" y="1477" on="0"/>
        <pt x="1343" y="1399" on="0"/>
        <pt x="1427" y="1278" on="0"/>
        <pt x="1427" y="1194" on="1"/>
        <pt x="1427" y="1114" on="0"/>
        <pt x="1358" y="1004" on="0"/>
        <pt x="1241" y="922" on="0"/>
        <pt x="1092" y="860" on="0"/>
        <pt x="1012" y="831" on="1"/>
        <pt x="1100" y="727" on="0"/>
        <pt x="1272" y="571" on="0"/>
        <pt x="1376" y="494" on="1"/>
        <pt x="1393" y="500" on="0"/>
        <pt x="1421" y="526" on="0"/>
        <pt x="1421" y="547" on="1"/>
        <pt x="1421" y="567" on="0"/>
        <pt x="1384" y="600" on="0"/>
        <pt x="1305" y="600" on="1"/>
        <pt x="1305" y="885" on="1"/>
        <pt x="1954" y="885" on="1"/>
        <pt x="1954" y="600" on="1"/>
        <pt x="1907" y="600" on="1"/>
        <pt x="1853" y="600" on="0"/>
        <pt x="1772" y="541" on="0"/>
        <pt x="1698" y="457" on="0"/>
        <pt x="1628" y="369" on="0"/>
        <pt x="1587" y="340" on="1"/>
        <pt x="1599" y="332" on="0"/>
        <pt x="1632" y="322" on="0"/>
        <pt x="1667" y="313" on="0"/>
        <pt x="1698" y="309" on="0"/>
      </contour>
      <contour>
        <pt x="610" y="586" on="1"/>
        <pt x="578" y="561" on="0"/>
        <pt x="551" y="475" on="0"/>
        <pt x="551" y="434" on="1"/>
        <pt x="551" y="336" on="0"/>
        <pt x="668" y="240" on="0"/>
        <pt x="754" y="240" on="1"/>
        <pt x="788" y="240" on="0"/>
        <pt x="868" y="252" on="0"/>
        <pt x="905" y="266" on="1"/>
        <pt x="856" y="309" on="0"/>
        <pt x="778" y="383" on="0"/>
        <pt x="709" y="459" on="0"/>
        <pt x="645" y="539" on="0"/>
      </contour>
      <contour>
        <pt x="1012" y="1180" on="1"/>
        <pt x="1012" y="1212" on="0"/>
        <pt x="961" y="1262" on="0"/>
        <pt x="915" y="1262" on="1"/>
        <pt x="864" y="1262" on="0"/>
        <pt x="809" y="1212" on="0"/>
        <pt x="809" y="1171" on="1"/>
        <pt x="809" y="1137" on="0"/>
        <pt x="842" y="1071" on="0"/>
        <pt x="872" y="1020" on="1"/>
        <pt x="936" y="1055" on="0"/>
        <pt x="1012" y="1120" on="0"/>
      </contour>
    </TTGlyph>
    <TTGlyph name="aogonek" xMin="39" yMin="-467" xMax="1554" yMax="1147">
      <contour>
        <pt x="575" y="963" on="1"/>
        <pt x="524" y="963" on="0"/>
        <pt x="451" y="948" on="0"/>
        <pt x="399" y="928" on="0"/>
        <pt x="365" y="903" on="0"/>
        <pt x="352" y="893" on="1"/>
        <pt x="362" y="883" on="1"/>
        <pt x="381" y="893" on="0"/>
        <pt x="426" y="913" on="0"/>
        <pt x="461" y="913" on="1"/>
        <pt x="520" y="913" on="0"/>
        <pt x="606" y="836" on="0"/>
        <pt x="606" y="752" on="1"/>
        <pt x="606" y="672" on="0"/>
        <pt x="475" y="575" on="0"/>
        <pt x="365" y="575" on="1"/>
        <pt x="260" y="575" on="0"/>
        <pt x="135" y="696" on="0"/>
        <pt x="135" y="807" on="1"/>
        <pt x="135" y="868" on="0"/>
        <pt x="203" y="989" on="0"/>
        <pt x="346" y="1085" on="0"/>
        <pt x="567" y="1147" on="0"/>
        <pt x="723" y="1147" on="1"/>
        <pt x="909" y="1147" on="0"/>
        <pt x="1145" y="1077" on="0"/>
        <pt x="1276" y="967" on="0"/>
        <pt x="1325" y="827" on="0"/>
        <pt x="1325" y="756" on="1"/>
        <pt x="1325" y="365" on="1"/>
        <pt x="1325" y="274" on="0"/>
        <pt x="1337" y="209" on="0"/>
        <pt x="1376" y="209" on="1"/>
        <pt x="1407" y="209" on="0"/>
        <pt x="1432" y="268" on="0"/>
        <pt x="1432" y="340" on="1"/>
        <pt x="1432" y="465" on="1"/>
        <pt x="1546" y="465" on="1"/>
        <pt x="1546" y="338" on="1"/>
        <pt x="1546" y="223" on="0"/>
        <pt x="1489" y="66" on="0"/>
        <pt x="1417" y="12" on="1"/>
        <pt x="1278" y="-88" on="0"/>
        <pt x="1278" y="-215" on="1"/>
        <pt x="1278" y="-262" on="0"/>
        <pt x="1319" y="-295" on="0"/>
        <pt x="1348" y="-295" on="1"/>
        <pt x="1397" y="-295" on="0"/>
        <pt x="1450" y="-221" on="1"/>
        <pt x="1554" y="-305" on="1"/>
        <pt x="1483" y="-391" on="0"/>
        <pt x="1329" y="-467" on="0"/>
        <pt x="1251" y="-467" on="1"/>
        <pt x="1137" y="-467" on="0"/>
        <pt x="1038" y="-365" on="0"/>
        <pt x="1038" y="-295" on="1"/>
        <pt x="1038" y="-229" on="0"/>
        <pt x="1104" y="-102" on="0"/>
        <pt x="1182" y="-41" on="1"/>
        <pt x="1176" y="-41" on="1"/>
        <pt x="1075" y="-41" on="0"/>
        <pt x="942" y="2" on="0"/>
        <pt x="864" y="66" on="0"/>
        <pt x="831" y="135" on="0"/>
        <pt x="831" y="162" on="1"/>
        <pt x="815" y="162" on="1"/>
        <pt x="809" y="121" on="0"/>
        <pt x="752" y="47" on="0"/>
        <pt x="651" y="-10" on="0"/>
        <pt x="510" y="-45" on="0"/>
        <pt x="420" y="-45" on="1"/>
        <pt x="334" y="-45" on="0"/>
        <pt x="193" y="-12" on="0"/>
        <pt x="94" y="59" on="0"/>
        <pt x="39" y="172" on="0"/>
        <pt x="39" y="250" on="1"/>
        <pt x="39" y="346" on="0"/>
        <pt x="147" y="457" on="0"/>
        <pt x="311" y="522" on="0"/>
        <pt x="504" y="563" on="0"/>
        <pt x="668" y="621" on="0"/>
        <pt x="776" y="713" on="0"/>
        <pt x="776" y="797" on="1"/>
        <pt x="776" y="872" on="0"/>
        <pt x="682" y="963" on="0"/>
      </contour>
      <contour>
        <pt x="776" y="530" on="1"/>
        <pt x="754" y="498" on="0"/>
        <pt x="688" y="459" on="0"/>
        <pt x="627" y="422" on="0"/>
        <pt x="582" y="371" on="0"/>
        <pt x="582" y="328" on="1"/>
        <pt x="582" y="295" on="0"/>
        <pt x="618" y="242" on="0"/>
        <pt x="670" y="242" on="1"/>
        <pt x="717" y="242" on="0"/>
        <pt x="776" y="315" on="0"/>
        <pt x="776" y="381" on="1"/>
      </contour>
    </TTGlyph>
    <TTGlyph name="approxequal" xMin="154" yMin="213" xMax="1280" yMax="1219">
      <contour>
        <pt x="543" y="885" on="1"/>
        <pt x="504" y="885" on="0"/>
        <pt x="434" y="834" on="0"/>
        <pt x="424" y="782" on="1"/>
        <pt x="154" y="782" on="1"/>
        <pt x="164" y="862" on="0"/>
        <pt x="213" y="1018" on="0"/>
        <pt x="299" y="1143" on="0"/>
        <pt x="424" y="1219" on="0"/>
        <pt x="510" y="1219" on="1"/>
        <pt x="575" y="1219" on="0"/>
        <pt x="678" y="1186" on="0"/>
        <pt x="766" y="1149" on="0"/>
        <pt x="846" y="1116" on="0"/>
        <pt x="889" y="1116" on="1"/>
        <pt x="928" y="1116" on="0"/>
        <pt x="999" y="1167" on="0"/>
        <pt x="1010" y="1219" on="1"/>
        <pt x="1280" y="1219" on="1"/>
        <pt x="1270" y="1139" on="0"/>
        <pt x="1221" y="983" on="0"/>
        <pt x="1135" y="858" on="0"/>
        <pt x="1008" y="782" on="0"/>
        <pt x="922" y="782" on="1"/>
        <pt x="856" y="782" on="0"/>
        <pt x="754" y="815" on="0"/>
        <pt x="666" y="852" on="0"/>
        <pt x="586" y="885" on="0"/>
      </contour>
      <contour>
        <pt x="543" y="315" on="1"/>
        <pt x="504" y="315" on="0"/>
        <pt x="434" y="264" on="0"/>
        <pt x="424" y="213" on="1"/>
        <pt x="154" y="213" on="1"/>
        <pt x="164" y="293" on="0"/>
        <pt x="213" y="449" on="0"/>
        <pt x="299" y="573" on="0"/>
        <pt x="424" y="649" on="0"/>
        <pt x="510" y="649" on="1"/>
        <pt x="575" y="649" on="0"/>
        <pt x="678" y="616" on="0"/>
        <pt x="766" y="580" on="0"/>
        <pt x="846" y="547" on="0"/>
        <pt x="889" y="547" on="1"/>
        <pt x="928" y="547" on="0"/>
        <pt x="999" y="598" on="0"/>
        <pt x="1010" y="649" on="1"/>
        <pt x="1280" y="649" on="1"/>
        <pt x="1270" y="569" on="0"/>
        <pt x="1221" y="414" on="0"/>
        <pt x="1135" y="289" on="0"/>
        <pt x="1008" y="213" on="0"/>
        <pt x="922" y="213" on="1"/>
        <pt x="856" y="213" on="0"/>
        <pt x="754" y="246" on="0"/>
        <pt x="666" y="283" on="0"/>
        <pt x="586" y="315" on="0"/>
      </contour>
    </TTGlyph>
    <TTGlyph name="aring" xMin="39" yMin="-45" xMax="1546" yMax="1751">
      <component glyphName="a" x="0" y="0" flags="0x1204"/>
      <component glyphName="ring" x="248" y="0" flags="0x1004"/>
    </TTGlyph>
    <TTGlyph name="asciicircum" xMin="123" yMin="860" xMax="1311" yMax="1473">
      <contour>
        <pt x="1311" y="860" on="1"/>
        <pt x="967" y="860" on="1"/>
        <pt x="717" y="1151" on="1"/>
        <pt x="465" y="860" on="1"/>
        <pt x="123" y="860" on="1"/>
        <pt x="496" y="1473" on="1"/>
        <pt x="940" y="1473" on="1"/>
      </contour>
    </TTGlyph>
    <TTGlyph name="asciitilde" xMin="154" yMin="496" xMax="1280" yMax="932">
      <contour>
        <pt x="543" y="598" on="1"/>
        <pt x="504" y="598" on="0"/>
        <pt x="434" y="547" on="0"/>
        <pt x="424" y="496" on="1"/>
        <pt x="154" y="496" on="1"/>
        <pt x="164" y="575" on="0"/>
        <pt x="213" y="731" on="0"/>
        <pt x="299" y="856" on="0"/>
        <pt x="424" y="932" on="0"/>
        <pt x="510" y="932" on="1"/>
        <pt x="575" y="932" on="0"/>
        <pt x="678" y="899" on="0"/>
        <pt x="766" y="862" on="0"/>
        <pt x="846" y="829" on="0"/>
        <pt x="889" y="829" on="1"/>
        <pt x="928" y="829" on="0"/>
        <pt x="999" y="881" on="0"/>
        <pt x="1010" y="932" on="1"/>
        <pt x="1280" y="932" on="1"/>
        <pt x="1270" y="852" on="0"/>
        <pt x="1221" y="696" on="0"/>
        <pt x="1135" y="571" on="0"/>
        <pt x="1008" y="496" on="0"/>
        <pt x="922" y="496" on="1"/>
        <pt x="856" y="496" on="0"/>
        <pt x="754" y="528" on="0"/>
        <pt x="666" y="565" on="0"/>
        <pt x="586" y="598" on="0"/>
      </contour>
    </TTGlyph>
    <TTGlyph name="asterisk" xMin="123" yMin="627" xMax="946" yMax="1528">
      <contour>
        <pt x="389" y="1268" on="1"/>
        <pt x="410" y="1239" on="0"/>
        <pt x="459" y="1174" on="0"/>
        <pt x="496" y="1143" on="1"/>
        <pt x="489" y="1192" on="0"/>
        <pt x="459" y="1274" on="0"/>
        <pt x="442" y="1305" on="1"/>
        <pt x="428" y="1333" on="0"/>
        <pt x="406" y="1389" on="0"/>
        <pt x="406" y="1411" on="1"/>
        <pt x="406" y="1462" on="0"/>
        <pt x="475" y="1528" on="0"/>
        <pt x="535" y="1528" on="1"/>
        <pt x="594" y="1528" on="0"/>
        <pt x="664" y="1454" on="0"/>
        <pt x="664" y="1407" on="1"/>
        <pt x="664" y="1384" on="0"/>
        <pt x="645" y="1339" on="0"/>
        <pt x="629" y="1311" on="1"/>
        <pt x="612" y="1280" on="0"/>
        <pt x="580" y="1196" on="0"/>
        <pt x="569" y="1141" on="1"/>
        <pt x="606" y="1167" on="0"/>
        <pt x="659" y="1233" on="0"/>
        <pt x="682" y="1266" on="1"/>
        <pt x="711" y="1309" on="0"/>
        <pt x="768" y="1370" on="0"/>
        <pt x="819" y="1370" on="1"/>
        <pt x="870" y="1370" on="0"/>
        <pt x="946" y="1292" on="0"/>
        <pt x="946" y="1239" on="1"/>
        <pt x="946" y="1169" on="0"/>
        <pt x="862" y="1114" on="0"/>
        <pt x="778" y="1110" on="1"/>
        <pt x="725" y="1106" on="0"/>
        <pt x="641" y="1094" on="0"/>
        <pt x="606" y="1079" on="1"/>
        <pt x="657" y="1057" on="0"/>
        <pt x="754" y="1047" on="0"/>
        <pt x="805" y="1042" on="1"/>
        <pt x="872" y="1038" on="0"/>
        <pt x="946" y="975" on="0"/>
        <pt x="946" y="922" on="1"/>
        <pt x="946" y="860" on="0"/>
        <pt x="868" y="780" on="0"/>
        <pt x="821" y="780" on="1"/>
        <pt x="768" y="780" on="0"/>
        <pt x="711" y="842" on="0"/>
        <pt x="682" y="887" on="1"/>
        <pt x="662" y="915" on="0"/>
        <pt x="610" y="985" on="0"/>
        <pt x="573" y="1014" on="1"/>
        <pt x="580" y="963" on="0"/>
        <pt x="612" y="885" on="0"/>
        <pt x="629" y="852" on="1"/>
        <pt x="645" y="823" on="0"/>
        <pt x="666" y="770" on="0"/>
        <pt x="666" y="745" on="1"/>
        <pt x="666" y="696" on="0"/>
        <pt x="596" y="627" on="0"/>
        <pt x="537" y="627" on="1"/>
        <pt x="477" y="627" on="0"/>
        <pt x="408" y="690" on="0"/>
        <pt x="408" y="745" on="1"/>
        <pt x="408" y="768" on="0"/>
        <pt x="426" y="819" on="0"/>
        <pt x="442" y="848" on="1"/>
        <pt x="459" y="881" on="0"/>
        <pt x="492" y="958" on="0"/>
        <pt x="500" y="1012" on="1"/>
        <pt x="465" y="985" on="0"/>
        <pt x="414" y="918" on="0"/>
        <pt x="391" y="887" on="1"/>
        <pt x="362" y="844" on="0"/>
        <pt x="305" y="782" on="0"/>
        <pt x="254" y="782" on="1"/>
        <pt x="199" y="782" on="0"/>
        <pt x="123" y="866" on="0"/>
        <pt x="123" y="922" on="1"/>
        <pt x="123" y="987" on="0"/>
        <pt x="219" y="1042" on="0"/>
        <pt x="279" y="1042" on="1"/>
        <pt x="324" y="1047" on="0"/>
        <pt x="418" y="1057" on="0"/>
        <pt x="463" y="1075" on="1"/>
        <pt x="379" y="1112" on="0"/>
        <pt x="242" y="1112" on="1"/>
        <pt x="199" y="1112" on="0"/>
        <pt x="123" y="1178" on="0"/>
        <pt x="123" y="1231" on="1"/>
        <pt x="123" y="1286" on="0"/>
        <pt x="197" y="1368" on="0"/>
        <pt x="254" y="1368" on="1"/>
        <pt x="307" y="1368" on="0"/>
        <pt x="360" y="1311" on="0"/>
      </contour>
    </TTGlyph>
    <TTGlyph name="at" xMin="102" yMin="-184" xMax="1821" yMax="1513">
      <contour>
        <pt x="1313" y="188" on="1"/>
        <pt x="1229" y="188" on="0"/>
        <pt x="1112" y="254" on="0"/>
        <pt x="1083" y="313" on="1"/>
        <pt x="1032" y="252" on="0"/>
        <pt x="903" y="190" on="0"/>
        <pt x="834" y="190" on="1"/>
        <pt x="676" y="190" on="0"/>
        <pt x="500" y="383" on="0"/>
        <pt x="500" y="549" on="1"/>
        <pt x="500" y="659" on="0"/>
        <pt x="588" y="860" on="0"/>
        <pt x="733" y="1014" on="0"/>
        <pt x="920" y="1104" on="0"/>
        <pt x="1020" y="1104" on="1"/>
        <pt x="1157" y="1104" on="0"/>
        <pt x="1221" y="1022" on="1"/>
        <pt x="1237" y="1083" on="1"/>
        <pt x="1530" y="1083" on="1"/>
        <pt x="1354" y="453" on="1"/>
        <pt x="1350" y="434" on="0"/>
        <pt x="1343" y="403" on="0"/>
        <pt x="1343" y="387" on="1"/>
        <pt x="1343" y="365" on="0"/>
        <pt x="1366" y="334" on="0"/>
        <pt x="1395" y="334" on="1"/>
        <pt x="1450" y="334" on="0"/>
        <pt x="1548" y="422" on="0"/>
        <pt x="1624" y="563" on="0"/>
        <pt x="1669" y="739" on="0"/>
        <pt x="1669" y="829" on="1"/>
        <pt x="1669" y="956" on="0"/>
        <pt x="1581" y="1157" on="0"/>
        <pt x="1427" y="1294" on="0"/>
        <pt x="1217" y="1368" on="0"/>
        <pt x="1092" y="1368" on="1"/>
        <pt x="922" y="1368" on="0"/>
        <pt x="641" y="1247" on="0"/>
        <pt x="436" y="1034" on="0"/>
        <pt x="324" y="750" on="0"/>
        <pt x="324" y="588" on="1"/>
        <pt x="324" y="436" on="0"/>
        <pt x="420" y="205" on="0"/>
        <pt x="600" y="45" on="0"/>
        <pt x="856" y="-37" on="0"/>
        <pt x="1016" y="-37" on="1"/>
        <pt x="1087" y="-37" on="0"/>
        <pt x="1229" y="-20" on="0"/>
        <pt x="1376" y="25" on="0"/>
        <pt x="1534" y="104" on="0"/>
        <pt x="1620" y="168" on="1"/>
        <pt x="1696" y="55" on="1"/>
        <pt x="1378" y="-184" on="0"/>
        <pt x="1018" y="-184" on="1"/>
        <pt x="811" y="-184" on="0"/>
        <pt x="475" y="-74" on="0"/>
        <pt x="233" y="133" on="0"/>
        <pt x="102" y="428" on="0"/>
        <pt x="102" y="612" on="1"/>
        <pt x="102" y="803" on="0"/>
        <pt x="256" y="1133" on="0"/>
        <pt x="520" y="1376" on="0"/>
        <pt x="872" y="1513" on="0"/>
        <pt x="1069" y="1513" on="1"/>
        <pt x="1235" y="1513" on="0"/>
        <pt x="1511" y="1415" on="0"/>
        <pt x="1710" y="1235" on="0"/>
        <pt x="1821" y="985" on="0"/>
        <pt x="1821" y="831" on="1"/>
        <pt x="1821" y="698" on="0"/>
        <pt x="1745" y="465" on="0"/>
        <pt x="1610" y="289" on="0"/>
        <pt x="1423" y="188" on="0"/>
      </contour>
      <contour>
        <pt x="1069" y="946" on="1"/>
        <pt x="1018" y="946" on="0"/>
        <pt x="928" y="831" on="0"/>
        <pt x="860" y="672" on="0"/>
        <pt x="821" y="500" on="0"/>
        <pt x="821" y="442" on="1"/>
        <pt x="821" y="350" on="0"/>
        <pt x="887" y="350" on="1"/>
        <pt x="932" y="350" on="0"/>
        <pt x="1018" y="473" on="0"/>
        <pt x="1085" y="643" on="0"/>
        <pt x="1124" y="823" on="0"/>
        <pt x="1124" y="883" on="1"/>
        <pt x="1124" y="913" on="0"/>
        <pt x="1092" y="946" on="0"/>
      </contour>
    </TTGlyph>
    <TTGlyph name="atilde" xMin="39" yMin="-45" xMax="1546" yMax="1546">
      <component glyphName="a" x="0" y="0" flags="0x1204"/>
      <component glyphName="tilde" x="248" y="0" flags="0x1004"/>
    </TTGlyph>
    <TTGlyph name="b" xMin="31" yMin="-33" xMax="1585" yMax="1473">
      <contour>
        <pt x="723" y="326" on="1"/>
        <pt x="739" y="299" on="0"/>
        <pt x="831" y="268" on="0"/>
        <pt x="870" y="268" on="1"/>
        <pt x="915" y="268" on="0"/>
        <pt x="971" y="313" on="0"/>
        <pt x="1004" y="389" on="0"/>
        <pt x="1016" y="489" on="0"/>
        <pt x="1016" y="543" on="1"/>
        <pt x="1016" y="596" on="0"/>
        <pt x="1004" y="692" on="0"/>
        <pt x="971" y="764" on="0"/>
        <pt x="913" y="805" on="0"/>
        <pt x="868" y="805" on="1"/>
        <pt x="823" y="805" on="0"/>
        <pt x="768" y="764" on="0"/>
        <pt x="735" y="692" on="0"/>
        <pt x="723" y="596" on="0"/>
        <pt x="723" y="543" on="1"/>
      </contour>
      <contour>
        <pt x="1098" y="1137" on="1"/>
        <pt x="1327" y="1137" on="0"/>
        <pt x="1585" y="840" on="0"/>
        <pt x="1585" y="553" on="1"/>
        <pt x="1585" y="266" on="0"/>
        <pt x="1315" y="-33" on="0"/>
        <pt x="1079" y="-33" on="1"/>
        <pt x="995" y="-33" on="0"/>
        <pt x="868" y="-2" on="0"/>
        <pt x="768" y="47" on="0"/>
        <pt x="686" y="111" on="0"/>
        <pt x="647" y="143" on="1"/>
        <pt x="633" y="143" on="1"/>
        <pt x="598" y="0" on="1"/>
        <pt x="174" y="0" on="1"/>
        <pt x="174" y="989" on="1"/>
        <pt x="174" y="1047" on="0"/>
        <pt x="100" y="1102" on="0"/>
        <pt x="53" y="1102" on="1"/>
        <pt x="31" y="1102" on="1"/>
        <pt x="31" y="1473" on="1"/>
        <pt x="723" y="1473" on="1"/>
        <pt x="723" y="1092" on="1"/>
        <pt x="723" y="909" on="1"/>
        <pt x="739" y="909" on="1"/>
        <pt x="754" y="952" on="0"/>
        <pt x="807" y="1034" on="0"/>
        <pt x="893" y="1098" on="0"/>
        <pt x="1016" y="1137" on="0"/>
      </contour>
    </TTGlyph>
    <TTGlyph name="backslash" xMin="102" yMin="0" xMax="819" yMax="1473">
      <contour>
        <pt x="819" y="0" on="1"/>
        <pt x="530" y="0" on="1"/>
        <pt x="102" y="1473" on="1"/>
        <pt x="391" y="1473" on="1"/>
      </contour>
    </TTGlyph>
    <TTGlyph name="bar" xMin="205" yMin="-483" xMax="512" yMax="1565">
      <contour>
        <pt x="512" y="1565" on="1"/>
        <pt x="512" y="-483" on="1"/>
        <pt x="205" y="-483" on="1"/>
        <pt x="205" y="1565" on="1"/>
      </contour>
    </TTGlyph>
    <TTGlyph name="braceleft" xMin="41" yMin="-301" xMax="940" yMax="1513">
      <contour>
        <pt x="940" y="1227" on="1"/>
        <pt x="874" y="1227" on="0"/>
        <pt x="793" y="1202" on="0"/>
        <pt x="748" y="1147" on="0"/>
        <pt x="731" y="1055" on="0"/>
        <pt x="731" y="983" on="1"/>
        <pt x="731" y="926" on="1"/>
        <pt x="731" y="860" on="0"/>
        <pt x="715" y="762" on="0"/>
        <pt x="664" y="688" on="0"/>
        <pt x="563" y="633" on="0"/>
        <pt x="481" y="614" on="1"/>
        <pt x="481" y="598" on="1"/>
        <pt x="563" y="580" on="0"/>
        <pt x="664" y="524" on="0"/>
        <pt x="715" y="451" on="0"/>
        <pt x="731" y="350" on="0"/>
        <pt x="731" y="287" on="1"/>
        <pt x="731" y="229" on="1"/>
        <pt x="731" y="158" on="0"/>
        <pt x="748" y="63" on="0"/>
        <pt x="793" y="8" on="0"/>
        <pt x="874" y="-14" on="0"/>
        <pt x="940" y="-14" on="1"/>
        <pt x="940" y="-301" on="1"/>
        <pt x="731" y="-301" on="0"/>
        <pt x="457" y="-248" on="0"/>
        <pt x="293" y="-145" on="0"/>
        <pt x="227" y="6" on="0"/>
        <pt x="227" y="106" on="1"/>
        <pt x="227" y="203" on="1"/>
        <pt x="227" y="283" on="0"/>
        <pt x="215" y="391" on="0"/>
        <pt x="176" y="459" on="0"/>
        <pt x="102" y="487" on="0"/>
        <pt x="41" y="487" on="1"/>
        <pt x="41" y="727" on="1"/>
        <pt x="98" y="727" on="0"/>
        <pt x="172" y="756" on="0"/>
        <pt x="213" y="823" on="0"/>
        <pt x="227" y="930" on="0"/>
        <pt x="227" y="1010" on="1"/>
        <pt x="227" y="1106" on="1"/>
        <pt x="227" y="1206" on="0"/>
        <pt x="293" y="1358" on="0"/>
        <pt x="457" y="1460" on="0"/>
        <pt x="731" y="1513" on="0"/>
        <pt x="940" y="1513" on="1"/>
      </contour>
    </TTGlyph>
    <TTGlyph name="braceright" xMin="61" yMin="-301" xMax="961" yMax="1513">
      <contour>
        <pt x="61" y="1513" on="1"/>
        <pt x="270" y="1513" on="0"/>
        <pt x="545" y="1460" on="0"/>
        <pt x="709" y="1358" on="0"/>
        <pt x="774" y="1206" on="0"/>
        <pt x="774" y="1106" on="1"/>
        <pt x="774" y="1010" on="1"/>
        <pt x="774" y="930" on="0"/>
        <pt x="788" y="823" on="0"/>
        <pt x="829" y="756" on="0"/>
        <pt x="901" y="727" on="0"/>
        <pt x="961" y="727" on="1"/>
        <pt x="961" y="487" on="1"/>
        <pt x="899" y="487" on="0"/>
        <pt x="825" y="459" on="0"/>
        <pt x="786" y="391" on="0"/>
        <pt x="774" y="283" on="0"/>
        <pt x="774" y="203" on="1"/>
        <pt x="774" y="106" on="1"/>
        <pt x="774" y="6" on="0"/>
        <pt x="709" y="-145" on="0"/>
        <pt x="545" y="-248" on="0"/>
        <pt x="270" y="-301" on="0"/>
        <pt x="61" y="-301" on="1"/>
        <pt x="61" y="-14" on="1"/>
        <pt x="127" y="-14" on="0"/>
        <pt x="209" y="8" on="0"/>
        <pt x="254" y="63" on="0"/>
        <pt x="270" y="158" on="0"/>
        <pt x="270" y="229" on="1"/>
        <pt x="270" y="287" on="1"/>
        <pt x="270" y="350" on="0"/>
        <pt x="287" y="451" on="0"/>
        <pt x="338" y="524" on="0"/>
        <pt x="436" y="580" on="0"/>
        <pt x="520" y="598" on="1"/>
        <pt x="520" y="614" on="1"/>
        <pt x="436" y="633" on="0"/>
        <pt x="338" y="688" on="0"/>
        <pt x="287" y="762" on="0"/>
        <pt x="270" y="860" on="0"/>
        <pt x="270" y="926" on="1"/>
        <pt x="270" y="983" on="1"/>
        <pt x="270" y="1055" on="0"/>
        <pt x="254" y="1147" on="0"/>
        <pt x="209" y="1202" on="0"/>
        <pt x="127" y="1227" on="0"/>
        <pt x="61" y="1227" on="1"/>
      </contour>
    </TTGlyph>
    <TTGlyph name="bracketleft" xMin="123" yMin="-266" xMax="834" yMax="1473">
      <contour>
        <pt x="123" y="-266" on="1"/>
        <pt x="123" y="1473" on="1"/>
        <pt x="834" y="1473" on="1"/>
        <pt x="834" y="1190" on="1"/>
        <pt x="651" y="1190" on="1"/>
        <pt x="651" y="16" on="1"/>
        <pt x="834" y="16" on="1"/>
        <pt x="834" y="-266" on="1"/>
      </contour>
    </TTGlyph>
    <TTGlyph name="bracketright" xMin="102" yMin="-266" xMax="813" yMax="1473">
      <contour>
        <pt x="102" y="-266" on="1"/>
        <pt x="102" y="16" on="1"/>
        <pt x="285" y="16" on="1"/>
        <pt x="285" y="1190" on="1"/>
        <pt x="102" y="1190" on="1"/>
        <pt x="102" y="1473" on="1"/>
        <pt x="813" y="1473" on="1"/>
        <pt x="813" y="-266" on="1"/>
      </contour>
    </TTGlyph>
    <TTGlyph name="breve" xMin="143" yMin="1239" xMax="879" yMax="1548">
      <contour>
        <pt x="340" y="1548" on="1"/>
        <pt x="348" y="1528" on="0"/>
        <pt x="373" y="1491" on="0"/>
        <pt x="410" y="1462" on="0"/>
        <pt x="469" y="1446" on="0"/>
        <pt x="512" y="1446" on="1"/>
        <pt x="555" y="1446" on="0"/>
        <pt x="612" y="1462" on="0"/>
        <pt x="649" y="1491" on="0"/>
        <pt x="672" y="1528" on="0"/>
        <pt x="682" y="1548" on="1"/>
        <pt x="879" y="1548" on="1"/>
        <pt x="868" y="1399" on="0"/>
        <pt x="678" y="1239" on="0"/>
        <pt x="512" y="1239" on="1"/>
        <pt x="346" y="1239" on="0"/>
        <pt x="154" y="1397" on="0"/>
        <pt x="143" y="1548" on="1"/>
      </contour>
    </TTGlyph>
    <TTGlyph name="brokenbar" xMin="205" yMin="-350" xMax="512" yMax="1432">
      <contour>
        <pt x="512" y="408" on="1"/>
        <pt x="512" y="-350" on="1"/>
        <pt x="205" y="-350" on="1"/>
        <pt x="205" y="408" on="1"/>
      </contour>
      <contour>
        <pt x="512" y="1432" on="1"/>
        <pt x="512" y="674" on="1"/>
        <pt x="205" y="674" on="1"/>
        <pt x="205" y="1432" on="1"/>
      </contour>
    </TTGlyph>
    <TTGlyph name="bullet" xMin="102" yMin="434" xMax="694" yMax="1026">
      <contour>
        <pt x="102" y="731" on="1"/>
        <pt x="102" y="793" on="0"/>
        <pt x="150" y="899" on="0"/>
        <pt x="231" y="979" on="0"/>
        <pt x="338" y="1026" on="0"/>
        <pt x="399" y="1026" on="1"/>
        <pt x="459" y="1026" on="0"/>
        <pt x="567" y="979" on="0"/>
        <pt x="647" y="899" on="0"/>
        <pt x="694" y="791" on="0"/>
        <pt x="694" y="731" on="1"/>
        <pt x="694" y="672" on="0"/>
        <pt x="647" y="563" on="0"/>
        <pt x="567" y="481" on="0"/>
        <pt x="459" y="434" on="0"/>
        <pt x="397" y="434" on="1"/>
        <pt x="336" y="434" on="0"/>
        <pt x="227" y="481" on="0"/>
        <pt x="147" y="563" on="0"/>
        <pt x="102" y="670" on="0"/>
      </contour>
    </TTGlyph>
    <TTGlyph name="c" xMin="41" yMin="-43" xMax="1292" yMax="1147">
      <contour>
        <pt x="788" y="877" on="1"/>
        <pt x="702" y="877" on="0"/>
        <pt x="610" y="731" on="0"/>
        <pt x="610" y="561" on="1"/>
        <pt x="610" y="391" on="0"/>
        <pt x="705" y="248" on="0"/>
        <pt x="803" y="248" on="1"/>
        <pt x="831" y="248" on="0"/>
        <pt x="889" y="266" on="0"/>
        <pt x="936" y="301" on="0"/>
        <pt x="967" y="356" on="0"/>
        <pt x="969" y="393" on="1"/>
        <pt x="1292" y="393" on="1"/>
        <pt x="1260" y="170" on="0"/>
        <pt x="965" y="-43" on="0"/>
        <pt x="692" y="-43" on="1"/>
        <pt x="555" y="-43" on="0"/>
        <pt x="317" y="29" on="0"/>
        <pt x="141" y="176" on="0"/>
        <pt x="41" y="399" on="0"/>
        <pt x="41" y="553" on="1"/>
        <pt x="41" y="700" on="0"/>
        <pt x="141" y="922" on="0"/>
        <pt x="322" y="1071" on="0"/>
        <pt x="569" y="1147" on="0"/>
        <pt x="717" y="1147" on="1"/>
        <pt x="874" y="1147" on="0"/>
        <pt x="1090" y="1069" on="0"/>
        <pt x="1223" y="952" on="0"/>
        <pt x="1280" y="817" on="0"/>
        <pt x="1280" y="758" on="1"/>
        <pt x="1280" y="711" on="0"/>
        <pt x="1253" y="621" on="0"/>
        <pt x="1192" y="547" on="0"/>
        <pt x="1098" y="502" on="0"/>
        <pt x="1030" y="502" on="1"/>
        <pt x="965" y="502" on="0"/>
        <pt x="883" y="539" on="0"/>
        <pt x="838" y="594" on="0"/>
        <pt x="819" y="655" on="0"/>
        <pt x="819" y="682" on="1"/>
        <pt x="819" y="743" on="0"/>
        <pt x="877" y="815" on="0"/>
        <pt x="915" y="829" on="1"/>
        <pt x="893" y="846" on="0"/>
        <pt x="848" y="877" on="0"/>
      </contour>
    </TTGlyph>
    <TTGlyph name="cacute" xMin="41" yMin="-43" xMax="1292" yMax="1548">
      <component glyphName="c" x="0" y="0" flags="0x1204"/>
      <component glyphName="acute" x="291" y="0" flags="0x1004"/>
    </TTGlyph>
    <TTGlyph name="caron" xMin="109" yMin="1239" xMax="913" yMax="1548">
      <contour>
        <pt x="109" y="1548" on="1"/>
        <pt x="352" y="1548" on="1"/>
        <pt x="510" y="1438" on="1"/>
        <pt x="670" y="1548" on="1"/>
        <pt x="913" y="1548" on="1"/>
        <pt x="666" y="1239" on="1"/>
        <pt x="356" y="1239" on="1"/>
      </contour>
    </TTGlyph>
    <TTGlyph name="ccaron" xMin="41" yMin="-43" xMax="1292" yMax="1548">
      <component glyphName="c" x="0" y="0" flags="0x1204"/>
      <component glyphName="caron" x="205" y="0" flags="0x1004"/>
    </TTGlyph>
    <TTGlyph name="ccedilla" xMin="41" yMin="-508" xMax="1292" yMax="1147">
      <component glyphName="c" x="0" y="0" flags="0x1204"/>
      <component glyphName="cedilla" x="178" y="-19" flags="0x1004"/>
    </TTGlyph>
    <TTGlyph name="ccircumflex" xMin="41" yMin="-43" xMax="1292" yMax="1548">
      <component glyphName="c" x="0" y="0" flags="0x1204"/>
      <component glyphName="circumflex" x="205" y="0" flags="0x1004"/>
    </TTGlyph>
    <TTGlyph name="cdotaccent" xMin="41" yMin="-43" xMax="1292" yMax="1573">
      <component glyphName="c" x="0" y="0" flags="0x1204"/>
      <component glyphName="dotaccent" x="205" y="0" flags="0x1004"/>
    </TTGlyph>
    <TTGlyph name="cedilla" xMin="174" yMin="-489" xMax="807" yMax="20">
      <contour>
        <pt x="244" y="-248" on="1"/>
        <pt x="309" y="-287" on="0"/>
        <pt x="444" y="-334" on="0"/>
        <pt x="487" y="-334" on="1"/>
        <pt x="514" y="-334" on="0"/>
        <pt x="559" y="-309" on="0"/>
        <pt x="559" y="-279" on="1"/>
        <pt x="559" y="-256" on="0"/>
        <pt x="524" y="-217" on="0"/>
        <pt x="487" y="-217" on="1"/>
        <pt x="475" y="-217" on="0"/>
        <pt x="424" y="-221" on="0"/>
        <pt x="406" y="-225" on="1"/>
        <pt x="406" y="20" on="1"/>
        <pt x="535" y="20" on="1"/>
        <pt x="535" y="-94" on="1"/>
        <pt x="563" y="-90" on="0"/>
        <pt x="580" y="-88" on="0"/>
        <pt x="592" y="-88" on="1"/>
        <pt x="702" y="-88" on="0"/>
        <pt x="807" y="-205" on="0"/>
        <pt x="807" y="-281" on="1"/>
        <pt x="807" y="-365" on="0"/>
        <pt x="676" y="-489" on="0"/>
        <pt x="551" y="-489" on="1"/>
        <pt x="434" y="-489" on="0"/>
        <pt x="260" y="-434" on="0"/>
        <pt x="174" y="-393" on="1"/>
      </contour>
    </TTGlyph>
    <TTGlyph name="cent" xMin="41" yMin="0" xMax="1165" yMax="1452">
      <contour>
        <pt x="514" y="215" on="1"/>
        <pt x="412" y="229" on="0"/>
        <pt x="238" y="307" on="0"/>
        <pt x="113" y="438" on="0"/>
        <pt x="41" y="623" on="0"/>
        <pt x="41" y="743" on="1"/>
        <pt x="41" y="858" on="0"/>
        <pt x="111" y="1038" on="0"/>
        <pt x="236" y="1171" on="0"/>
        <pt x="410" y="1251" on="0"/>
        <pt x="514" y="1268" on="1"/>
        <pt x="514" y="1452" on="1"/>
        <pt x="717" y="1452" on="1"/>
        <pt x="717" y="1276" on="1"/>
        <pt x="838" y="1266" on="0"/>
        <pt x="1006" y="1192" on="0"/>
        <pt x="1108" y="1092" on="0"/>
        <pt x="1153" y="977" on="0"/>
        <pt x="1153" y="928" on="1"/>
        <pt x="1153" y="887" on="0"/>
        <pt x="1128" y="805" on="0"/>
        <pt x="1075" y="739" on="0"/>
        <pt x="991" y="698" on="0"/>
        <pt x="930" y="698" on="1"/>
        <pt x="870" y="698" on="0"/>
        <pt x="797" y="731" on="0"/>
        <pt x="756" y="780" on="0"/>
        <pt x="739" y="836" on="0"/>
        <pt x="739" y="860" on="1"/>
        <pt x="739" y="915" on="0"/>
        <pt x="793" y="981" on="0"/>
        <pt x="827" y="993" on="1"/>
        <pt x="807" y="1008" on="0"/>
        <pt x="766" y="1034" on="0"/>
        <pt x="713" y="1034" on="1"/>
        <pt x="635" y="1034" on="0"/>
        <pt x="553" y="905" on="0"/>
        <pt x="553" y="752" on="1"/>
        <pt x="553" y="598" on="0"/>
        <pt x="639" y="471" on="0"/>
        <pt x="725" y="471" on="1"/>
        <pt x="778" y="471" on="0"/>
        <pt x="870" y="535" on="0"/>
        <pt x="874" y="600" on="1"/>
        <pt x="1165" y="600" on="1"/>
        <pt x="1139" y="418" on="0"/>
        <pt x="918" y="229" on="0"/>
        <pt x="717" y="213" on="1"/>
        <pt x="717" y="0" on="1"/>
        <pt x="514" y="0" on="1"/>
      </contour>
    </TTGlyph>
    <TTGlyph name="circumflex" xMin="109" yMin="1239" xMax="913" yMax="1548">
      <contour>
        <pt x="356" y="1548" on="1"/>
        <pt x="666" y="1548" on="1"/>
        <pt x="913" y="1239" on="1"/>
        <pt x="670" y="1239" on="1"/>
        <pt x="510" y="1350" on="1"/>
        <pt x="352" y="1239" on="1"/>
        <pt x="109" y="1239" on="1"/>
      </contour>
    </TTGlyph>
    <TTGlyph name="colon" xMin="123" yMin="-43" xMax="631" yMax="1102">
      <contour>
        <pt x="123" y="211" on="1"/>
        <pt x="123" y="262" on="0"/>
        <pt x="164" y="356" on="0"/>
        <pt x="231" y="424" on="0"/>
        <pt x="324" y="465" on="0"/>
        <pt x="377" y="465" on="1"/>
        <pt x="428" y="465" on="0"/>
        <pt x="522" y="424" on="0"/>
        <pt x="590" y="356" on="0"/>
        <pt x="631" y="262" on="0"/>
        <pt x="631" y="211" on="1"/>
        <pt x="631" y="158" on="0"/>
        <pt x="590" y="66" on="0"/>
        <pt x="522" y="-2" on="0"/>
        <pt x="428" y="-43" on="0"/>
        <pt x="377" y="-43" on="1"/>
        <pt x="324" y="-43" on="0"/>
        <pt x="231" y="-2" on="0"/>
        <pt x="164" y="66" on="0"/>
        <pt x="123" y="158" on="0"/>
      </contour>
      <contour>
        <pt x="123" y="848" on="1"/>
        <pt x="123" y="899" on="0"/>
        <pt x="164" y="993" on="0"/>
        <pt x="231" y="1061" on="0"/>
        <pt x="324" y="1102" on="0"/>
        <pt x="377" y="1102" on="1"/>
        <pt x="428" y="1102" on="0"/>
        <pt x="522" y="1061" on="0"/>
        <pt x="590" y="993" on="0"/>
        <pt x="631" y="899" on="0"/>
        <pt x="631" y="848" on="1"/>
        <pt x="631" y="795" on="0"/>
        <pt x="590" y="702" on="0"/>
        <pt x="522" y="635" on="0"/>
        <pt x="428" y="594" on="0"/>
        <pt x="377" y="594" on="1"/>
        <pt x="324" y="594" on="0"/>
        <pt x="231" y="635" on="0"/>
        <pt x="164" y="702" on="0"/>
        <pt x="123" y="795" on="0"/>
      </contour>
    </TTGlyph>
    <TTGlyph name="comma" xMin="82" yMin="-285" xMax="594" yMax="465">
      <contour>
        <pt x="133" y="-113" on="1"/>
        <pt x="213" y="-109" on="0"/>
        <pt x="307" y="-61" on="0"/>
        <pt x="336" y="-12" on="1"/>
        <pt x="225" y="-12" on="0"/>
        <pt x="82" y="104" on="0"/>
        <pt x="82" y="223" on="1"/>
        <pt x="82" y="274" on="0"/>
        <pt x="121" y="362" on="0"/>
        <pt x="188" y="428" on="0"/>
        <pt x="283" y="465" on="0"/>
        <pt x="336" y="465" on="1"/>
        <pt x="393" y="465" on="0"/>
        <pt x="487" y="420" on="0"/>
        <pt x="555" y="346" on="0"/>
        <pt x="594" y="248" on="0"/>
        <pt x="594" y="195" on="1"/>
        <pt x="594" y="121" on="0"/>
        <pt x="553" y="-35" on="0"/>
        <pt x="451" y="-170" on="0"/>
        <pt x="270" y="-268" on="0"/>
        <pt x="133" y="-285" on="1"/>
      </contour>
    </TTGlyph>
    <TTGlyph name="commaaccent" xMin="362" yMin="-512" xMax="659" yMax="-135">
      <contour>
        <pt x="385" y="-410" on="1"/>
        <pt x="426" y="-410" on="0"/>
        <pt x="479" y="-379" on="0"/>
        <pt x="494" y="-354" on="1"/>
        <pt x="428" y="-354" on="0"/>
        <pt x="362" y="-303" on="0"/>
        <pt x="362" y="-244" on="1"/>
        <pt x="362" y="-197" on="0"/>
        <pt x="440" y="-135" on="0"/>
        <pt x="506" y="-135" on="1"/>
        <pt x="578" y="-135" on="0"/>
        <pt x="659" y="-219" on="0"/>
        <pt x="659" y="-291" on="1"/>
        <pt x="659" y="-326" on="0"/>
        <pt x="629" y="-401" on="0"/>
        <pt x="563" y="-465" on="0"/>
        <pt x="459" y="-508" on="0"/>
        <pt x="385" y="-512" on="1"/>
      </contour>
    </TTGlyph>
    <TTGlyph name="copyright" xMin="154" yMin="-39" xMax="1706" yMax="1513">
      <contour>
        <pt x="154" y="737" on="1"/>
        <pt x="154" y="897" on="0"/>
        <pt x="276" y="1180" on="0"/>
        <pt x="487" y="1391" on="0"/>
        <pt x="770" y="1513" on="0"/>
        <pt x="930" y="1513" on="1"/>
        <pt x="1090" y="1513" on="0"/>
        <pt x="1372" y="1391" on="0"/>
        <pt x="1583" y="1180" on="0"/>
        <pt x="1706" y="897" on="0"/>
        <pt x="1706" y="737" on="1"/>
        <pt x="1706" y="578" on="0"/>
        <pt x="1583" y="295" on="0"/>
        <pt x="1372" y="84" on="0"/>
        <pt x="1090" y="-39" on="0"/>
        <pt x="930" y="-39" on="1"/>
        <pt x="770" y="-39" on="0"/>
        <pt x="487" y="84" on="0"/>
        <pt x="276" y="295" on="0"/>
        <pt x="154" y="578" on="0"/>
      </contour>
      <contour>
        <pt x="326" y="737" on="1"/>
        <pt x="326" y="612" on="0"/>
        <pt x="420" y="391" on="0"/>
        <pt x="584" y="227" on="0"/>
        <pt x="805" y="133" on="0"/>
        <pt x="930" y="133" on="1"/>
        <pt x="1055" y="133" on="0"/>
        <pt x="1276" y="227" on="0"/>
        <pt x="1440" y="391" on="0"/>
        <pt x="1534" y="612" on="0"/>
        <pt x="1534" y="737" on="1"/>
        <pt x="1534" y="862" on="0"/>
        <pt x="1440" y="1083" on="0"/>
        <pt x="1276" y="1247" on="0"/>
        <pt x="1055" y="1341" on="0"/>
        <pt x="930" y="1341" on="1"/>
        <pt x="805" y="1341" on="0"/>
        <pt x="584" y="1247" on="0"/>
        <pt x="420" y="1083" on="0"/>
        <pt x="326" y="862" on="0"/>
      </contour>
      <contour>
        <pt x="924" y="1157" on="1"/>
        <pt x="997" y="1157" on="0"/>
        <pt x="1104" y="1114" on="0"/>
        <pt x="1126" y="1096" on="1"/>
        <pt x="1126" y="1145" on="1"/>
        <pt x="1307" y="1145" on="1"/>
        <pt x="1307" y="838" on="1"/>
        <pt x="1116" y="838" on="1"/>
        <pt x="1116" y="911" on="0"/>
        <pt x="1040" y="967" on="0"/>
        <pt x="993" y="967" on="1"/>
        <pt x="930" y="967" on="0"/>
        <pt x="862" y="864" on="0"/>
        <pt x="862" y="733" on="1"/>
        <pt x="862" y="602" on="0"/>
        <pt x="934" y="498" on="0"/>
        <pt x="1006" y="498" on="1"/>
        <pt x="1053" y="498" on="0"/>
        <pt x="1135" y="569" on="0"/>
        <pt x="1135" y="647" on="1"/>
        <pt x="1325" y="647" on="1"/>
        <pt x="1325" y="578" on="0"/>
        <pt x="1280" y="455" on="0"/>
        <pt x="1188" y="362" on="0"/>
        <pt x="1044" y="309" on="0"/>
        <pt x="946" y="309" on="1"/>
        <pt x="858" y="309" on="0"/>
        <pt x="700" y="356" on="0"/>
        <pt x="584" y="459" on="0"/>
        <pt x="516" y="618" on="0"/>
        <pt x="516" y="733" on="1"/>
        <pt x="516" y="846" on="0"/>
        <pt x="584" y="1008" on="0"/>
        <pt x="698" y="1110" on="0"/>
        <pt x="846" y="1157" on="0"/>
      </contour>
    </TTGlyph>
    <TTGlyph name="currency" xMin="98" yMin="262" xMax="1065" yMax="1229">
      <contour>
        <pt x="98" y="406" on="1"/>
        <pt x="252" y="559" on="1"/>
        <pt x="205" y="643" on="0"/>
        <pt x="205" y="745" on="1"/>
        <pt x="205" y="795" on="0"/>
        <pt x="231" y="889" on="0"/>
        <pt x="254" y="930" on="1"/>
        <pt x="98" y="1085" on="1"/>
        <pt x="242" y="1229" on="1"/>
        <pt x="395" y="1073" on="1"/>
        <pt x="436" y="1096" on="0"/>
        <pt x="530" y="1122" on="0"/>
        <pt x="582" y="1122" on="1"/>
        <pt x="631" y="1122" on="0"/>
        <pt x="725" y="1096" on="0"/>
        <pt x="766" y="1073" on="1"/>
        <pt x="922" y="1229" on="1"/>
        <pt x="1065" y="1085" on="1"/>
        <pt x="909" y="930" on="1"/>
        <pt x="932" y="889" on="0"/>
        <pt x="958" y="795" on="0"/>
        <pt x="958" y="745" on="1"/>
        <pt x="958" y="694" on="0"/>
        <pt x="932" y="600" on="0"/>
        <pt x="909" y="559" on="1"/>
        <pt x="1065" y="406" on="1"/>
        <pt x="922" y="262" on="1"/>
        <pt x="766" y="418" on="1"/>
        <pt x="725" y="395" on="0"/>
        <pt x="631" y="369" on="0"/>
        <pt x="582" y="369" on="1"/>
        <pt x="479" y="369" on="0"/>
        <pt x="395" y="416" on="1"/>
        <pt x="242" y="262" on="1"/>
      </contour>
      <contour>
        <pt x="434" y="745" on="1"/>
        <pt x="434" y="684" on="0"/>
        <pt x="520" y="598" on="0"/>
        <pt x="582" y="598" on="1"/>
        <pt x="641" y="598" on="0"/>
        <pt x="729" y="684" on="0"/>
        <pt x="729" y="745" on="1"/>
        <pt x="729" y="805" on="0"/>
        <pt x="641" y="893" on="0"/>
        <pt x="582" y="893" on="1"/>
        <pt x="520" y="893" on="0"/>
        <pt x="434" y="805" on="0"/>
      </contour>
    </TTGlyph>
    <TTGlyph name="d" xMin="29" yMin="-33" xMax="1583" yMax="1473">
      <contour>
        <pt x="1440" y="1473" on="1"/>
        <pt x="1440" y="453" on="1"/>
        <pt x="1440" y="412" on="0"/>
        <pt x="1485" y="371" on="0"/>
        <pt x="1526" y="371" on="1"/>
        <pt x="1583" y="371" on="1"/>
        <pt x="1583" y="0" on="1"/>
        <pt x="911" y="0" on="1"/>
        <pt x="911" y="182" on="1"/>
        <pt x="895" y="182" on="1"/>
        <pt x="879" y="139" on="0"/>
        <pt x="817" y="61" on="0"/>
        <pt x="727" y="2" on="0"/>
        <pt x="604" y="-33" on="0"/>
        <pt x="526" y="-33" on="1"/>
        <pt x="281" y="-33" on="0"/>
        <pt x="29" y="264" on="0"/>
        <pt x="29" y="551" on="1"/>
        <pt x="29" y="838" on="0"/>
        <pt x="299" y="1116" on="0"/>
        <pt x="535" y="1116" on="1"/>
        <pt x="598" y="1116" on="0"/>
        <pt x="698" y="1096" on="0"/>
        <pt x="780" y="1065" on="0"/>
        <pt x="854" y="1026" on="0"/>
        <pt x="891" y="1008" on="1"/>
        <pt x="891" y="1044" on="1"/>
        <pt x="891" y="1098" on="0"/>
        <pt x="854" y="1143" on="0"/>
        <pt x="801" y="1143" on="1"/>
        <pt x="748" y="1143" on="1"/>
        <pt x="748" y="1473" on="1"/>
      </contour>
      <contour>
        <pt x="598" y="541" on="1"/>
        <pt x="598" y="487" on="0"/>
        <pt x="610" y="391" on="0"/>
        <pt x="643" y="319" on="0"/>
        <pt x="698" y="279" on="0"/>
        <pt x="743" y="279" on="1"/>
        <pt x="788" y="279" on="0"/>
        <pt x="846" y="317" on="0"/>
        <pt x="879" y="385" on="0"/>
        <pt x="891" y="479" on="0"/>
        <pt x="891" y="532" on="1"/>
        <pt x="891" y="758" on="1"/>
        <pt x="866" y="782" on="0"/>
        <pt x="782" y="815" on="0"/>
        <pt x="743" y="815" on="1"/>
        <pt x="698" y="815" on="0"/>
        <pt x="643" y="770" on="0"/>
        <pt x="610" y="694" on="0"/>
        <pt x="598" y="594" on="0"/>
      </contour>
    </TTGlyph>
    <TTGlyph name="dagger" xMin="102" yMin="-57" xMax="1004" yMax="1513">
      <contour>
        <pt x="885" y="936" on="1"/>
        <pt x="854" y="936" on="0"/>
        <pt x="791" y="954" on="0"/>
        <pt x="723" y="979" on="0"/>
        <pt x="651" y="1004" on="0"/>
        <pt x="614" y="1012" on="1"/>
        <pt x="705" y="772" on="1"/>
        <pt x="592" y="-57" on="1"/>
        <pt x="516" y="-57" on="1"/>
        <pt x="406" y="772" on="1"/>
        <pt x="492" y="1012" on="1"/>
        <pt x="453" y="1006" on="0"/>
        <pt x="383" y="979" on="0"/>
        <pt x="315" y="954" on="0"/>
        <pt x="252" y="934" on="0"/>
        <pt x="219" y="934" on="1"/>
        <pt x="168" y="934" on="0"/>
        <pt x="102" y="1004" on="0"/>
        <pt x="102" y="1063" on="1"/>
        <pt x="102" y="1122" on="0"/>
        <pt x="176" y="1192" on="0"/>
        <pt x="223" y="1192" on="1"/>
        <pt x="254" y="1192" on="0"/>
        <pt x="317" y="1171" on="0"/>
        <pt x="385" y="1143" on="0"/>
        <pt x="459" y="1116" on="0"/>
        <pt x="500" y="1110" on="1"/>
        <pt x="496" y="1149" on="0"/>
        <pt x="471" y="1227" on="0"/>
        <pt x="444" y="1298" on="0"/>
        <pt x="424" y="1366" on="0"/>
        <pt x="424" y="1397" on="1"/>
        <pt x="424" y="1448" on="0"/>
        <pt x="494" y="1513" on="0"/>
        <pt x="553" y="1513" on="1"/>
        <pt x="612" y="1513" on="0"/>
        <pt x="682" y="1440" on="0"/>
        <pt x="682" y="1393" on="1"/>
        <pt x="682" y="1364" on="0"/>
        <pt x="662" y="1298" on="0"/>
        <pt x="635" y="1227" on="0"/>
        <pt x="608" y="1151" on="0"/>
        <pt x="604" y="1112" on="1"/>
        <pt x="643" y="1118" on="0"/>
        <pt x="717" y="1147" on="0"/>
        <pt x="786" y="1174" on="0"/>
        <pt x="852" y="1194" on="0"/>
        <pt x="885" y="1194" on="1"/>
        <pt x="934" y="1194" on="0"/>
        <pt x="1004" y="1124" on="0"/>
        <pt x="1004" y="1065" on="1"/>
        <pt x="1004" y="1006" on="0"/>
        <pt x="940" y="936" on="0"/>
      </contour>
    </TTGlyph>
    <TTGlyph name="daggerdbl" xMin="102" yMin="-43" xMax="1004" yMax="1513">
      <contour>
        <pt x="492" y="1012" on="1"/>
        <pt x="453" y="1006" on="0"/>
        <pt x="383" y="979" on="0"/>
        <pt x="315" y="954" on="0"/>
        <pt x="252" y="934" on="0"/>
        <pt x="219" y="934" on="1"/>
        <pt x="168" y="934" on="0"/>
        <pt x="102" y="1004" on="0"/>
        <pt x="102" y="1063" on="1"/>
        <pt x="102" y="1122" on="0"/>
        <pt x="176" y="1192" on="0"/>
        <pt x="223" y="1192" on="1"/>
        <pt x="254" y="1192" on="0"/>
        <pt x="317" y="1171" on="0"/>
        <pt x="385" y="1143" on="0"/>
        <pt x="459" y="1116" on="0"/>
        <pt x="500" y="1110" on="1"/>
        <pt x="496" y="1149" on="0"/>
        <pt x="471" y="1227" on="0"/>
        <pt x="444" y="1298" on="0"/>
        <pt x="424" y="1366" on="0"/>
        <pt x="424" y="1397" on="1"/>
        <pt x="424" y="1448" on="0"/>
        <pt x="494" y="1513" on="0"/>
        <pt x="553" y="1513" on="1"/>
        <pt x="612" y="1513" on="0"/>
        <pt x="682" y="1440" on="0"/>
        <pt x="682" y="1393" on="1"/>
        <pt x="682" y="1364" on="0"/>
        <pt x="662" y="1298" on="0"/>
        <pt x="635" y="1227" on="0"/>
        <pt x="608" y="1151" on="0"/>
        <pt x="604" y="1112" on="1"/>
        <pt x="643" y="1118" on="0"/>
        <pt x="717" y="1147" on="0"/>
        <pt x="786" y="1174" on="0"/>
        <pt x="852" y="1194" on="0"/>
        <pt x="885" y="1194" on="1"/>
        <pt x="934" y="1194" on="0"/>
        <pt x="1004" y="1124" on="0"/>
        <pt x="1004" y="1065" on="1"/>
        <pt x="1004" y="1006" on="0"/>
        <pt x="940" y="936" on="0"/>
        <pt x="885" y="936" on="1"/>
        <pt x="854" y="936" on="0"/>
        <pt x="791" y="954" on="0"/>
        <pt x="723" y="979" on="0"/>
        <pt x="651" y="1004" on="0"/>
        <pt x="612" y="1012" on="1"/>
        <pt x="705" y="735" on="1"/>
        <pt x="612" y="459" on="1"/>
        <pt x="651" y="465" on="0"/>
        <pt x="723" y="492" on="0"/>
        <pt x="791" y="516" on="0"/>
        <pt x="854" y="535" on="0"/>
        <pt x="885" y="535" on="1"/>
        <pt x="940" y="535" on="0"/>
        <pt x="1004" y="465" on="0"/>
        <pt x="1004" y="406" on="1"/>
        <pt x="1004" y="346" on="0"/>
        <pt x="934" y="276" on="0"/>
        <pt x="885" y="276" on="1"/>
        <pt x="852" y="276" on="0"/>
        <pt x="786" y="297" on="0"/>
        <pt x="717" y="324" on="0"/>
        <pt x="643" y="350" on="0"/>
        <pt x="604" y="356" on="1"/>
        <pt x="608" y="317" on="0"/>
        <pt x="635" y="242" on="0"/>
        <pt x="662" y="170" on="0"/>
        <pt x="682" y="106" on="0"/>
        <pt x="682" y="78" on="1"/>
        <pt x="682" y="31" on="0"/>
        <pt x="612" y="-43" on="0"/>
        <pt x="553" y="-43" on="1"/>
        <pt x="494" y="-43" on="0"/>
        <pt x="424" y="23" on="0"/>
        <pt x="424" y="74" on="1"/>
        <pt x="424" y="102" on="0"/>
        <pt x="444" y="170" on="0"/>
        <pt x="471" y="244" on="0"/>
        <pt x="496" y="319" on="0"/>
        <pt x="500" y="358" on="1"/>
        <pt x="459" y="352" on="0"/>
        <pt x="385" y="328" on="0"/>
        <pt x="317" y="299" on="0"/>
        <pt x="254" y="279" on="0"/>
        <pt x="223" y="279" on="1"/>
        <pt x="176" y="279" on="0"/>
        <pt x="102" y="348" on="0"/>
        <pt x="102" y="408" on="1"/>
        <pt x="102" y="467" on="0"/>
        <pt x="168" y="537" on="0"/>
        <pt x="219" y="537" on="1"/>
        <pt x="252" y="537" on="0"/>
        <pt x="315" y="516" on="0"/>
        <pt x="383" y="489" on="0"/>
        <pt x="453" y="463" on="0"/>
        <pt x="492" y="457" on="1"/>
        <pt x="406" y="735" on="1"/>
      </contour>
    </TTGlyph>
    <TTGlyph name="dcaron" xMin="29" yMin="-33" xMax="1889" yMax="1513">
      <component glyphName="d" x="0" y="0" flags="0x1004"/>
      <component glyphName="uni0315" x="1522" y="0" flags="0x1004"/>
    </TTGlyph>
    <TTGlyph name="dcroat" xMin="29" yMin="-33" xMax="1583" yMax="1473">
      <contour>
        <pt x="610" y="1341" on="1"/>
        <pt x="891" y="1341" on="1"/>
        <pt x="891" y="1473" on="1"/>
        <pt x="1440" y="1473" on="1"/>
        <pt x="1440" y="1341" on="1"/>
        <pt x="1583" y="1341" on="1"/>
        <pt x="1583" y="1165" on="1"/>
        <pt x="1440" y="1165" on="1"/>
        <pt x="1440" y="453" on="1"/>
        <pt x="1440" y="412" on="0"/>
        <pt x="1485" y="371" on="0"/>
        <pt x="1526" y="371" on="1"/>
        <pt x="1583" y="371" on="1"/>
        <pt x="1583" y="0" on="1"/>
        <pt x="911" y="0" on="1"/>
        <pt x="911" y="182" on="1"/>
        <pt x="895" y="182" on="1"/>
        <pt x="879" y="139" on="0"/>
        <pt x="817" y="61" on="0"/>
        <pt x="727" y="2" on="0"/>
        <pt x="604" y="-33" on="0"/>
        <pt x="526" y="-33" on="1"/>
        <pt x="281" y="-33" on="0"/>
        <pt x="29" y="264" on="0"/>
        <pt x="29" y="551" on="1"/>
        <pt x="29" y="838" on="0"/>
        <pt x="299" y="1116" on="0"/>
        <pt x="535" y="1116" on="1"/>
        <pt x="598" y="1116" on="0"/>
        <pt x="698" y="1096" on="0"/>
        <pt x="780" y="1065" on="0"/>
        <pt x="854" y="1026" on="0"/>
        <pt x="891" y="1008" on="1"/>
        <pt x="891" y="1165" on="1"/>
        <pt x="610" y="1165" on="1"/>
      </contour>
      <contour>
        <pt x="598" y="541" on="1"/>
        <pt x="598" y="487" on="0"/>
        <pt x="610" y="391" on="0"/>
        <pt x="643" y="319" on="0"/>
        <pt x="698" y="279" on="0"/>
        <pt x="743" y="279" on="1"/>
        <pt x="788" y="279" on="0"/>
        <pt x="846" y="317" on="0"/>
        <pt x="879" y="385" on="0"/>
        <pt x="891" y="479" on="0"/>
        <pt x="891" y="532" on="1"/>
        <pt x="891" y="758" on="1"/>
        <pt x="866" y="782" on="0"/>
        <pt x="782" y="815" on="0"/>
        <pt x="743" y="815" on="1"/>
        <pt x="698" y="815" on="0"/>
        <pt x="643" y="770" on="0"/>
        <pt x="610" y="694" on="0"/>
        <pt x="598" y="594" on="0"/>
      </contour>
    </TTGlyph>
    <TTGlyph name="degree" xMin="35" yMin="885" xMax="641" yMax="1493">
      <contour>
        <pt x="338" y="1493" on="1"/>
        <pt x="401" y="1493" on="0"/>
        <pt x="512" y="1444" on="0"/>
        <pt x="594" y="1362" on="0"/>
        <pt x="641" y="1251" on="0"/>
        <pt x="641" y="1188" on="1"/>
        <pt x="641" y="1126" on="0"/>
        <pt x="594" y="1016" on="0"/>
        <pt x="510" y="932" on="0"/>
        <pt x="399" y="885" on="0"/>
        <pt x="336" y="885" on="1"/>
        <pt x="272" y="885" on="0"/>
        <pt x="164" y="932" on="0"/>
        <pt x="82" y="1014" on="0"/>
        <pt x="35" y="1124" on="0"/>
        <pt x="35" y="1188" on="1"/>
        <pt x="35" y="1251" on="0"/>
        <pt x="82" y="1362" on="0"/>
        <pt x="164" y="1446" on="0"/>
        <pt x="274" y="1493" on="0"/>
      </contour>
      <contour>
        <pt x="338" y="1305" on="1"/>
        <pt x="291" y="1305" on="0"/>
        <pt x="223" y="1237" on="0"/>
        <pt x="223" y="1188" on="1"/>
        <pt x="223" y="1141" on="0"/>
        <pt x="291" y="1073" on="0"/>
        <pt x="338" y="1073" on="1"/>
        <pt x="387" y="1073" on="0"/>
        <pt x="455" y="1143" on="0"/>
        <pt x="455" y="1188" on="1"/>
        <pt x="455" y="1237" on="0"/>
        <pt x="387" y="1305" on="0"/>
      </contour>
    </TTGlyph>
    <TTGlyph name="dieresis" xMin="172" yMin="1260" xMax="850" yMax="1546">
      <contour>
        <pt x="172" y="1403" on="1"/>
        <pt x="172" y="1430" on="0"/>
        <pt x="195" y="1483" on="0"/>
        <pt x="236" y="1522" on="0"/>
        <pt x="289" y="1546" on="0"/>
        <pt x="317" y="1546" on="1"/>
        <pt x="377" y="1546" on="0"/>
        <pt x="459" y="1462" on="0"/>
        <pt x="459" y="1403" on="1"/>
        <pt x="459" y="1339" on="0"/>
        <pt x="379" y="1260" on="0"/>
        <pt x="317" y="1260" on="1"/>
        <pt x="258" y="1260" on="0"/>
        <pt x="172" y="1343" on="0"/>
      </contour>
      <contour>
        <pt x="563" y="1403" on="1"/>
        <pt x="563" y="1458" on="0"/>
        <pt x="647" y="1546" on="0"/>
        <pt x="707" y="1546" on="1"/>
        <pt x="766" y="1546" on="0"/>
        <pt x="850" y="1462" on="0"/>
        <pt x="850" y="1403" on="1"/>
        <pt x="850" y="1339" on="0"/>
        <pt x="768" y="1260" on="0"/>
        <pt x="707" y="1260" on="1"/>
        <pt x="647" y="1260" on="0"/>
        <pt x="563" y="1343" on="0"/>
      </contour>
    </TTGlyph>
    <TTGlyph name="divide" xMin="154" yMin="98" xMax="1280" yMax="1333">
      <contour>
        <pt x="1280" y="879" on="1"/>
        <pt x="1280" y="553" on="1"/>
        <pt x="154" y="553" on="1"/>
        <pt x="154" y="879" on="1"/>
      </contour>
      <contour>
        <pt x="528" y="1149" on="1"/>
        <pt x="528" y="1227" on="0"/>
        <pt x="635" y="1333" on="0"/>
        <pt x="713" y="1333" on="1"/>
        <pt x="791" y="1333" on="0"/>
        <pt x="897" y="1227" on="0"/>
        <pt x="897" y="1149" on="1"/>
        <pt x="897" y="1071" on="0"/>
        <pt x="791" y="965" on="0"/>
        <pt x="713" y="965" on="1"/>
        <pt x="635" y="965" on="0"/>
        <pt x="528" y="1071" on="0"/>
      </contour>
      <contour>
        <pt x="528" y="283" on="1"/>
        <pt x="528" y="360" on="0"/>
        <pt x="635" y="467" on="0"/>
        <pt x="713" y="467" on="1"/>
        <pt x="791" y="467" on="0"/>
        <pt x="897" y="360" on="0"/>
        <pt x="897" y="283" on="1"/>
        <pt x="897" y="205" on="0"/>
        <pt x="791" y="98" on="0"/>
        <pt x="713" y="98" on="1"/>
        <pt x="635" y="98" on="0"/>
        <pt x="528" y="205" on="0"/>
      </contour>
    </TTGlyph>
    <TTGlyph name="dollar" xMin="61" yMin="-41" xMax="1169" yMax="1493">
      <contour>
        <pt x="514" y="139" on="1"/>
        <pt x="426" y="160" on="0"/>
        <pt x="332" y="213" on="1"/>
        <pt x="332" y="143" on="1"/>
        <pt x="72" y="143" on="1"/>
        <pt x="72" y="575" on="1"/>
        <pt x="332" y="575" on="1"/>
        <pt x="354" y="481" on="0"/>
        <pt x="492" y="375" on="0"/>
        <pt x="578" y="375" on="1"/>
        <pt x="637" y="375" on="0"/>
        <pt x="692" y="420" on="0"/>
        <pt x="692" y="446" on="1"/>
        <pt x="692" y="489" on="0"/>
        <pt x="598" y="537" on="0"/>
        <pt x="459" y="575" on="0"/>
        <pt x="295" y="621" on="0"/>
        <pt x="156" y="709" on="0"/>
        <pt x="61" y="852" on="0"/>
        <pt x="61" y="969" on="1"/>
        <pt x="61" y="1055" on="0"/>
        <pt x="135" y="1186" on="0"/>
        <pt x="260" y="1276" on="0"/>
        <pt x="424" y="1325" on="0"/>
        <pt x="514" y="1325" on="1"/>
        <pt x="514" y="1493" on="1"/>
        <pt x="717" y="1493" on="1"/>
        <pt x="717" y="1300" on="1"/>
        <pt x="766" y="1286" on="0"/>
        <pt x="844" y="1251" on="0"/>
        <pt x="870" y="1235" on="1"/>
        <pt x="870" y="1307" on="1"/>
        <pt x="1133" y="1307" on="1"/>
        <pt x="1133" y="885" on="1"/>
        <pt x="870" y="885" on="1"/>
        <pt x="864" y="926" on="0"/>
        <pt x="819" y="995" on="0"/>
        <pt x="756" y="1044" on="0"/>
        <pt x="678" y="1073" on="0"/>
        <pt x="639" y="1073" on="1"/>
        <pt x="590" y="1073" on="0"/>
        <pt x="526" y="1036" on="0"/>
        <pt x="526" y="1001" on="1"/>
        <pt x="526" y="958" on="0"/>
        <pt x="623" y="913" on="0"/>
        <pt x="764" y="874" on="0"/>
        <pt x="932" y="827" on="0"/>
        <pt x="1073" y="739" on="0"/>
        <pt x="1169" y="592" on="0"/>
        <pt x="1169" y="473" on="1"/>
        <pt x="1169" y="385" on="0"/>
        <pt x="1096" y="256" on="0"/>
        <pt x="971" y="170" on="0"/>
        <pt x="807" y="127" on="0"/>
        <pt x="717" y="123" on="1"/>
        <pt x="717" y="-41" on="1"/>
        <pt x="514" y="-41" on="1"/>
      </contour>
    </TTGlyph>
    <TTGlyph name="dotaccent" xMin="365" yMin="1274" xMax="662" yMax="1573">
      <contour>
        <pt x="365" y="1423" on="1"/>
        <pt x="365" y="1483" on="0"/>
        <pt x="453" y="1573" on="0"/>
        <pt x="512" y="1573" on="1"/>
        <pt x="575" y="1573" on="0"/>
        <pt x="662" y="1485" on="0"/>
        <pt x="662" y="1423" on="1"/>
        <pt x="662" y="1358" on="0"/>
        <pt x="578" y="1274" on="0"/>
        <pt x="512" y="1274" on="1"/>
        <pt x="453" y="1274" on="0"/>
        <pt x="365" y="1362" on="0"/>
      </contour>
    </TTGlyph>
    <TTGlyph name="dotlessi" xMin="82" yMin="0" xMax="924" yMax="1102">
      <contour>
        <pt x="780" y="1102" on="1"/>
        <pt x="780" y="479" on="1"/>
        <pt x="780" y="412" on="0"/>
        <pt x="846" y="371" on="0"/>
        <pt x="897" y="371" on="1"/>
        <pt x="924" y="371" on="1"/>
        <pt x="924" y="0" on="1"/>
        <pt x="82" y="0" on="1"/>
        <pt x="82" y="371" on="1"/>
        <pt x="121" y="371" on="1"/>
        <pt x="174" y="371" on="0"/>
        <pt x="225" y="438" on="0"/>
        <pt x="225" y="477" on="1"/>
        <pt x="225" y="618" on="1"/>
        <pt x="225" y="676" on="0"/>
        <pt x="152" y="731" on="0"/>
        <pt x="104" y="731" on="1"/>
        <pt x="82" y="731" on="1"/>
        <pt x="82" y="1102" on="1"/>
      </contour>
    </TTGlyph>
    <TTGlyph name="dotlessj" xMin="-233" yMin="-541" xMax="760" yMax="1102">
      <contour>
        <pt x="205" y="618" on="1"/>
        <pt x="205" y="676" on="0"/>
        <pt x="131" y="731" on="0"/>
        <pt x="84" y="731" on="1"/>
        <pt x="41" y="731" on="1"/>
        <pt x="41" y="1102" on="1"/>
        <pt x="760" y="1102" on="1"/>
        <pt x="760" y="-29" on="1"/>
        <pt x="760" y="-170" on="0"/>
        <pt x="690" y="-367" on="0"/>
        <pt x="551" y="-487" on="0"/>
        <pt x="348" y="-541" on="0"/>
        <pt x="213" y="-541" on="1"/>
        <pt x="90" y="-541" on="0"/>
        <pt x="-80" y="-492" on="0"/>
        <pt x="-186" y="-412" on="0"/>
        <pt x="-233" y="-307" on="0"/>
        <pt x="-233" y="-250" on="1"/>
        <pt x="-233" y="-164" on="0"/>
        <pt x="-125" y="-41" on="0"/>
        <pt x="-20" y="-41" on="1"/>
        <pt x="27" y="-41" on="0"/>
        <pt x="98" y="-74" on="0"/>
        <pt x="145" y="-123" on="0"/>
        <pt x="168" y="-184" on="0"/>
        <pt x="168" y="-213" on="1"/>
        <pt x="168" y="-266" on="0"/>
        <pt x="135" y="-324" on="0"/>
        <pt x="113" y="-346" on="1"/>
        <pt x="127" y="-362" on="1"/>
        <pt x="176" y="-330" on="0"/>
        <pt x="205" y="-240" on="0"/>
        <pt x="205" y="-186" on="1"/>
      </contour>
    </TTGlyph>
    <TTGlyph name="e" xMin="41" yMin="-43" xMax="1403" yMax="1147">
      <contour>
        <pt x="612" y="489" on="1"/>
        <pt x="616" y="340" on="0"/>
        <pt x="721" y="227" on="0"/>
        <pt x="819" y="227" on="1"/>
        <pt x="852" y="227" on="0"/>
        <pt x="915" y="246" on="0"/>
        <pt x="969" y="289" on="0"/>
        <pt x="1008" y="360" on="0"/>
        <pt x="1014" y="414" on="1"/>
        <pt x="1378" y="414" on="1"/>
        <pt x="1358" y="285" on="0"/>
        <pt x="1251" y="111" on="0"/>
        <pt x="1083" y="4" on="0"/>
        <pt x="860" y="-43" on="0"/>
        <pt x="723" y="-43" on="1"/>
        <pt x="582" y="-43" on="0"/>
        <pt x="334" y="29" on="0"/>
        <pt x="147" y="176" on="0"/>
        <pt x="41" y="399" on="0"/>
        <pt x="41" y="553" on="1"/>
        <pt x="41" y="700" on="0"/>
        <pt x="141" y="922" on="0"/>
        <pt x="322" y="1071" on="0"/>
        <pt x="569" y="1147" on="0"/>
        <pt x="717" y="1147" on="1"/>
        <pt x="899" y="1147" on="0"/>
        <pt x="1161" y="1051" on="0"/>
        <pt x="1327" y="879" on="0"/>
        <pt x="1405" y="637" on="0"/>
        <pt x="1403" y="489" on="1"/>
      </contour>
      <contour>
        <pt x="760" y="877" on="1"/>
        <pt x="690" y="877" on="0"/>
        <pt x="623" y="778" on="0"/>
        <pt x="612" y="664" on="1"/>
        <pt x="905" y="664" on="1"/>
        <pt x="899" y="762" on="0"/>
        <pt x="827" y="877" on="0"/>
      </contour>
    </TTGlyph>
    <TTGlyph name="eacute" xMin="41" yMin="-43" xMax="1403" yMax="1548">
      <component glyphName="e" x="0" y="0" flags="0x1204"/>
      <component glyphName="acute" x="291" y="0" flags="0x1004"/>
    </TTGlyph>
    <TTGlyph name="ebreve" xMin="41" yMin="-43" xMax="1403" yMax="1548">
      <component glyphName="e" x="0" y="0" flags="0x1204"/>
      <component glyphName="breve" x="205" y="0" flags="0x1004"/>
    </TTGlyph>
    <TTGlyph name="ecaron" xMin="41" yMin="-43" xMax="1403" yMax="1548">
      <component glyphName="e" x="0" y="0" flags="0x1204"/>
      <component glyphName="caron" x="205" y="0" flags="0x1004"/>
    </TTGlyph>
    <TTGlyph name="ecircumflex" xMin="41" yMin="-43" xMax="1403" yMax="1548">
      <component glyphName="e" x="0" y="0" flags="0x1204"/>
      <component glyphName="circumflex" x="205" y="0" flags="0x1004"/>
    </TTGlyph>
    <TTGlyph name="edieresis" xMin="41" yMin="-43" xMax="1403" yMax="1546">
      <component glyphName="e" x="0" y="0" flags="0x1204"/>
      <component glyphName="dieresis" x="205" y="0" flags="0x1004"/>
    </TTGlyph>
    <TTGlyph name="edotaccent" xMin="41" yMin="-43" xMax="1403" yMax="1573">
      <component glyphName="e" x="0" y="0" flags="0x1204"/>
      <component glyphName="dotaccent" x="205" y="0" flags="0x1004"/>
    </TTGlyph>
    <TTGlyph name="egrave" xMin="41" yMin="-43" xMax="1403" yMax="1548">
      <component glyphName="e" x="0" y="0" flags="0x1204"/>
      <component glyphName="grave" x="197" y="0" flags="0x1004"/>
    </TTGlyph>
    <TTGlyph name="eight" xMin="45" yMin="-41" xMax="1487" yMax="1493">
      <contour>
        <pt x="766" y="1493" on="1"/>
        <pt x="887" y="1493" on="0"/>
        <pt x="1122" y="1456" on="0"/>
        <pt x="1309" y="1364" on="0"/>
        <pt x="1423" y="1210" on="0"/>
        <pt x="1423" y="1094" on="1"/>
        <pt x="1423" y="954" on="0"/>
        <pt x="1266" y="778" on="0"/>
        <pt x="1112" y="756" on="1"/>
        <pt x="1112" y="745" on="1"/>
        <pt x="1280" y="731" on="0"/>
        <pt x="1487" y="555" on="0"/>
        <pt x="1487" y="387" on="1"/>
        <pt x="1487" y="315" on="0"/>
        <pt x="1419" y="164" on="0"/>
        <pt x="1253" y="39" on="0"/>
        <pt x="973" y="-41" on="0"/>
        <pt x="758" y="-41" on="1"/>
        <pt x="549" y="-41" on="0"/>
        <pt x="272" y="39" on="0"/>
        <pt x="111" y="164" on="0"/>
        <pt x="45" y="315" on="0"/>
        <pt x="45" y="387" on="1"/>
        <pt x="45" y="555" on="0"/>
        <pt x="252" y="731" on="0"/>
        <pt x="420" y="745" on="1"/>
        <pt x="420" y="756" on="1"/>
        <pt x="266" y="778" on="0"/>
        <pt x="106" y="954" on="0"/>
        <pt x="106" y="1094" on="1"/>
        <pt x="106" y="1210" on="0"/>
        <pt x="215" y="1364" on="0"/>
        <pt x="397" y="1456" on="0"/>
        <pt x="637" y="1493" on="0"/>
      </contour>
      <contour>
        <pt x="766" y="637" on="1"/>
        <pt x="688" y="637" on="0"/>
        <pt x="614" y="535" on="0"/>
        <pt x="614" y="451" on="1"/>
        <pt x="614" y="367" on="0"/>
        <pt x="688" y="260" on="0"/>
        <pt x="766" y="260" on="1"/>
        <pt x="844" y="260" on="0"/>
        <pt x="918" y="367" on="0"/>
        <pt x="918" y="451" on="1"/>
        <pt x="918" y="535" on="0"/>
        <pt x="844" y="637" on="0"/>
      </contour>
      <contour>
        <pt x="764" y="1202" on="1"/>
        <pt x="698" y="1202" on="0"/>
        <pt x="639" y="1110" on="0"/>
        <pt x="639" y="1034" on="1"/>
        <pt x="639" y="961" on="0"/>
        <pt x="698" y="864" on="0"/>
        <pt x="764" y="864" on="1"/>
        <pt x="831" y="864" on="0"/>
        <pt x="891" y="961" on="0"/>
        <pt x="891" y="1034" on="1"/>
        <pt x="891" y="1110" on="0"/>
        <pt x="831" y="1202" on="0"/>
      </contour>
    </TTGlyph>
    <TTGlyph name="ellipsis" xMin="82" yMin="-43" xMax="1933" yMax="465">
      <contour>
        <pt x="82" y="211" on="1"/>
        <pt x="82" y="262" on="0"/>
        <pt x="123" y="356" on="0"/>
        <pt x="190" y="424" on="0"/>
        <pt x="283" y="465" on="0"/>
        <pt x="336" y="465" on="1"/>
        <pt x="387" y="465" on="0"/>
        <pt x="481" y="424" on="0"/>
        <pt x="549" y="356" on="0"/>
        <pt x="590" y="262" on="0"/>
        <pt x="590" y="211" on="1"/>
        <pt x="590" y="158" on="0"/>
        <pt x="549" y="66" on="0"/>
        <pt x="481" y="-2" on="0"/>
        <pt x="387" y="-43" on="0"/>
        <pt x="336" y="-43" on="1"/>
        <pt x="283" y="-43" on="0"/>
        <pt x="190" y="-2" on="0"/>
        <pt x="123" y="66" on="0"/>
        <pt x="82" y="158" on="0"/>
      </contour>
      <contour>
        <pt x="754" y="211" on="1"/>
        <pt x="754" y="262" on="0"/>
        <pt x="795" y="356" on="0"/>
        <pt x="862" y="424" on="0"/>
        <pt x="954" y="465" on="0"/>
        <pt x="1008" y="465" on="1"/>
        <pt x="1059" y="465" on="0"/>
        <pt x="1153" y="424" on="0"/>
        <pt x="1221" y="356" on="0"/>
        <pt x="1262" y="262" on="0"/>
        <pt x="1262" y="211" on="1"/>
        <pt x="1262" y="158" on="0"/>
        <pt x="1221" y="66" on="0"/>
        <pt x="1153" y="-2" on="0"/>
        <pt x="1059" y="-43" on="0"/>
        <pt x="1008" y="-43" on="1"/>
        <pt x="954" y="-43" on="0"/>
        <pt x="862" y="-2" on="0"/>
        <pt x="795" y="66" on="0"/>
        <pt x="754" y="158" on="0"/>
      </contour>
      <contour>
        <pt x="1425" y="211" on="1"/>
        <pt x="1425" y="262" on="0"/>
        <pt x="1466" y="356" on="0"/>
        <pt x="1534" y="424" on="0"/>
        <pt x="1626" y="465" on="0"/>
        <pt x="1679" y="465" on="1"/>
        <pt x="1731" y="465" on="0"/>
        <pt x="1825" y="424" on="0"/>
        <pt x="1892" y="356" on="0"/>
        <pt x="1933" y="262" on="0"/>
        <pt x="1933" y="211" on="1"/>
        <pt x="1933" y="158" on="0"/>
        <pt x="1892" y="66" on="0"/>
        <pt x="1825" y="-2" on="0"/>
        <pt x="1731" y="-43" on="0"/>
        <pt x="1679" y="-43" on="1"/>
        <pt x="1626" y="-43" on="0"/>
        <pt x="1534" y="-2" on="0"/>
        <pt x="1466" y="66" on="0"/>
        <pt x="1425" y="158" on="0"/>
      </contour>
    </TTGlyph>
    <TTGlyph name="emacron" xMin="41" yMin="-43" xMax="1403" yMax="1507">
      <component glyphName="e" x="0" y="0" flags="0x1204"/>
      <component glyphName="macron" x="205" y="0" flags="0x1004"/>
    </TTGlyph>
    <TTGlyph name="emdash" xMin="0" yMin="465" xMax="2048" yMax="778">
      <contour>
        <pt x="0" y="778" on="1"/>
        <pt x="2048" y="778" on="1"/>
        <pt x="2048" y="465" on="1"/>
        <pt x="0" y="465" on="1"/>
      </contour>
    </TTGlyph>
    <TTGlyph name="endash" xMin="61" yMin="465" xMax="963" yMax="778">
      <contour>
        <pt x="61" y="778" on="1"/>
        <pt x="963" y="778" on="1"/>
        <pt x="963" y="465" on="1"/>
        <pt x="61" y="465" on="1"/>
      </contour>
    </TTGlyph>
    <TTGlyph name="eng" xMin="82" yMin="-512" xMax="1552" yMax="1147">
      <contour>
        <pt x="762" y="-211" on="1"/>
        <pt x="852" y="-211" on="0"/>
        <pt x="950" y="-182" on="0"/>
        <pt x="995" y="-137" on="0"/>
        <pt x="1004" y="-82" on="0"/>
        <pt x="1004" y="-55" on="1"/>
        <pt x="1004" y="639" on="1"/>
        <pt x="1004" y="678" on="0"/>
        <pt x="985" y="725" on="0"/>
        <pt x="956" y="750" on="0"/>
        <pt x="920" y="758" on="0"/>
        <pt x="903" y="758" on="1"/>
        <pt x="838" y="758" on="0"/>
        <pt x="774" y="682" on="0"/>
        <pt x="774" y="612" on="1"/>
        <pt x="774" y="469" on="1"/>
        <pt x="774" y="416" on="0"/>
        <pt x="811" y="371" on="0"/>
        <pt x="864" y="371" on="1"/>
        <pt x="918" y="371" on="1"/>
        <pt x="918" y="0" on="1"/>
        <pt x="82" y="0" on="1"/>
        <pt x="82" y="371" on="1"/>
        <pt x="141" y="371" on="1"/>
        <pt x="182" y="371" on="0"/>
        <pt x="225" y="424" on="0"/>
        <pt x="225" y="461" on="1"/>
        <pt x="225" y="651" on="1"/>
        <pt x="225" y="698" on="0"/>
        <pt x="170" y="731" on="0"/>
        <pt x="135" y="731" on="1"/>
        <pt x="82" y="731" on="1"/>
        <pt x="82" y="1102" on="1"/>
        <pt x="676" y="1102" on="1"/>
        <pt x="655" y="827" on="1"/>
        <pt x="672" y="827" on="1"/>
        <pt x="694" y="981" on="0"/>
        <pt x="920" y="1147" on="0"/>
        <pt x="1114" y="1147" on="1"/>
        <pt x="1251" y="1147" on="0"/>
        <pt x="1423" y="1069" on="0"/>
        <pt x="1518" y="950" on="0"/>
        <pt x="1552" y="811" on="0"/>
        <pt x="1552" y="750" on="1"/>
        <pt x="1552" y="61" on="1"/>
        <pt x="1552" y="-104" on="0"/>
        <pt x="1485" y="-324" on="0"/>
        <pt x="1307" y="-457" on="0"/>
        <pt x="999" y="-512" on="0"/>
        <pt x="762" y="-512" on="1"/>
      </contour>
    </TTGlyph>
    <TTGlyph name="eogonek" xMin="41" yMin="-467" xMax="1403" yMax="1147">
      <contour>
        <pt x="612" y="489" on="1"/>
        <pt x="616" y="340" on="0"/>
        <pt x="721" y="227" on="0"/>
        <pt x="819" y="227" on="1"/>
        <pt x="852" y="227" on="0"/>
        <pt x="915" y="246" on="0"/>
        <pt x="969" y="289" on="0"/>
        <pt x="1008" y="360" on="0"/>
        <pt x="1014" y="414" on="1"/>
        <pt x="1378" y="414" on="1"/>
        <pt x="1356" y="279" on="0"/>
        <pt x="1231" y="111" on="0"/>
        <pt x="1149" y="47" on="1"/>
        <pt x="1061" y="-20" on="0"/>
        <pt x="969" y="-143" on="0"/>
        <pt x="969" y="-215" on="1"/>
        <pt x="969" y="-262" on="0"/>
        <pt x="1010" y="-295" on="0"/>
        <pt x="1038" y="-295" on="1"/>
        <pt x="1087" y="-295" on="0"/>
        <pt x="1141" y="-221" on="1"/>
        <pt x="1245" y="-305" on="1"/>
        <pt x="1174" y="-391" on="0"/>
        <pt x="1020" y="-467" on="0"/>
        <pt x="942" y="-467" on="1"/>
        <pt x="827" y="-467" on="0"/>
        <pt x="729" y="-365" on="0"/>
        <pt x="729" y="-295" on="1"/>
        <pt x="729" y="-227" on="0"/>
        <pt x="799" y="-98" on="0"/>
        <pt x="881" y="-35" on="1"/>
        <pt x="844" y="-39" on="0"/>
        <pt x="764" y="-43" on="0"/>
        <pt x="723" y="-43" on="1"/>
        <pt x="582" y="-43" on="0"/>
        <pt x="334" y="29" on="0"/>
        <pt x="147" y="176" on="0"/>
        <pt x="41" y="399" on="0"/>
        <pt x="41" y="553" on="1"/>
        <pt x="41" y="700" on="0"/>
        <pt x="141" y="922" on="0"/>
        <pt x="322" y="1071" on="0"/>
        <pt x="569" y="1147" on="0"/>
        <pt x="717" y="1147" on="1"/>
        <pt x="899" y="1147" on="0"/>
        <pt x="1161" y="1051" on="0"/>
        <pt x="1327" y="879" on="0"/>
        <pt x="1405" y="637" on="0"/>
        <pt x="1403" y="489" on="1"/>
      </contour>
      <contour>
        <pt x="760" y="877" on="1"/>
        <pt x="690" y="877" on="0"/>
        <pt x="623" y="778" on="0"/>
        <pt x="612" y="664" on="1"/>
        <pt x="905" y="664" on="1"/>
        <pt x="899" y="762" on="0"/>
        <pt x="827" y="877" on="0"/>
      </contour>
    </TTGlyph>
    <TTGlyph name="equal" xMin="174" yMin="266" xMax="1260" yMax="1165">
      <contour>
        <pt x="1260" y="1165" on="1"/>
        <pt x="1260" y="840" on="1"/>
        <pt x="174" y="840" on="1"/>
        <pt x="174" y="1165" on="1"/>
      </contour>
      <contour>
        <pt x="1260" y="592" on="1"/>
        <pt x="1260" y="266" on="1"/>
        <pt x="174" y="266" on="1"/>
        <pt x="174" y="592" on="1"/>
      </contour>
    </TTGlyph>
    <TTGlyph name="eth" xMin="41" yMin="-43" xMax="1483" yMax="1556">
      <contour>
        <pt x="512" y="1276" on="1"/>
        <pt x="446" y="1313" on="0"/>
        <pt x="393" y="1329" on="1"/>
        <pt x="485" y="1556" on="1"/>
        <pt x="582" y="1540" on="0"/>
        <pt x="772" y="1481" on="0"/>
        <pt x="864" y="1438" on="1"/>
        <pt x="1120" y="1554" on="1"/>
        <pt x="1188" y="1397" on="1"/>
        <pt x="1049" y="1333" on="1"/>
        <pt x="1143" y="1268" on="0"/>
        <pt x="1300" y="1108" on="0"/>
        <pt x="1417" y="918" on="0"/>
        <pt x="1483" y="696" on="0"/>
        <pt x="1483" y="573" on="1"/>
        <pt x="1483" y="412" on="0"/>
        <pt x="1380" y="178" on="0"/>
        <pt x="1192" y="29" on="0"/>
        <pt x="926" y="-43" on="0"/>
        <pt x="762" y="-43" on="1"/>
        <pt x="598" y="-43" on="0"/>
        <pt x="332" y="20" on="0"/>
        <pt x="143" y="156" on="0"/>
        <pt x="41" y="367" on="0"/>
        <pt x="41" y="512" on="1"/>
        <pt x="41" y="657" on="0"/>
        <pt x="160" y="868" on="0"/>
        <pt x="369" y="991" on="0"/>
        <pt x="653" y="1030" on="0"/>
        <pt x="819" y="1004" on="1"/>
        <pt x="797" y="1044" on="0"/>
        <pt x="721" y="1126" on="0"/>
        <pt x="676" y="1163" on="1"/>
        <pt x="453" y="1061" on="1"/>
        <pt x="383" y="1217" on="1"/>
      </contour>
      <contour>
        <pt x="610" y="502" on="1"/>
        <pt x="610" y="362" on="0"/>
        <pt x="672" y="248" on="0"/>
        <pt x="762" y="248" on="1"/>
        <pt x="852" y="248" on="0"/>
        <pt x="913" y="362" on="0"/>
        <pt x="913" y="502" on="1"/>
        <pt x="913" y="641" on="0"/>
        <pt x="852" y="754" on="0"/>
        <pt x="762" y="754" on="1"/>
        <pt x="672" y="754" on="0"/>
        <pt x="610" y="641" on="0"/>
      </contour>
    </TTGlyph>
    <TTGlyph name="exclam" xMin="123" yMin="-43" xMax="631" yMax="1513">
      <contour>
        <pt x="123" y="1260" on="1"/>
        <pt x="123" y="1311" on="0"/>
        <pt x="164" y="1405" on="0"/>
        <pt x="231" y="1473" on="0"/>
        <pt x="324" y="1513" on="0"/>
        <pt x="377" y="1513" on="1"/>
        <pt x="428" y="1513" on="0"/>
        <pt x="522" y="1473" on="0"/>
        <pt x="590" y="1405" on="0"/>
        <pt x="631" y="1311" on="0"/>
        <pt x="631" y="1260" on="1"/>
        <pt x="631" y="1241" on="0"/>
        <pt x="627" y="1194" on="0"/>
        <pt x="623" y="1178" on="1"/>
        <pt x="510" y="532" on="1"/>
        <pt x="248" y="532" on="1"/>
        <pt x="131" y="1178" on="1"/>
        <pt x="127" y="1196" on="0"/>
        <pt x="123" y="1239" on="0"/>
      </contour>
      <contour>
        <pt x="123" y="211" on="1"/>
        <pt x="123" y="262" on="0"/>
        <pt x="164" y="356" on="0"/>
        <pt x="231" y="424" on="0"/>
        <pt x="324" y="465" on="0"/>
        <pt x="377" y="465" on="1"/>
        <pt x="428" y="465" on="0"/>
        <pt x="522" y="424" on="0"/>
        <pt x="590" y="356" on="0"/>
        <pt x="631" y="262" on="0"/>
        <pt x="631" y="211" on="1"/>
        <pt x="631" y="158" on="0"/>
        <pt x="590" y="66" on="0"/>
        <pt x="522" y="-2" on="0"/>
        <pt x="428" y="-43" on="0"/>
        <pt x="377" y="-43" on="1"/>
        <pt x="324" y="-43" on="0"/>
        <pt x="231" y="-2" on="0"/>
        <pt x="164" y="66" on="0"/>
        <pt x="123" y="158" on="0"/>
      </contour>
    </TTGlyph>
    <TTGlyph name="exclamdown" xMin="123" yMin="-43" xMax="631" yMax="1513">
      <contour>
        <pt x="123" y="211" on="1"/>
        <pt x="123" y="231" on="0"/>
        <pt x="127" y="274" on="0"/>
        <pt x="131" y="293" on="1"/>
        <pt x="248" y="938" on="1"/>
        <pt x="510" y="938" on="1"/>
        <pt x="623" y="293" on="1"/>
        <pt x="627" y="276" on="0"/>
        <pt x="631" y="229" on="0"/>
        <pt x="631" y="211" on="1"/>
        <pt x="631" y="158" on="0"/>
        <pt x="590" y="66" on="0"/>
        <pt x="522" y="-2" on="0"/>
        <pt x="428" y="-43" on="0"/>
        <pt x="377" y="-43" on="1"/>
        <pt x="324" y="-43" on="0"/>
        <pt x="231" y="-2" on="0"/>
        <pt x="164" y="66" on="0"/>
        <pt x="123" y="158" on="0"/>
      </contour>
      <contour>
        <pt x="123" y="1260" on="1"/>
        <pt x="123" y="1311" on="0"/>
        <pt x="164" y="1405" on="0"/>
        <pt x="231" y="1473" on="0"/>
        <pt x="324" y="1513" on="0"/>
        <pt x="377" y="1513" on="1"/>
        <pt x="428" y="1513" on="0"/>
        <pt x="522" y="1473" on="0"/>
        <pt x="590" y="1405" on="0"/>
        <pt x="631" y="1311" on="0"/>
        <pt x="631" y="1260" on="1"/>
        <pt x="631" y="1206" on="0"/>
        <pt x="590" y="1114" on="0"/>
        <pt x="522" y="1047" on="0"/>
        <pt x="428" y="1006" on="0"/>
        <pt x="377" y="1006" on="1"/>
        <pt x="324" y="1006" on="0"/>
        <pt x="231" y="1047" on="0"/>
        <pt x="164" y="1114" on="0"/>
        <pt x="123" y="1206" on="0"/>
      </contour>
    </TTGlyph>
    <TTGlyph name="f" xMin="41" yMin="0" xMax="1149" yMax="1556">
      <contour>
        <pt x="203" y="1102" on="1"/>
        <pt x="186" y="1110" on="0"/>
        <pt x="147" y="1141" on="0"/>
        <pt x="115" y="1188" on="0"/>
        <pt x="92" y="1249" on="0"/>
        <pt x="92" y="1288" on="1"/>
        <pt x="92" y="1358" on="0"/>
        <pt x="172" y="1460" on="0"/>
        <pt x="315" y="1526" on="0"/>
        <pt x="516" y="1556" on="0"/>
        <pt x="639" y="1556" on="1"/>
        <pt x="782" y="1556" on="0"/>
        <pt x="977" y="1522" on="0"/>
        <pt x="1098" y="1458" on="0"/>
        <pt x="1149" y="1368" on="0"/>
        <pt x="1149" y="1313" on="1"/>
        <pt x="1149" y="1280" on="0"/>
        <pt x="1128" y="1219" on="0"/>
        <pt x="1079" y="1169" on="0"/>
        <pt x="999" y="1139" on="0"/>
        <pt x="942" y="1139" on="1"/>
        <pt x="838" y="1139" on="0"/>
        <pt x="739" y="1237" on="0"/>
        <pt x="739" y="1309" on="1"/>
        <pt x="739" y="1350" on="0"/>
        <pt x="784" y="1405" on="0"/>
        <pt x="811" y="1415" on="1"/>
        <pt x="799" y="1423" on="1"/>
        <pt x="745" y="1423" on="0"/>
        <pt x="678" y="1395" on="0"/>
        <pt x="641" y="1356" on="0"/>
        <pt x="629" y="1307" on="0"/>
        <pt x="629" y="1284" on="1"/>
        <pt x="629" y="1251" on="0"/>
        <pt x="655" y="1186" on="0"/>
        <pt x="717" y="1135" on="0"/>
        <pt x="819" y="1102" on="0"/>
        <pt x="895" y="1102" on="1"/>
        <pt x="1006" y="1102" on="1"/>
        <pt x="1006" y="731" on="1"/>
        <pt x="780" y="731" on="1"/>
        <pt x="780" y="479" on="1"/>
        <pt x="780" y="412" on="0"/>
        <pt x="846" y="371" on="0"/>
        <pt x="897" y="371" on="1"/>
        <pt x="965" y="371" on="1"/>
        <pt x="965" y="0" on="1"/>
        <pt x="82" y="0" on="1"/>
        <pt x="82" y="371" on="1"/>
        <pt x="121" y="371" on="1"/>
        <pt x="174" y="371" on="0"/>
        <pt x="225" y="438" on="0"/>
        <pt x="225" y="477" on="1"/>
        <pt x="225" y="731" on="1"/>
        <pt x="41" y="731" on="1"/>
        <pt x="41" y="1102" on="1"/>
      </contour>
    </TTGlyph>
    <TTGlyph name="fi" xMin="41" yMin="0" xMax="1909" yMax="1556">
      <contour>
        <pt x="203" y="1102" on="1"/>
        <pt x="186" y="1110" on="0"/>
        <pt x="147" y="1141" on="0"/>
        <pt x="115" y="1188" on="0"/>
        <pt x="92" y="1249" on="0"/>
        <pt x="92" y="1288" on="1"/>
        <pt x="92" y="1358" on="0"/>
        <pt x="172" y="1460" on="0"/>
        <pt x="315" y="1526" on="0"/>
        <pt x="516" y="1556" on="0"/>
        <pt x="639" y="1556" on="1"/>
        <pt x="782" y="1556" on="0"/>
        <pt x="977" y="1522" on="0"/>
        <pt x="1098" y="1458" on="0"/>
        <pt x="1149" y="1368" on="0"/>
        <pt x="1149" y="1313" on="1"/>
        <pt x="1149" y="1280" on="0"/>
        <pt x="1128" y="1219" on="0"/>
        <pt x="1079" y="1169" on="0"/>
        <pt x="999" y="1139" on="0"/>
        <pt x="942" y="1139" on="1"/>
        <pt x="838" y="1139" on="0"/>
        <pt x="739" y="1237" on="0"/>
        <pt x="739" y="1309" on="1"/>
        <pt x="739" y="1350" on="0"/>
        <pt x="784" y="1405" on="0"/>
        <pt x="811" y="1415" on="1"/>
        <pt x="799" y="1423" on="1"/>
        <pt x="745" y="1423" on="0"/>
        <pt x="678" y="1395" on="0"/>
        <pt x="641" y="1356" on="0"/>
        <pt x="629" y="1307" on="0"/>
        <pt x="629" y="1284" on="1"/>
        <pt x="629" y="1251" on="0"/>
        <pt x="655" y="1186" on="0"/>
        <pt x="717" y="1135" on="0"/>
        <pt x="819" y="1102" on="0"/>
        <pt x="895" y="1102" on="1"/>
        <pt x="965" y="1102" on="1"/>
        <pt x="965" y="731" on="1"/>
        <pt x="780" y="731" on="1"/>
        <pt x="780" y="479" on="1"/>
        <pt x="780" y="412" on="0"/>
        <pt x="846" y="371" on="0"/>
        <pt x="897" y="371" on="1"/>
        <pt x="965" y="371" on="1"/>
        <pt x="965" y="0" on="1"/>
        <pt x="82" y="0" on="1"/>
        <pt x="82" y="371" on="1"/>
        <pt x="121" y="371" on="1"/>
        <pt x="174" y="371" on="0"/>
        <pt x="225" y="438" on="0"/>
        <pt x="225" y="477" on="1"/>
        <pt x="225" y="731" on="1"/>
        <pt x="41" y="731" on="1"/>
        <pt x="41" y="1102" on="1"/>
      </contour>
      <contour>
        <pt x="1765" y="1102" on="1"/>
        <pt x="1765" y="479" on="1"/>
        <pt x="1765" y="412" on="0"/>
        <pt x="1831" y="371" on="0"/>
        <pt x="1882" y="371" on="1"/>
        <pt x="1909" y="371" on="1"/>
        <pt x="1909" y="0" on="1"/>
        <pt x="1067" y="0" on="1"/>
        <pt x="1067" y="371" on="1"/>
        <pt x="1106" y="371" on="1"/>
        <pt x="1159" y="371" on="0"/>
        <pt x="1210" y="438" on="0"/>
        <pt x="1210" y="477" on="1"/>
        <pt x="1210" y="618" on="1"/>
        <pt x="1210" y="676" on="0"/>
        <pt x="1137" y="731" on="0"/>
        <pt x="1090" y="731" on="1"/>
        <pt x="1067" y="731" on="1"/>
        <pt x="1067" y="1102" on="1"/>
      </contour>
      <contour>
        <pt x="1194" y="1348" on="1"/>
        <pt x="1194" y="1434" on="0"/>
        <pt x="1325" y="1556" on="0"/>
        <pt x="1446" y="1556" on="1"/>
        <pt x="1569" y="1556" on="0"/>
        <pt x="1702" y="1434" on="0"/>
        <pt x="1702" y="1348" on="1"/>
        <pt x="1702" y="1260" on="0"/>
        <pt x="1569" y="1139" on="0"/>
        <pt x="1446" y="1139" on="1"/>
        <pt x="1325" y="1139" on="0"/>
        <pt x="1194" y="1260" on="0"/>
      </contour>
    </TTGlyph>
    <TTGlyph name="five" xMin="31" yMin="-41" xMax="1397" yMax="1493">
      <contour>
        <pt x="598" y="246" on="1"/>
        <pt x="733" y="246" on="0"/>
        <pt x="868" y="389" on="0"/>
        <pt x="868" y="500" on="1"/>
        <pt x="868" y="616" on="0"/>
        <pt x="719" y="739" on="0"/>
        <pt x="592" y="739" on="1"/>
        <pt x="508" y="739" on="0"/>
        <pt x="406" y="705" on="0"/>
        <pt x="381" y="694" on="1"/>
        <pt x="131" y="694" on="1"/>
        <pt x="131" y="1493" on="1"/>
        <pt x="174" y="1493" on="1"/>
        <pt x="252" y="1479" on="0"/>
        <pt x="373" y="1462" on="0"/>
        <pt x="496" y="1454" on="0"/>
        <pt x="637" y="1452" on="0"/>
        <pt x="733" y="1452" on="1"/>
        <pt x="846" y="1452" on="0"/>
        <pt x="1018" y="1456" on="0"/>
        <pt x="1151" y="1464" on="0"/>
        <pt x="1257" y="1481" on="0"/>
        <pt x="1305" y="1493" on="1"/>
        <pt x="1354" y="1473" on="1"/>
        <pt x="1333" y="1386" on="0"/>
        <pt x="1266" y="1239" on="0"/>
        <pt x="1133" y="1135" on="0"/>
        <pt x="909" y="1075" on="0"/>
        <pt x="735" y="1075" on="1"/>
        <pt x="633" y="1075" on="0"/>
        <pt x="520" y="1085" on="0"/>
        <pt x="483" y="1094" on="1"/>
        <pt x="483" y="961" on="1"/>
        <pt x="502" y="967" on="0"/>
        <pt x="543" y="975" on="0"/>
        <pt x="598" y="983" on="0"/>
        <pt x="672" y="987" on="0"/>
        <pt x="723" y="987" on="1"/>
        <pt x="915" y="987" on="0"/>
        <pt x="1176" y="903" on="0"/>
        <pt x="1331" y="758" on="0"/>
        <pt x="1397" y="567" on="0"/>
        <pt x="1397" y="461" on="1"/>
        <pt x="1397" y="352" on="0"/>
        <pt x="1313" y="170" on="0"/>
        <pt x="1139" y="35" on="0"/>
        <pt x="872" y="-41" on="0"/>
        <pt x="688" y="-41" on="1"/>
        <pt x="379" y="-41" on="0"/>
        <pt x="31" y="174" on="0"/>
        <pt x="31" y="371" on="1"/>
        <pt x="31" y="442" on="0"/>
        <pt x="76" y="549" on="0"/>
        <pt x="150" y="616" on="0"/>
        <pt x="244" y="649" on="0"/>
        <pt x="291" y="649" on="1"/>
        <pt x="408" y="649" on="0"/>
        <pt x="522" y="551" on="0"/>
        <pt x="522" y="473" on="1"/>
        <pt x="522" y="395" on="0"/>
        <pt x="432" y="315" on="0"/>
        <pt x="371" y="297" on="1"/>
        <pt x="420" y="272" on="0"/>
        <pt x="530" y="246" on="0"/>
      </contour>
    </TTGlyph>
    <TTGlyph name="fl" xMin="41" yMin="0" xMax="1950" yMax="1556">
      <contour>
        <pt x="203" y="1102" on="1"/>
        <pt x="186" y="1110" on="0"/>
        <pt x="147" y="1141" on="0"/>
        <pt x="115" y="1188" on="0"/>
        <pt x="92" y="1249" on="0"/>
        <pt x="92" y="1288" on="1"/>
        <pt x="92" y="1358" on="0"/>
        <pt x="170" y="1460" on="0"/>
        <pt x="311" y="1526" on="0"/>
        <pt x="504" y="1556" on="0"/>
        <pt x="618" y="1556" on="1"/>
        <pt x="750" y="1556" on="0"/>
        <pt x="930" y="1522" on="0"/>
        <pt x="1040" y="1458" on="0"/>
        <pt x="1087" y="1368" on="0"/>
        <pt x="1087" y="1313" on="1"/>
        <pt x="1087" y="1280" on="0"/>
        <pt x="1067" y="1219" on="0"/>
        <pt x="1020" y="1169" on="0"/>
        <pt x="944" y="1139" on="0"/>
        <pt x="891" y="1139" on="1"/>
        <pt x="793" y="1139" on="0"/>
        <pt x="698" y="1237" on="0"/>
        <pt x="698" y="1309" on="1"/>
        <pt x="698" y="1350" on="0"/>
        <pt x="743" y="1405" on="0"/>
        <pt x="770" y="1415" on="1"/>
        <pt x="758" y="1423" on="1"/>
        <pt x="705" y="1423" on="0"/>
        <pt x="637" y="1395" on="0"/>
        <pt x="600" y="1356" on="0"/>
        <pt x="588" y="1307" on="0"/>
        <pt x="588" y="1284" on="1"/>
        <pt x="588" y="1251" on="0"/>
        <pt x="614" y="1186" on="0"/>
        <pt x="676" y="1135" on="0"/>
        <pt x="778" y="1102" on="0"/>
        <pt x="854" y="1102" on="1"/>
        <pt x="1006" y="1102" on="1"/>
        <pt x="1006" y="731" on="1"/>
        <pt x="780" y="731" on="1"/>
        <pt x="780" y="479" on="1"/>
        <pt x="780" y="412" on="0"/>
        <pt x="846" y="371" on="0"/>
        <pt x="897" y="371" on="1"/>
        <pt x="965" y="371" on="1"/>
        <pt x="965" y="0" on="1"/>
        <pt x="82" y="0" on="1"/>
        <pt x="82" y="371" on="1"/>
        <pt x="121" y="371" on="1"/>
        <pt x="174" y="371" on="0"/>
        <pt x="225" y="438" on="0"/>
        <pt x="225" y="477" on="1"/>
        <pt x="225" y="731" on="1"/>
        <pt x="41" y="731" on="1"/>
        <pt x="41" y="1102" on="1"/>
      </contour>
      <contour>
        <pt x="1806" y="1473" on="1"/>
        <pt x="1806" y="479" on="1"/>
        <pt x="1806" y="412" on="0"/>
        <pt x="1872" y="371" on="0"/>
        <pt x="1923" y="371" on="1"/>
        <pt x="1950" y="371" on="1"/>
        <pt x="1950" y="0" on="1"/>
        <pt x="1108" y="0" on="1"/>
        <pt x="1108" y="371" on="1"/>
        <pt x="1147" y="371" on="1"/>
        <pt x="1200" y="371" on="0"/>
        <pt x="1251" y="438" on="0"/>
        <pt x="1251" y="477" on="1"/>
        <pt x="1251" y="989" on="1"/>
        <pt x="1251" y="1102" on="0"/>
        <pt x="1151" y="1102" on="1"/>
        <pt x="1128" y="1102" on="1"/>
        <pt x="1128" y="1473" on="1"/>
      </contour>
    </TTGlyph>
    <TTGlyph name="florin" xMin="-123" yMin="-512" xMax="1288" yMax="1493">
      <contour>
        <pt x="315" y="817" on="1"/>
        <pt x="315" y="981" on="1"/>
        <pt x="315" y="1122" on="0"/>
        <pt x="385" y="1319" on="0"/>
        <pt x="518" y="1440" on="0"/>
        <pt x="715" y="1493" on="0"/>
        <pt x="842" y="1493" on="1"/>
        <pt x="965" y="1493" on="0"/>
        <pt x="1135" y="1444" on="0"/>
        <pt x="1241" y="1364" on="0"/>
        <pt x="1288" y="1260" on="0"/>
        <pt x="1288" y="1202" on="1"/>
        <pt x="1288" y="1116" on="0"/>
        <pt x="1180" y="993" on="0"/>
        <pt x="1075" y="993" on="1"/>
        <pt x="1028" y="993" on="0"/>
        <pt x="956" y="1026" on="0"/>
        <pt x="909" y="1075" on="0"/>
        <pt x="887" y="1137" on="0"/>
        <pt x="887" y="1165" on="1"/>
        <pt x="887" y="1219" on="0"/>
        <pt x="920" y="1276" on="0"/>
        <pt x="942" y="1298" on="1"/>
        <pt x="928" y="1315" on="1"/>
        <pt x="879" y="1282" on="0"/>
        <pt x="850" y="1192" on="0"/>
        <pt x="850" y="1139" on="1"/>
        <pt x="850" y="817" on="1"/>
        <pt x="1073" y="817" on="1"/>
        <pt x="1073" y="614" on="1"/>
        <pt x="850" y="614" on="1"/>
        <pt x="850" y="0" on="1"/>
        <pt x="850" y="-141" on="0"/>
        <pt x="780" y="-338" on="0"/>
        <pt x="647" y="-459" on="0"/>
        <pt x="451" y="-512" on="0"/>
        <pt x="324" y="-512" on="1"/>
        <pt x="201" y="-512" on="0"/>
        <pt x="31" y="-463" on="0"/>
        <pt x="-76" y="-383" on="0"/>
        <pt x="-123" y="-279" on="0"/>
        <pt x="-123" y="-221" on="1"/>
        <pt x="-123" y="-135" on="0"/>
        <pt x="-14" y="-12" on="0"/>
        <pt x="90" y="-12" on="1"/>
        <pt x="137" y="-12" on="0"/>
        <pt x="209" y="-45" on="0"/>
        <pt x="256" y="-94" on="0"/>
        <pt x="279" y="-156" on="0"/>
        <pt x="279" y="-184" on="1"/>
        <pt x="279" y="-238" on="0"/>
        <pt x="246" y="-295" on="0"/>
        <pt x="223" y="-317" on="1"/>
        <pt x="238" y="-334" on="1"/>
        <pt x="287" y="-301" on="0"/>
        <pt x="315" y="-211" on="0"/>
        <pt x="315" y="-158" on="1"/>
        <pt x="315" y="614" on="1"/>
        <pt x="113" y="614" on="1"/>
        <pt x="113" y="817" on="1"/>
      </contour>
    </TTGlyph>
    <TTGlyph name="four" xMin="41" yMin="0" xMax="1466" yMax="1473">
      <contour>
        <pt x="41" y="797" on="1"/>
        <pt x="686" y="1473" on="1"/>
        <pt x="1241" y="1473" on="1"/>
        <pt x="1241" y="711" on="1"/>
        <pt x="1466" y="711" on="1"/>
        <pt x="1466" y="494" on="1"/>
        <pt x="1241" y="494" on="1"/>
        <pt x="1241" y="459" on="1"/>
        <pt x="1241" y="424" on="0"/>
        <pt x="1251" y="389" on="0"/>
        <pt x="1276" y="373" on="0"/>
        <pt x="1313" y="371" on="0"/>
        <pt x="1337" y="371" on="1"/>
        <pt x="1384" y="371" on="1"/>
        <pt x="1384" y="0" on="1"/>
        <pt x="543" y="0" on="1"/>
        <pt x="543" y="371" on="1"/>
        <pt x="602" y="371" on="1"/>
        <pt x="655" y="371" on="0"/>
        <pt x="686" y="418" on="0"/>
        <pt x="686" y="457" on="1"/>
        <pt x="686" y="494" on="1"/>
        <pt x="41" y="494" on="1"/>
      </contour>
      <contour>
        <pt x="313" y="711" on="1"/>
        <pt x="686" y="711" on="1"/>
        <pt x="686" y="1110" on="1"/>
      </contour>
    </TTGlyph>
    <TTGlyph name="fraction" xMin="-457" yMin="0" xMax="915" yMax="1473">
      <contour>
        <pt x="627" y="1473" on="1"/>
        <pt x="915" y="1473" on="1"/>
        <pt x="-168" y="0" on="1"/>
        <pt x="-457" y="0" on="1"/>
      </contour>
    </TTGlyph>
    <TTGlyph name="g" xMin="45" yMin="-532" xMax="1571" yMax="1147">
      <contour>
        <pt x="1509" y="-182" on="1"/>
        <pt x="1509" y="-352" on="0"/>
        <pt x="1118" y="-532" on="0"/>
        <pt x="748" y="-532" on="1"/>
        <pt x="614" y="-532" on="0"/>
        <pt x="360" y="-524" on="0"/>
        <pt x="164" y="-479" on="0"/>
        <pt x="45" y="-381" on="0"/>
        <pt x="45" y="-291" on="1"/>
        <pt x="45" y="-219" on="0"/>
        <pt x="137" y="-127" on="0"/>
        <pt x="190" y="-100" on="1"/>
        <pt x="125" y="-61" on="0"/>
        <pt x="78" y="35" on="0"/>
        <pt x="78" y="92" on="1"/>
        <pt x="78" y="160" on="0"/>
        <pt x="176" y="285" on="0"/>
        <pt x="268" y="344" on="1"/>
        <pt x="178" y="403" on="0"/>
        <pt x="82" y="573" on="0"/>
        <pt x="82" y="690" on="1"/>
        <pt x="82" y="803" on="0"/>
        <pt x="176" y="973" on="0"/>
        <pt x="352" y="1087" on="0"/>
        <pt x="596" y="1147" on="0"/>
        <pt x="748" y="1147" on="1"/>
        <pt x="911" y="1147" on="0"/>
        <pt x="1174" y="1077" on="0"/>
        <pt x="1266" y="1006" on="1"/>
        <pt x="1284" y="1030" on="0"/>
        <pt x="1315" y="1053" on="1"/>
        <pt x="1341" y="1071" on="0"/>
        <pt x="1421" y="1102" on="0"/>
        <pt x="1479" y="1102" on="1"/>
        <pt x="1571" y="1102" on="1"/>
        <pt x="1571" y="731" on="1"/>
        <pt x="1505" y="731" on="1"/>
        <pt x="1462" y="731" on="0"/>
        <pt x="1417" y="684" on="0"/>
        <pt x="1413" y="662" on="1"/>
        <pt x="1378" y="451" on="0"/>
        <pt x="1040" y="229" on="0"/>
        <pt x="748" y="229" on="1"/>
        <pt x="584" y="229" on="0"/>
        <pt x="451" y="264" on="1"/>
        <pt x="430" y="250" on="0"/>
        <pt x="430" y="229" on="1"/>
        <pt x="430" y="190" on="0"/>
        <pt x="522" y="158" on="0"/>
        <pt x="674" y="147" on="0"/>
        <pt x="868" y="150" on="0"/>
        <pt x="1071" y="141" on="0"/>
        <pt x="1266" y="113" on="0"/>
        <pt x="1417" y="41" on="0"/>
        <pt x="1509" y="-84" on="0"/>
      </contour>
      <contour>
        <pt x="608" y="690" on="1"/>
        <pt x="608" y="586" on="0"/>
        <pt x="666" y="473" on="0"/>
        <pt x="748" y="473" on="1"/>
        <pt x="831" y="473" on="0"/>
        <pt x="889" y="586" on="0"/>
        <pt x="889" y="690" on="1"/>
        <pt x="889" y="793" on="0"/>
        <pt x="831" y="901" on="0"/>
        <pt x="748" y="901" on="1"/>
        <pt x="666" y="901" on="0"/>
        <pt x="608" y="793" on="0"/>
      </contour>
      <contour>
        <pt x="793" y="-197" on="1"/>
        <pt x="686" y="-197" on="0"/>
        <pt x="512" y="-186" on="0"/>
        <pt x="442" y="-176" on="1"/>
        <pt x="432" y="-193" on="0"/>
        <pt x="432" y="-211" on="1"/>
        <pt x="432" y="-283" on="0"/>
        <pt x="588" y="-328" on="0"/>
        <pt x="715" y="-328" on="1"/>
        <pt x="885" y="-328" on="0"/>
        <pt x="1042" y="-287" on="0"/>
        <pt x="1042" y="-250" on="1"/>
        <pt x="1042" y="-231" on="0"/>
        <pt x="997" y="-211" on="0"/>
        <pt x="924" y="-199" on="0"/>
        <pt x="836" y="-197" on="0"/>
      </contour>
    </TTGlyph>
    <TTGlyph name="gbreve" xMin="45" yMin="-532" xMax="1571" yMax="1548">
      <component glyphName="g" x="0" y="0" flags="0x1204"/>
      <component glyphName="breve" x="238" y="0" flags="0x1004"/>
    </TTGlyph>
    <TTGlyph name="gcircumflex" xMin="45" yMin="-532" xMax="1571" yMax="1548">
      <component glyphName="g" x="0" y="0" flags="0x1204"/>
      <component glyphName="circumflex" x="238" y="0" flags="0x1004"/>
    </TTGlyph>
    <TTGlyph name="gcommaaccent" xMin="45" yMin="-532" xMax="1571" yMax="1616">
      <component glyphName="g" x="0" y="0" flags="0x1204"/>
      <component glyphName="uni0312" x="242" y="0" flags="0x1004"/>
    </TTGlyph>
    <TTGlyph name="gdotaccent" xMin="45" yMin="-532" xMax="1571" yMax="1573">
      <component glyphName="g" x="0" y="0" flags="0x1204"/>
      <component glyphName="dotaccent" x="238" y="0" flags="0x1004"/>
    </TTGlyph>
</ttFont>
